<?xml version="1.0" encoding="UTF-8"?>
<svg xmlns="http://www.w3.org/2000/svg" viewBox="0 0 35 35">
  <defs>
    <style>
      .cls-1, .cls-2 {
        fill: #333;
      }

      .cls-3, .cls-4 {
        opacity: .2;
      }

      .cls-3, .cls-5 {
        fill: #e46a5d;
      }

      .cls-6 {
        fill: #f2f2f2;
      }

      .cls-7, .cls-8 {
        fill: #fff;
      }

      .cls-9 {
        fill: #d9d9d9;
      }

      .cls-9, .cls-2 {
        mix-blend-mode: multiply;
      }

      .cls-10 {
        isolation: isolate;
      }

      .cls-11 {
        fill: none;
        opacity: 0;
      }

      .cls-5, .cls-8 {
        opacity: .3;
      }

      .cls-8 {
        mix-blend-mode: overlay;
      }

      .cls-12 {
        fill: #dc564b;
      }

      .cls-2 {
        opacity: .4;
      }
    </style>
  </defs>
  <g class="cls-10">
    <g id="Lager_2" data-name="Lager 2">
      <g id="Layer_2" data-name="Layer 2">
        <g>
          <circle class="cls-11" cx="17.5" cy="17.5" r="17.5"/>
          <g>
            <g>
              <path class="cls-1" d="M13.13,23.05h8.72c5.27,0,8.31,4.51,8.31,6.47,0,.03,0,.05,0,.08-3.2,3.33-7.69,5.4-12.66,5.4s-9.47-2.07-12.66-5.4c0-.03,0-.05,0-.08,0-1.96,3.04-6.47,8.31-6.47Z"/>
              <path class="cls-12" d="M17.48,35c-1.11,0-2.2-.11-3.26-.31l3.27-6.19,3.27,6.19c-1.06.2-2.16.31-3.29.31Z"/>
              <path class="cls-8" d="M29.83,29.92c-.91-1.61-3.72-3.82-7.98-3.82h-8.72c-4.27,0-7.07,2.2-7.98,3.82-.11-.11-.22-.21-.32-.32,0-.03,0-.05,0-.08,0-1.96,3.04-6.47,8.31-6.47h8.72c5.27,0,8.31,4.51,8.31,6.47,0,.03,0,.05,0,.08-.1.11-.22.21-.32.32Z"/>
              <path class="cls-2" d="M9.64,23.77c1.02-.44,2.18-.72,3.48-.72h8.72c1.31,0,2.49.28,3.51.73-1.62,3.51-4.59,5.89-7.85,5.89h0c-3.26,0-6.24-2.38-7.86-5.9Z"/>
            </g>
            <g>
              <path class="cls-1" d="M17.5,2.83c15.27,9.71,8.64,25.67,0,25.67h0c-8.64,0-15.27-15.96,0-25.67Z"/>
              <path class="cls-8" d="M17.5,5.83c-6.18,3.93-8.77,8.4-9.1,12.32-.35-4.98,2.02-10.82,9.1-15.32,7.08,4.5,9.45,10.35,9.1,15.32-.32-3.92-2.91-8.38-9.1-12.32Z"/>
              <path d="M17.5,5.83c12.13,8.84,6.86,20.92,0,20.92h0c-6.86,0-12.13-12.08,0-20.92Z"/>
              <g>
                <path class="cls-6" d="M11.59,12.48c.36-.71.79-1.42,1.3-2.13,1.14-.46,2.86-1.02,4.59-1.02,0,0,0,0,0,0,0,0,0,0,0,0,1.75,0,3.5.57,4.63,1.04.49.68.91,1.37,1.26,2.06-.06,1.39-.25,3.65-.85,6.25-1.43,6.19-5.04,6.13-5.04,6.13,0,0-3.61.07-5.04-6.13-.59-2.56-.79-4.8-.85-6.19Z"/>
                <path class="cls-9" d="M17.48,9.32s0,0,0,0c0,0,0,0,0,0h0ZM17.48,9.32s0,0,0,0h0s0,0,0,0ZM13.5,21.64c1.66,3.19,3.99,3.15,3.99,3.15,0,0,2.33.04,3.99-3.15-1.81,2.22-3.99,2.19-3.99,2.19,0,0-2.17.03-3.99-2.19Z"/>
                <path class="cls-1" d="M13.65,15.51s.56.36,1.26.36,1.26-.36,1.26-.36c0,0-.56-.36-1.26-.36s-1.26.36-1.26.36Z"/>
                <path class="cls-1" d="M21.35,15.51s-.56.36-1.26.36-1.26-.36-1.26-.36c0,0,.56-.36,1.26-.36s1.26.36,1.26.36Z"/>
                <path class="cls-1" d="M16.83,13.54c-.73-.39-1.48-.76-2.34-.59-.44.09-.86.31-1.21.58-.11.09-.35.2-.41.34-.06.15.11.21.22.15.77-.47,1.55-.86,2.45-.46.34.15.61.41.94.57.38.26.75-.37.35-.58Z"/>
                <polygon class="cls-7" points="17.11 14.67 17.11 19.6 15.91 18.16 16.16 15.51 17.11 14.67"/>
                <polygon class="cls-7" points="17.89 14.67 17.89 19.6 19.09 18.16 18.84 15.51 17.89 14.67"/>
                <path class="cls-7" d="M17.49,21.16c1.78,0,3.26-.62,3.54-1.43.03.09.05.18.05.28,0,.94-1.61,1.71-3.59,1.71s-3.59-.77-3.59-1.71c0-.1.02-.19.05-.28.28.81,1.75,1.43,3.54,1.43Z"/>
                <path class="cls-1" d="M17.12,21.71c.12,0,.25,0,.38,0s.26,0,.39-.01c-.06.21-.19.51-.19.69s.13.51.19.71c-.02.74-.39,1.34-.39,1.34,0,0-.37-.6-.39-1.34.06-.21.19-.53.19-.71s-.12-.48-.19-.69Z"/>
                <path class="cls-1" d="M15.99,20.85c.17,0,.33-.01.48-.03.46-.07.81-.23,1.02-.48.22.24.56.41,1.02.48,1.01.15,2.35-.2,2.56-.89.04-.13-.04-.28-.17-.32-.13-.04-.28.03-.32.17-.1.33-1.13.66-2,.53-.39-.06-.84-.22-.84-.66h-.51c0,.45-.46.61-.84.66-.87.13-1.9-.2-2-.53-.04-.13-.18-.21-.32-.17-.13.04-.21.18-.17.32.18.58,1.16.92,2.08.92Z"/>
                <path class="cls-7" d="M23.17,14.96c-.1.85-.25,1.79-.45,2.8.38-1.65-1.43-1.9-2.63-1.9l1.26-.36s.96-.44,1.82-.55Z"/>
                <path class="cls-7" d="M11.83,14.96c.1.85.25,1.79.45,2.8-.38-1.65,1.43-1.9,2.63-1.9l-1.26-.36s-.96-.44-1.82-.55Z"/>
                <g>
                  <path class="cls-5" d="M22.74,17.65c.02-.09.03-.17.05-.26,0,.09-.02.17-.05.26Z"/>
                  <path class="cls-3" d="M20.41,15.87c1.15.04,2.6.37,2.33,1.8-.21.64-.93,1.11-1.79,1.11-1.02,0-1.85-.67-1.85-1.49,0-.67.55-1.24,1.31-1.42Z"/>
                </g>
                <g>
                  <path class="cls-5" d="M12.26,17.65c-.02-.09-.03-.17-.05-.26,0,.09.02.17.05.26Z"/>
                  <path class="cls-3" d="M14.59,15.87c-1.15.04-2.6.37-2.33,1.8.21.64.93,1.11,1.79,1.11,1.02,0,1.85-.67,1.85-1.49,0-.67-.55-1.24-1.31-1.42Z"/>
                </g>
                <path class="cls-1" d="M18.51,14.12c.28-.19.56-.36.85-.52.48-.26.96-.25,1.47-.13.39.11.73.33,1.07.54.11.07.28,0,.22-.15-.06-.14-.29-.24-.4-.33-.71-.56-1.64-.8-2.52-.48-.34.13-.73.27-1.03.49-.37.26-.04.84.35.58Z"/>
                <path class="cls-7" d="M14.98,9.66c.79-.2,1.65-.34,2.52-.34.87,0,1.73.14,2.52.34-2.46-.56.14,2.76,1.41,3.66-.67-.41-1.47-.56-2.23-.28-.34.13-.73.27-1.03.49-.15.11-.18.26-.15.39l-.52-.84-.52.84c.03-.13,0-.29-.15-.39-.3-.22-.69-.36-1.03-.49-.76-.28-1.56-.14-2.23.28,1.27-.91,3.87-4.23,1.41-3.66Z"/>
              </g>
              <path class="cls-4" d="M17.5,9.97c-4.49,3.27-6.59,6.28-7.12,9.66-.67-4.13,1.04-9.37,7.12-13.8,6.08,4.43,7.79,9.67,7.12,13.8-.53-3.38-2.63-6.39-7.12-9.66Z"/>
            </g>
          </g>
        </g>
      </g>
    </g>
  </g>
</svg>