<?xml version="1.0" encoding="UTF-8"?>
<svg xmlns="http://www.w3.org/2000/svg" xmlns:xlink="http://www.w3.org/1999/xlink" viewBox="0 0 35 35">
  <defs>
    <style>
      .cls-1 {
        fill: url(#linear-gradient-5);
      }

      .cls-1, .cls-2, .cls-3, .cls-4, .cls-5, .cls-6, .cls-7 {
        mix-blend-mode: multiply;
      }

      .cls-1, .cls-3 {
        opacity: .2;
      }

      .cls-2, .cls-8 {
        fill: #fbc288;
      }

      .cls-2, .cls-7 {
        opacity: .5;
      }

      .cls-3 {
        fill: url(#linear-gradient-8);
      }

      .cls-9 {
        fill: url(#linear-gradient-2);
      }

      .cls-10, .cls-11 {
        fill: #fff;
      }

      .cls-12, .cls-6 {
        fill: #d6be89;
      }

      .cls-13 {
        fill: url(#linear-gradient-4);
      }

      .cls-14 {
        fill: url(#linear-gradient-3);
      }

      .cls-15 {
        isolation: isolate;
      }

      .cls-16 {
        fill: none;
        opacity: 0;
      }

      .cls-17 {
        fill: #f1b14f;
      }

      .cls-4 {
        fill: #aadde9;
        opacity: .6;
      }

      .cls-18 {
        fill: url(#linear-gradient-7);
      }

      .cls-19 {
        fill: url(#linear-gradient-9);
      }

      .cls-20 {
        fill: url(#linear-gradient-6);
      }

      .cls-11, .cls-21 {
        mix-blend-mode: overlay;
        opacity: .3;
      }

      .cls-22 {
        fill: url(#linear-gradient);
      }

      .cls-23 {
        fill: #663f30;
      }
    </style>
    <linearGradient id="linear-gradient" x1="1634.73" y1="-16630.13" x2="1634.73" y2="-16618.36" gradientTransform="translate(1652.23 -16595.23) rotate(-180)" gradientUnits="userSpaceOnUse">
      <stop offset="0" stop-color="#fbd099"/>
      <stop offset="1" stop-color="#fbc288"/>
    </linearGradient>
    <linearGradient id="linear-gradient-2" x1="1634.73" y1="-16614.87" x2="1634.73" y2="-16623.19" gradientTransform="translate(1652.23 -16595.23) rotate(-180)" gradientUnits="userSpaceOnUse">
      <stop offset="0" stop-color="#fbc288"/>
      <stop offset="1" stop-color="#fbd099"/>
    </linearGradient>
    <linearGradient id="linear-gradient-3" x1="1634.74" y1="-16600.43" x2="1634.74" y2="-16618.95" xlink:href="#linear-gradient"/>
    <linearGradient id="linear-gradient-4" x1="1625.25" y1="-16628.32" x2="1625.25" y2="-16620.01" xlink:href="#linear-gradient-2"/>
    <linearGradient id="linear-gradient-5" x1="1625.25" y1="-16621.56" x2="1625.25" y2="-16619.99" xlink:href="#linear-gradient"/>
    <linearGradient id="linear-gradient-6" x1="1625.24" y1="-16617.03" x2="1625.24" y2="-16610.56" xlink:href="#linear-gradient"/>
    <linearGradient id="linear-gradient-7" x1="1625.25" y1="-16621.22" x2="1625.25" y2="-16615.38" xlink:href="#linear-gradient-2"/>
    <linearGradient id="linear-gradient-8" x1="1625.25" y1="-16617.8" x2="1625.25" y2="-16616.46" xlink:href="#linear-gradient"/>
    <linearGradient id="linear-gradient-9" x1="1625.99" y1="-16616.59" x2="1628.1" y2="-16619.59" xlink:href="#linear-gradient-2"/>
  </defs>
  <g class="cls-15">
    <g id="Lager_2" data-name="Lager 2">
      <g id="Layer_2" data-name="Layer 2">
        <g>
          <circle class="cls-16" cx="17.5" cy="17.5" r="17.5"/>
          <g>
            <g>
              <g>
                <path class="cls-22" d="M13.16,23.09h8.69c5.25,0,8.28,4.5,8.28,6.45,0,.03,0,.05,0,.08-3.18,3.31-7.66,5.38-12.62,5.38s-9.43-2.07-12.62-5.38c0-.03,0-.05,0-.08,0-1.95,3.03-6.45,8.28-6.45Z"/>
                <path class="cls-17" d="M10.74,23.43l11.04,11.04c-1.37.34-2.8.53-4.28.53-4.96,0-9.43-2.07-12.62-5.38,0-.03,0-.05,0-.08,0-1.63,2.11-5.03,5.86-6.11Z"/>
                <g class="cls-7">
                  <path class="cls-17" d="M12.25,34.2l1.25-8,.43,8.44c-.57-.12-1.13-.27-1.68-.44Z"/>
                  <path class="cls-17" d="M16.19,34.95l-2.68-8.75,3.37,8.79c-.23,0-.46-.02-.69-.04Z"/>
                  <path class="cls-17" d="M18.9,34.94l-5.4-8.74,6.02,8.68c-.21.02-.41.04-.62.06Z"/>
                </g>
                <path class="cls-17" d="M13.16,23.09h.35v11.44c-3.34-.78-6.32-2.52-8.62-4.92,0-.03,0-.05,0-.08,0-1.95,3.03-6.45,8.28-6.45Z"/>
                <path class="cls-11" d="M29.55,30.18c-1.11-2.08-3.79-4.59-7.71-4.59h-8.69c-3.92,0-6.6,2.51-7.71,4.59-.19-.18-.38-.37-.57-.56,0-.03,0-.05,0-.08,0-1.95,3.03-6.45,8.28-6.45h8.69c5.25,0,8.28,4.5,8.28,6.45,0,.03,0,.05,0,.08-.18.19-.37.38-.57.56Z"/>
                <path class="cls-9" d="M13.81,22.99v-3.33h7.39v3.7c0,3.14-3.7,5.58-3.7,5.58,0,0-3.7-2.44-3.7-5.58,0-.12,0-.25.02-.37Z"/>
              </g>
              <path class="cls-2" d="M13.81,19.65h7.39v3.7c0,.08,0,.16,0,.24-.97.91-2.27,1.48-3.71,1.48s-2.72-.55-3.68-1.45c0-.09,0-.18,0-.26,0-.12,0-.25.02-.37v-3.34Z"/>
              <g>
                <g>
                  <rect class="cls-8" x="11.21" y="13.29" width="12.55" height="3.99" rx="1.35" ry="1.35"/>
                  <path class="cls-14" d="M17.49,5.28c2.99,0,5.41,2.42,5.41,5.41v8.26c0,2.99-2.42,5.41-5.41,5.41s-5.41-2.42-5.41-5.41v-8.26c0-2.99,2.42-5.41,5.41-5.41Z"/>
                  <g class="cls-5">
                    <path class="cls-12" d="M15.66,20.63h3.58c.11,0,.2-.09.2-.2s-.09-.2-.2-.2h-3.58c-.11,0-.2.09-.2.2s.09.2.2.2Z"/>
                  </g>
                  <g>
                    <path class="cls-2" d="M17.94,18.44h-.9c-.28,0-.5-.23-.5-.51h1.91c0,.28-.23.51-.51.51Z"/>
                    <path class="cls-6" d="M18.08,17.94h-.35c0,.1.08.18.18.18s.18-.08.18-.18ZM16.89,17.94c0,.1.08.18.18.18s.18-.08.18-.18h-.35Z"/>
                  </g>
                  <path class="cls-4" d="M17.49,5.28c2.99,0,5.41,2.42,5.41,5.41v2.69c-.61,0-1.11-.5-1.11-1.11v-2.55c-1.21.5-2.69.8-4.29.8s-3.11-.3-4.32-.81v2.56c0,.61-.5,1.11-1.11,1.11v-2.69c0-2.99,2.42-5.41,5.41-5.41Z"/>
                  <g class="cls-21">
                    <path class="cls-10" d="M17.49,5.28c-2.99,0-5.41,2.42-5.41,5.41,0-1.58,2.42-3.49,5.41-3.49s5.41,2.02,5.41,3.49c0-2.99-2.42-5.41-5.41-5.41Z"/>
                  </g>
                  <g>
                    <path class="cls-2" d="M14.22,14.64c0,.58.47,1.05,1.05,1.05s1.05-.47,1.05-1.05-.47-1.05-1.05-1.05-1.05.47-1.05,1.05ZM18.68,14.64c0,.58.47,1.05,1.05,1.05s1.05-.47,1.05-1.05-.47-1.05-1.05-1.05-1.05.47-1.05,1.05Z"/>
                    <path d="M20.41,14.64h-1.35c0,.37.3.67.67.67s.67-.3.67-.67h0ZM14.59,14.64h0c0,.37.3.67.67.67s.67-.3.67-.67h0s-1.35,0-1.35,0Z"/>
                    <g>
                      <path class="cls-10" d="M15.54,14.86c-.12,0-.22-.1-.22-.22h.44c0,.12-.1.22-.22.22Z"/>
                      <path class="cls-10" d="M20.04,14.86c-.12,0-.22-.1-.22-.22h.44c0,.12-.1.22-.22.22Z"/>
                    </g>
                  </g>
                </g>
                <path class="cls-23" d="M20.88,13.51c.07,0,.13-.03.17-.09.06-.09.03-.22-.06-.28-.74-.48-1.74-.5-2.49-.05-.09.06-.13.18-.07.27.06.09.18.13.27.07.63-.37,1.46-.36,2.07.04.03.02.07.03.11.03Z"/>
                <path class="cls-23" d="M16.46,13.51c.07,0,.13-.03.17-.09.06-.09.03-.22-.06-.28-.74-.48-1.74-.49-2.49-.04-.09.06-.13.18-.07.27.06.09.18.13.27.07.63-.37,1.46-.36,2.07.04.03.02.07.03.11.03Z"/>
              </g>
            </g>
            <path class="cls-2" d="M24.61,25.69l-.03-.3c-.53-.39-1.08-.97-1.57-1.74-.11-.18-.21-.34-.3-.51,2.21.22,3.97,1.23,5.22,2.44v.12s.51,5.29.51,5.29c-.94.85-1.99,1.58-3.13,2.18l-.7-7.47Z"/>
            <path class="cls-23" d="M18.23,11.2c0,.18.15.33.33.33s.33-.15.33-.33-.15-.33-.33-.33-.33.15-.33.33ZM18.23,7.32c0,.18.15.33.33.33s.33-.15.33-.33-.15-.33-.33-.33-.33.15-.33.33ZM18.23,9.26c0,.18.15.33.33.33s.33-.15.33-.33-.15-.33-.33-.33-.33.15-.33.33ZM16.98,7.32c0-.18-.15-.33-.33-.33s-.33.15-.33.33.15.33.33.33.33-.15.33-.33ZM16.33,9.26c0,.18.15.33.33.33s.33-.15.33-.33-.15-.33-.33-.33-.33.15-.33.33ZM16.33,11.2c0,.18.15.33.33.33s.33-.15.33-.33-.15-.33-.33-.33-.33.15-.33.33Z"/>
            <g>
              <path class="cls-13" d="M25.31,33.16v-8.41h3.34v6.23c-1.02.85-2.14,1.58-3.34,2.18Z"/>
              <path class="cls-1" d="M28.65,25.69c-.44.4-1.03.64-1.67.64s-1.23-.25-1.67-.64v-.94h3.34v.94Z"/>
              <path class="cls-20" d="M28.37,17.44v4.39h1.1v-4.39c0-.3-.25-.55-.55-.55s-.55.25-.55.55ZM27.08,16.7v4.39h1.1v-4.39c0-.3-.25-.55-.55-.55s-.55.25-.55.55ZM25.8,15.97v4.39h1.1v-4.39c0-.3-.25-.55-.55-.55s-.55.25-.55.55ZM24.51,16.55v4.39h1.1v-4.39c0-.3-.25-.55-.55-.55s-.55.25-.55.55Z"/>
              <path class="cls-18" d="M25.19,20.23h3.58c.39,0,.7.31.7.7v2.6c0,1.38-1.12,2.49-2.49,2.49s-2.49-1.12-2.49-2.49v-2.6c0-.39.31-.7.7-.7Z"/>
              <path class="cls-3" d="M26.82,22.57c-.89,0-1.71-.27-2.33-.72v-.39c.62.36,1.44.59,2.33.59,1.06,0,2.01-.31,2.65-.8v.35c-.65.6-1.59.98-2.65.98Z"/>
              <path class="cls-19" d="M23.16,20.21c0,1.26.07,2.21.74,3.43,1.06,1.95,2.63,2.69,3.25,2.18.64-.53-.89-3.36-1.71-3.48-.17-.2-.69-.07-.95-.24-.11-.07-.17-.16-.17-.28,0-.39-.03-.97-.03-1.59,0-.92-1.13-.93-1.13-.02Z"/>
            </g>
          </g>
        </g>
      </g>
    </g>
  </g>
</svg>