<?xml version="1.0" encoding="UTF-8"?>
<svg xmlns="http://www.w3.org/2000/svg" viewBox="0 0 35 35">
  <defs>
    <style>
      .cls-1 {
        fill: #f2f2f2;
      }

      .cls-2, .cls-3, .cls-4 {
        fill: #fff;
      }

      .cls-5 {
        isolation: isolate;
      }

      .cls-6 {
        fill: none;
        opacity: 0;
      }

      .cls-7 {
        fill: #f1b14f;
      }

      .cls-8 {
        fill: #1c90bf;
      }

      .cls-9 {
        fill: #e46a5d;
      }

      .cls-10 {
        fill: #e6e6e6;
      }

      .cls-3 {
        opacity: .3;
      }

      .cls-3, .cls-4 {
        mix-blend-mode: overlay;
      }

      .cls-11 {
        fill: #663f30;
      }

      .cls-4 {
        opacity: .5;
      }
    </style>
  </defs>
  <g class="cls-5">
    <g id="Lager_2" data-name="Lager 2">
      <g id="Layer_2" data-name="Layer 2">
        <g>
          <circle class="cls-6" cx="17.5" cy="17.5" r="17.5"/>
          <g>
            <g>
              <g>
                <path class="cls-7" d="M13.03,22.22h8.95c5.41,0,8.53,4.83,8.53,6.92,0,.03,0,.06,0,.08-3.28,3.56-7.89,5.77-13,5.77s-9.72-2.22-13-5.77c0-.03,0-.05,0-.08,0-2.09,3.12-6.92,8.53-6.92Z"/>
                <g>
                  <path class="cls-9" d="M25.84,25.9c0,.4-.32.72-.72.72s-.72-.32-.72-.72.32-.72.72-.72.72.32.72.72Z"/>
                  <path class="cls-9" d="M18.4,25.9c0,.4-.32.72-.72.72s-.72-.32-.72-.72.32-.72.72-.72.72.32.72.72Z"/>
                  <path class="cls-9" d="M22.23,29.51c0,.4-.32.72-.72.72s-.72-.32-.72-.72.32-.72.72-.72.72.32.72.72Z"/>
                  <path class="cls-9" d="M28.96,30.23c-.4,0-.72-.32-.72-.72s.32-.72.72-.72.72.32.72.72-.32.72-.72.72Z"/>
                  <circle class="cls-9" cx="14.07" cy="29.51" r=".72"/>
                  <path class="cls-9" d="M9.74,33.12c0-.4.32-.72.72-.72s.72.32.72.72c0,.24-.12.44-.29.58-.39-.16-.77-.33-1.14-.52,0-.02,0-.04,0-.06Z"/>
                  <path class="cls-9" d="M6.63,28.79c.4,0,.72.32.72.72s-.32.72-.72.72-.72-.32-.72-.72.32-.72.72-.72Z"/>
                  <path class="cls-9" d="M10.96,25.9c0,.4-.32.72-.72.72s-.72-.32-.72-.72.32-.72.72-.72.72.32.72.72Z"/>
                  <path class="cls-9" d="M24.63,33.12c0-.4.32-.72.72-.72.28,0,.52.16.64.39-.42.23-.84.45-1.28.65-.05-.1-.08-.2-.08-.32Z"/>
                  <path class="cls-9" d="M17.19,33.12c0-.4.32-.72.72-.72s.72.32.72.72-.32.72-.72.72-.72-.32-.72-.72Z"/>
                </g>
                <g>
                  <path class="cls-1" d="M21.83,25.9c0,.4-.32.72-.72.72s-.72-.32-.72-.72.32-.72.72-.72.72.32.72.72Z"/>
                  <path class="cls-1" d="M21.33,33.83c-.4,0-.72-.32-.72-.72s.32-.72.72-.72.72.32.72.72-.32.72-.72.72Z"/>
                  <path class="cls-1" d="M12.95,25.9c0-.4.32-.72.72-.72s.72.32.72.72-.32.72-.72.72-.72-.32-.72-.72Z"/>
                  <path class="cls-1" d="M10.78,29.51c0,.4-.32.72-.72.72s-.72-.32-.72-.72.32-.72.72-.72.72.32.72.72Z"/>
                  <path class="cls-1" d="M14.61,33.12c0,.4-.32.72-.72.72s-.72-.32-.72-.72.32-.72.72-.72.72.32.72.72Z"/>
                  <path class="cls-1" d="M16.78,29.51c0-.4.32-.72.72-.72s.72.32.72.72-.32.72-.72.72-.72-.32-.72-.72Z"/>
                  <path class="cls-1" d="M6.44,25.21c.29.09.51.36.51.68,0,.4-.32.72-.72.72-.26,0-.49-.14-.61-.35.24-.35.52-.71.83-1.05Z"/>
                  <path class="cls-1" d="M25.66,29.51c0,.4-.32.72-.72.72s-.72-.32-.72-.72.32-.72.72-.72.72.32.72.72Z"/>
                  <path class="cls-1" d="M29.25,26.06c-.08.32-.36.55-.7.55-.4,0-.72-.32-.72-.72s.31-.71.7-.72c.27.29.5.59.72.88Z"/>
                </g>
                <path class="cls-3" d="M30.17,29.57c-.94-1.72-3.82-4.08-8.19-4.08h-8.95c-4.38,0-7.26,2.36-8.19,4.08-.11-.11-.22-.23-.33-.34,0-.03,0-.05,0-.08,0-2.09,3.12-6.92,8.53-6.92h8.95c5.41,0,8.53,4.83,8.53,6.92,0,.03,0,.06,0,.08-.11.12-.22.23-.33.34Z"/>
              </g>
              <path class="cls-8" d="M9.65,22.22c0,3.24,3.51,5.86,7.84,5.86s7.84-2.62,7.84-5.86-3.51-5.86-7.84-5.86-7.84,2.62-7.84,5.86Z"/>
              <path class="cls-3" d="M17.5,18.86c-3.76,0-6.9,1.98-7.66,4.62-.12-.4-.18-.82-.18-1.25,0-3.24,3.51-5.86,7.84-5.86s7.84,2.62,7.84,5.86c0,.43-.06.84-.18,1.25-.77-2.64-3.91-4.62-7.66-4.62Z"/>
            </g>
            <g>
              <g>
                <g>
                  <path class="cls-1" d="M17.5,4.32c3.08,0,5.58,2.5,5.58,5.58v8.52c0,3.08-2.5,5.58-5.58,5.58s-5.58-2.5-5.58-5.58v-8.52c0-3.08,2.5-5.58,5.58-5.58Z"/>
                  <path class="cls-2" d="M17.5,4.32c-3.08,0-5.58,2.5-5.58,5.58,0-1.63,2.5-3.6,5.58-3.6s5.58,2.09,5.58,3.6c0-3.08-2.5-5.58-5.58-5.58Z"/>
                </g>
                <path class="cls-11" d="M18.39,10.24c.06.1.18.13.28.07.64-.39,1.5-.37,2.13.04.03.02.07.03.11.03.07,0,.13-.03.17-.09.06-.1.03-.22-.06-.28-.76-.49-1.79-.51-2.56-.04-.1.06-.13.18-.07.28ZM13.91,10.24c.06.1.18.13.28.07.64-.39,1.5-.37,2.13.04.03.02.07.03.11.03.07,0,.13-.03.17-.09.06-.1.03-.22-.06-.28-.76-.49-1.79-.51-2.56-.04-.1.06-.13.18-.07.28Z"/>
                <g>
                  <path class="cls-10" d="M14.23,13.88c0,.58.47,1.04,1.04,1.04s1.04-.47,1.04-1.04-.47-1.04-1.04-1.04-1.04.47-1.04,1.04ZM18.68,13.88c0,.58.47,1.04,1.04,1.04s1.04-.47,1.04-1.04-.47-1.04-1.04-1.04-1.04.47-1.04,1.04Z"/>
                  <path d="M19.05,13.88h0c0,.37.3.67.67.67s.67-.3.67-.67h0c0-.37-.3-.67-.67-.67s-.67.3-.67.67ZM14.6,13.88h0c0,.37.3.67.67.67s.67-.3.67-.67h0c0-.37-.3-.67-.67-.67s-.67.3-.67.67Z"/>
                  <path class="cls-2" d="M19.82,13.88c0,.12.1.22.22.22s.22-.1.22-.22-.1-.22-.22-.22-.22.1-.22.22ZM15.33,13.88c0,.12.1.22.22.22s.22-.1.22-.22-.1-.22-.22-.22-.22.1-.22.22Z"/>
                </g>
                <path class="cls-9" d="M15.82,17.18c0,.92.75,1.67,1.67,1.67s1.67-.75,1.67-1.67-.75-1.67-1.67-1.67-1.67.75-1.67,1.67Z"/>
                <path class="cls-4" d="M17.13,16.35c0,.2.17.37.37.37s.37-.17.37-.37-.17-.37-.37-.37-.37.17-.37.37Z"/>
              </g>
              <g>
                <path class="cls-9" d="M17.5,22.17c1.29,0,2.52-.49,3.38-1.34.48-.48.48-1.25,0-1.73-.23-.23-.54-.36-.87-.36s-.63.13-.87.36c-.39.39-.99.61-1.64.61s-1.26-.22-1.64-.61c-.23-.23-.54-.36-.87-.36s-.63.13-.87.36c-.48.48-.48,1.25,0,1.73.85.85,2.08,1.34,3.38,1.34Z"/>
                <path d="M17.5,21.12c.97,0,1.95-.34,2.63-1.03.07-.07.07-.18,0-.25-.07-.07-.18-.07-.25,0-1.23,1.23-3.55,1.23-4.77,0-.07-.07-.18-.07-.25,0s-.07.18,0,.25c.69.69,1.66,1.03,2.63,1.03Z"/>
              </g>
              <path class="cls-9" d="M23.08,10.66c.46-.25,1.07-.31,1.42-.33.87.1,1.67.61,2.11,1.51.4-.3.86-.43,1.31-.34.56.13.97.49,1.24,1.07.09.22.13.51.24.71-.03.09.18.1.07.09,0,0,0,0,0,0,.48.31,1.03-.91,1.66-.75-.46.14-.55.68-.74,1.1-.19.41-.48.7-.88.78-.59.13-1.04-.29-1.46-.71-.19.42-.25.85-.6,1.22-.39.42-.92.65-1.46.63-.17,0-.61-.05-.88-.18-.51.73-1.23,1.18-2.03,1.31v-6.12Z"/>
              <path class="cls-9" d="M11.92,16.45c-.46.25-1.06.31-1.4.33-.86-.1-1.64-.61-2.08-1.51-.39.3-.85.43-1.29.34-.55-.13-.96-.49-1.22-1.07-.09-.22-.13-.51-.23-.71.03-.09-.17-.1-.07-.09,0,0,0,0,0,0-.47-.31-1.02.91-1.63.75.45-.14.54-.68.72-1.1.19-.41.47-.7.87-.78.58-.13,1.02.29,1.44.71.19-.42.24-.85.6-1.22.39-.42.91-.65,1.44-.63.17,0,.6.05.86.18.5-.73,1.21-1.18,2-1.31v6.12Z"/>
              <path class="cls-9" d="M17.98,4.34c0-.42-.26-.34-.55-1.4-.29,1.06-.55.98-.55,1.4,0,.31.25.55.55.55s.55-.25.55-.55Z"/>
            </g>
          </g>
        </g>
      </g>
    </g>
  </g>
</svg>