<?xml version="1.0" encoding="UTF-8"?>
<svg xmlns="http://www.w3.org/2000/svg" xmlns:xlink="http://www.w3.org/1999/xlink" viewBox="0 0 35 35">
  <defs>
    <style>
      .cls-1 {
        opacity: .1;
      }

      .cls-1, .cls-2, .cls-3, .cls-4, .cls-5, .cls-6 {
        mix-blend-mode: multiply;
      }

      .cls-1, .cls-3 {
        fill: #333;
      }

      .cls-2 {
        opacity: .5;
      }

      .cls-2, .cls-7 {
        fill: #fbc288;
      }

      .cls-8 {
        fill: url(#linear-gradient-2);
      }

      .cls-9 {
        fill: #f2f2f2;
      }

      .cls-10 {
        fill: #c5a4cf;
      }

      .cls-11, .cls-12, .cls-13 {
        fill: #fff;
      }

      .cls-12 {
        mix-blend-mode: screen;
        opacity: .6;
      }

      .cls-14 {
        fill: #f5815a;
      }

      .cls-15 {
        isolation: isolate;
      }

      .cls-3, .cls-6 {
        opacity: .2;
      }

      .cls-16 {
        fill: none;
        opacity: 0;
      }

      .cls-4, .cls-17, .cls-6 {
        fill: #dc564b;
      }

      .cls-18 {
        fill: #db633b;
      }

      .cls-13 {
        mix-blend-mode: overlay;
        opacity: .3;
      }

      .cls-5 {
        fill: #d6be89;
      }

      .cls-19 {
        fill: url(#linear-gradient);
      }

      .cls-20 {
        fill: #663f30;
      }
    </style>
    <linearGradient id="linear-gradient" x1="1482.38" y1="-16873.43" x2="1482.38" y2="-16880.14" gradientTransform="translate(1499.88 -16851.35) rotate(-180)" gradientUnits="userSpaceOnUse">
      <stop offset="0" stop-color="#fbc288"/>
      <stop offset="1" stop-color="#fbd099"/>
    </linearGradient>
    <linearGradient id="linear-gradient-2" x1="1482.39" y1="-16870.61" x2="1482.39" y2="-16859.03" xlink:href="#linear-gradient"/>
  </defs>
  <g class="cls-15">
    <g id="Lager_2" data-name="Lager 2">
      <g id="Layer_2" data-name="Layer 2">
        <g>
          <circle class="cls-16" cx="17.5" cy="17.5" r="17.5"/>
          <g>
            <g>
              <path class="cls-9" d="M17.51,7.94c5.1,0,9.24,4.17,9.24,9.32,0,1.38-.3,2.69-.83,3.86-2.39,1.03-5.29,1.63-8.41,1.63s-6.02-.6-8.41-1.63c-.53-1.18-.83-2.49-.83-3.86,0-5.15,4.14-9.32,9.24-9.32Z"/>
              <path class="cls-1" d="M23.8,17.29c0,1.64-.19,3.19-.51,4.6-1.78.55-3.73.86-5.79.86s-4.01-.31-5.79-.86c-.32-1.42-.51-2.97-.51-4.6,0-6.5,2.82-11.77,6.29-11.77s6.29,5.27,6.29,11.77Z"/>
              <path class="cls-11" d="M17.51,9.75c-4.8,0-8.74,3.69-9.2,8.4-.03-.29-.04-.59-.04-.89,0-5.15,4.14-9.32,9.24-9.32s9.24,4.17,9.24,9.32c0,.3-.02.6-.04.89-.46-4.72-4.4-8.4-9.2-8.4Z"/>
            </g>
            <g>
              <path class="cls-10" d="M17.5,35c-4.26,0-8.16-1.52-11.2-4.05,2.24-3.54,6.41-5.92,11.2-5.92s8.96,2.38,11.2,5.92c-3.03,2.53-6.94,4.05-11.2,4.05Z"/>
              <path class="cls-13" d="M17.5,27.12c-4.15,0-7.84,1.8-10.21,4.59-.34-.24-.67-.5-.99-.76,2.24-3.54,6.41-5.92,11.2-5.92s8.96,2.38,11.2,5.92c-.32.27-.65.52-.99.76-2.37-2.79-6.06-4.59-10.21-4.59Z"/>
              <path class="cls-3" d="M17.5,25.02c6.13,0,7.48,4.35,7.48,4.35l-7.48.96-7.48-.96s1.35-4.35,7.48-4.35Z"/>
              <path class="cls-9" d="M17.5,22.52c6.41,0,7.82,5.69,7.82,5.69l-7.82,2.12-7.82-2.12s1.41-5.69,7.82-5.69Z"/>
              <path class="cls-11" d="M17.5,24.62c-4.75,0-6.7,2.4-7.42,3.7l-.41-.11s1.41-5.69,7.82-5.69,7.82,5.69,7.82,5.69l-.41.11c-.72-1.3-2.66-3.7-7.42-3.7Z"/>
              <path class="cls-19" d="M14.62,23.8c.39-1.44.33-2.5.33-2.5h5.12s-.06,1.06.33,2.5c.24.88.49,1.38.95,1.75l-3.84,4.78-3.84-4.78c.46-.38.72-.87.95-1.75Z"/>
              <polygon class="cls-2" points="17.5 28.93 21.34 25.55 17.5 30.33 13.66 25.55 17.5 28.93"/>
              <path class="cls-2" d="M20.24,23.19c-.59.45-1.46.84-2.74.84s-2.15-.39-2.74-.84c.22-1.12.18-1.88.18-1.88h5.12s-.04.77.18,1.88Z"/>
            </g>
            <g>
              <g>
                <path class="cls-7" d="M21.25,16.07c-.22,1.03.05,1.95.6,2.07.55.12,1.17-.62,1.39-1.65.22-1.03-.05-1.95-.6-2.07-.55-.12-1.17.62-1.39,1.65Z"/>
                <circle class="cls-18" cx="22.08" cy="18.14" r=".61"/>
              </g>
              <g>
                <path class="cls-7" d="M13.69,16.07c.22,1.03-.05,1.95-.6,2.07-.55.12-1.17-.62-1.39-1.65-.22-1.03.05-1.95.6-2.07.55-.12,1.17.62,1.39,1.65Z"/>
                <circle class="cls-18" cx="12.86" cy="18.14" r=".61"/>
              </g>
              <path class="cls-8" d="M12.29,14.1c0,3.39,2.33,8.57,5.21,8.57s5.21-5.18,5.21-8.57c0-5.29-2.33-7.14-5.21-7.14s-5.21,1.85-5.21,7.14Z"/>
              <g>
                <path class="cls-2" d="M17.79,18.23h-.59c-.18,0-.33-.15-.33-.33h1.25c0,.18-.15.33-.33.33Z"/>
                <path class="cls-5" d="M17.88,17.9h-.23c0,.06.05.12.12.12s.12-.05.12-.12ZM17.1,17.9c0,.06.05.12.12.12s.12-.05.12-.12h-.23Z"/>
              </g>
              <g>
                <path class="cls-2" d="M14.23,15.09c0,.58.47,1.04,1.04,1.04s1.04-.47,1.04-1.04-.47-1.04-1.04-1.04-1.04.47-1.04,1.04ZM18.68,15.09c0,.58.47,1.04,1.04,1.04s1.04-.47,1.04-1.04-.47-1.04-1.04-1.04-1.04.47-1.04,1.04Z"/>
                <path d="M19.05,15.09h0c0,.37.3.67.67.67s.67-.3.67-.67h0c0-.37-.3-.67-.67-.67s-.67.3-.67.67ZM14.6,15.09h0c0,.37.3.67.67.67s.67-.3.67-.67h0c0-.37-.3-.67-.67-.67s-.67.3-.67.67Z"/>
                <path d="M18.82,14.19s.09-.03.12,0l.69.69v-.98s.04-.09.09-.09.09.04.09.09v.98l.69-.69s.09-.03.12,0,.03.09,0,.12l-.84.84h0s-.04.03-.06.03-.05,0-.06-.03h0l-.84-.84s-.03-.09,0-.12Z"/>
                <path d="M14.37,14.19s.09-.03.12,0l.69.69v-.98s.04-.09.09-.09.09.04.09.09v.98l.69-.69s.09-.03.12,0,.03.09,0,.12l-.84.84h0s-.04.03-.06.03-.05,0-.06-.03h0l-.84-.84s-.03-.09,0-.12Z"/>
                <path class="cls-11" d="M19.82,15.09c0,.12.1.22.22.22s.22-.1.22-.22-.1-.22-.22-.22-.22.1-.22.22ZM15.33,15.09c0,.12.1.22.22.22s.22-.1.22-.22-.1-.22-.22-.22-.22.1-.22.22Z"/>
              </g>
              <g>
                <path class="cls-18" d="M16.81,19.38c.26,0,.5.09.66.22.16-.13.39-.22.66-.22.32,0,.59.12.74.31-.34.19-.84.32-1.4.32s-1.06-.13-1.4-.32c.15-.18.43-.31.74-.31Z"/>
                <path class="cls-14" d="M17.47,20.01c-.55,0-1.04-.12-1.38-.31.07.51.66.9,1.38.9s1.31-.39,1.38-.9c-.34.19-.83.31-1.38.31Z"/>
              </g>
              <path class="cls-9" d="M18.41,13.36c.06.1.19.13.29.07.65-.39,1.51-.38,2.15.04.03.02.07.03.11.03.07,0,.14-.03.18-.1.06-.1.03-.23-.06-.29-.77-.5-1.81-.51-2.59-.04-.1.06-.13.19-.07.29ZM13.88,13.36c.06.1.19.13.29.07.65-.39,1.51-.38,2.15.04.03.02.07.03.11.03.07,0,.14-.03.18-.1.06-.1.03-.23-.06-.29-.77-.5-1.81-.51-2.59-.04-.1.06-.13.19-.07.29Z"/>
              <path class="cls-2" d="M22.65,12.8c-.8.13-2.64.38-5.14.38s-4.39-.25-5.17-.38c.36-4.3,2.53-5.85,5.16-5.85s4.8,1.55,5.16,5.85Z"/>
            </g>
            <g>
              <path class="cls-9" d="M17.51,5.52c3.08,0,5.59,2.91,5.59,6.5,0,0-2.19.45-5.59.45s-5.59-.45-5.59-.45c0-3.59,2.5-6.5,5.59-6.5Z"/>
              <path class="cls-11" d="M17.51,7.51c-3.03,0-5.5,2.01-5.58,4.52,0,0,0,0,0,0,0-3.59,2.5-6.5,5.59-6.5s5.59,2.91,5.59,6.5c0,0,0,0,0,0-.08-2.51-2.54-4.52-5.58-4.52Z"/>
            </g>
            <path class="cls-1" d="M9.27,13.03c1.53-3.02,4.64-5.09,8.23-5.09s6.71,2.07,8.23,5.09c-2.36.98-5.19,1.56-8.23,1.56s-5.88-.58-8.23-1.56Z"/>
            <g>
              <path class="cls-20" d="M6.65,8.91l5.16.67s.7-2.72.92-3.38c.98-2.95,8.6-2.95,9.58,0,.22.66.9,3.35.92,3.38l5.16-.67c.02.05.04.11.04.16,0,1.12-4.88,1.33-10.9,1.33s-10.9-.2-10.9-1.33c0-.05.01-.11.04-.16Z"/>
              <path class="cls-13" d="M22.3,6.87c-.29-.69-2.48-1.95-4.7-1.95-2.28,0-4.58,1.24-4.87,1.95-.19.45-.66,2.37-.82,2.74-.03,0-.1,0-.1-.03.01-.03.7-2.72.92-3.38.03-.09.06-.17.1-.25,0-.01,0-.02.01-.03.04-.07.08-.15.13-.22.02-.03.05-.06.07-.09.03-.04.06-.08.09-.12.03-.03.06-.06.08-.09.03-.04.07-.07.11-.11.03-.03.06-.06.09-.09.04-.04.09-.07.13-.11.03-.02.06-.05.09-.07.07-.05.15-.11.23-.15.04-.02.08-.04.12-.07.05-.03.1-.06.15-.08.04-.02.09-.04.13-.07.05-.02.1-.05.15-.07.05-.02.09-.04.14-.06.06-.02.11-.04.17-.07.04-.02.09-.03.13-.05.1-.03.19-.07.3-.09.05-.01.1-.03.15-.04.06-.02.12-.03.18-.05.06-.01.11-.03.17-.04.06-.01.12-.02.17-.04.06-.01.12-.02.17-.03.06-.01.12-.02.18-.03.06,0,.11-.02.17-.03.1-.01.21-.02.31-.03,0,0,0,0,.01,0,.04,0,.07,0,.11,0,.08,0,.16-.01.24-.02.17,0,.35-.01.53-.01.11,0,.22,0,.33,0,0,0,.01,0,.02,0,.16,0,.32.02.48.04.04,0,.09,0,.13.01.13.01.25.03.38.05.04,0,.07.01.11.02.32.06.64.13.93.22.02,0,.04.01.06.02.14.04.27.09.41.14,0,0,.02,0,.03.01.29.12.56.25.8.41,0,0,.01,0,.02.01.12.08.23.16.33.25.05.04.09.08.14.13h0c.18.18.32.37.42.55,0,0,0,0,0,0,0,0,0,0,0,0,.03.05.05.09.07.13.03.07.06.14.09.21.22.66.9,3.35.92,3.38,0,0-.07.02-.1.03-.16-.38-.63-2.29-.81-2.74Z"/>
              <path class="cls-10" d="M12.06,8.6h10.9c.14.54.25.96.25.98h-11.41s.11-.43.25-.98Z"/>
            </g>
            <g>
              <path class="cls-17" d="M10.49,7.62c0-.17.05-.32.13-.46,0-.16.04-.32.12-.46.08-.15.2-.26.34-.34.08-.14.19-.26.34-.34.15-.08.31-.12.46-.12.14-.08.29-.13.46-.13s.32.05.46.13c.16,0,.32.04.46.12.15.08.26.2.34.34.14.08.26.19.34.34.08.15.12.31.12.46.08.14.13.29.13.46s-.05.32-.13.46c0,.16-.04.32-.12.46-.08.15-.2.26-.34.34-.08.14-.19.26-.34.34-.15.08-.31.12-.46.12-.14.08-.29.13-.46.13s-.32-.05-.46-.13c-.16,0-.32-.04-.46-.12-.15-.08-.26-.2-.34-.34-.14-.08-.26-.19-.34-.34-.08-.15-.12-.31-.12-.46-.08-.14-.13-.29-.13-.46Z"/>
              <path class="cls-6" d="M11.41,6.7c0,.51.41.92.92.92s.92-.41.92-.92-.41-.92-.92-.92-.92.41-.92.92Z"/>
              <path class="cls-6" d="M12,6.36c-.26.44-.1,1.01.34,1.26.44.26,1.01.1,1.26-.34.26-.44.1-1.01-.34-1.26-.44-.26-1.01-.1-1.26.34Z"/>
              <path class="cls-6" d="M12.68,6.36c-.44.26-.59.82-.34,1.26.26.44.82.59,1.26.34.44-.26.59-.82.34-1.26-.26-.44-.82-.59-1.26-.34Z"/>
              <path class="cls-6" d="M13.26,6.7c-.51,0-.92.41-.92.92s.41.92.92.92.92-.41.92-.92-.41-.92-.92-.92Z"/>
              <path class="cls-6" d="M13.6,7.29c-.44-.26-1.01-.1-1.26.34-.26.44-.1,1.01.34,1.26.44.26,1.01.1,1.26-.34.26-.44.1-1.01-.34-1.26Z"/>
              <path class="cls-6" d="M13.6,7.96c-.26-.44-.82-.59-1.26-.34-.44.26-.59.82-.34,1.26.26.44.82.59,1.26.34.44-.26.59-.82.34-1.26Z"/>
              <path class="cls-6" d="M13.26,8.55c0-.51-.41-.92-.92-.92s-.92.41-.92.92.41.92.92.92.92-.41.92-.92Z"/>
              <path class="cls-6" d="M12.68,8.89c.26-.44.1-1.01-.34-1.26-.44-.26-1.01-.1-1.26.34-.26.44-.1,1.01.34,1.26.44.26,1.01.1,1.26-.34Z"/>
              <path class="cls-6" d="M12,8.89c.44-.26.59-.82.34-1.26-.26-.44-.82-.59-1.26-.34-.44.26-.59.82-.34,1.26.26.44.82.59,1.26.34Z"/>
              <path class="cls-6" d="M11.41,8.55c.51,0,.92-.41.92-.92s-.41-.92-.92-.92-.92.41-.92.92.41.92.92.92Z"/>
              <path class="cls-6" d="M11.08,7.96c.44.26,1.01.1,1.26-.34.26-.44.1-1.01-.34-1.26-.44-.26-1.01-.1-1.26.34-.26.44-.1,1.01.34,1.26Z"/>
              <path class="cls-6" d="M11.08,7.29c.26.44.82.59,1.26.34.44-.26.59-.82.34-1.26-.26-.44-.82-.59-1.26-.34-.44.26-.59.82-.34,1.26Z"/>
              <circle class="cls-4" cx="12.34" cy="7.62" r=".52"/>
            </g>
            <g>
              <g>
                <path class="cls-12" d="M19.69,16.47h1.43c0,.66-.63,1.19-1.43,1.22v-1.22Z"/>
                <path d="M18.05,16.47v-.07h3.15v.07c0,.71-.71,1.29-1.57,1.29s-1.57-.58-1.57-1.29ZM18.22,16.54c.04.61.66,1.09,1.4,1.09s1.36-.48,1.4-1.09h-2.81Z"/>
              </g>
              <g>
                <path class="cls-12" d="M15.43,16.47h1.43c0,.66-.63,1.19-1.43,1.22v-1.22Z"/>
                <path d="M13.8,16.47v-.07h3.15v.07c0,.71-.71,1.29-1.57,1.29s-1.57-.58-1.57-1.29ZM13.97,16.54c.04.61.66,1.09,1.4,1.09s1.36-.48,1.4-1.09h-2.81Z"/>
              </g>
              <path d="M16.72,16.41h.18c0-.22.16-.3.6-.3s.6.08.6.3h.18c0-.44-.56-.44-.77-.44s-.78,0-.78.44Z"/>
            </g>
            <path class="cls-20" d="M21.76,25.44c.06-.06.1-.15.1-.25s-.04-.18-.1-.25c-.13-.13-.37-.13-.5,0-.06.06-.1.15-.1.25s.04.18.1.25c.07.06.15.1.25.1s.18-.04.25-.1ZM21.01,30.45c.14,0,.28-.08.33-.23.07-.18-.02-.38-.2-.45-.18-.07-.38.02-.45.2-.07.18.02.38.2.45.04.01.08.02.12.02ZM19.81,32.25c.06.05.13.07.2.07.11,0,.22-.05.29-.15.11-.15.08-.37-.08-.49-.16-.11-.37-.08-.49.08-.11.16-.08.37.08.49ZM20.73,31.1c.13,0,.26-.07.32-.2.08-.18,0-.38-.17-.47-.17-.08-.38-.01-.47.16-.08.18,0,.38.17.47.05.02.1.04.15.04ZM20.23,31.68c.06.03.12.05.17.05.12,0,.24-.06.3-.17.09-.17.04-.38-.13-.48-.17-.1-.38-.04-.48.13-.1.17-.04.38.13.48ZM18.18,33.57c.06.12.19.19.31.19.05,0,.11-.01.16-.04h0c.17-.09.24-.3.15-.48-.09-.17-.3-.23-.47-.14-.17.09-.24.3-.15.47ZM19.34,32.78c.07.06.15.09.23.09.1,0,.19-.04.26-.12h0c.13-.14.12-.37-.02-.5-.14-.13-.36-.12-.49.03-.13.14-.12.36.02.49ZM18.8,33.23c.07.08.17.13.27.13.08,0,.16-.03.22-.08.15-.12.17-.35.05-.49-.12-.15-.34-.17-.49-.05-.15.12-.17.34-.05.49ZM21.83,26.62c0-.19-.14-.35-.34-.36-.19,0-.36.14-.36.34s.14.36.34.36h.01c.19,0,.34-.15.35-.34ZM21.85,25.91c0-.2-.15-.35-.34-.36-.19,0-.35.15-.36.34,0,.2.15.35.34.36h0c.19,0,.35-.15.35-.34ZM21.8,27.34c.01-.19-.14-.36-.33-.37-.19-.01-.36.14-.37.33s.14.36.33.37h.02c.19,0,.34-.14.35-.33ZM21.76,28.05c.01-.19-.13-.36-.32-.38-.19-.01-.36.13-.38.32-.01.19.13.36.32.38h.03c.18,0,.34-.14.35-.32ZM21.34,29.08c.17,0,.33-.13.35-.31.02-.19-.12-.36-.31-.39-.19-.02-.36.12-.39.31-.02.19.12.36.31.39h.04ZM21.22,29.78c.16,0,.31-.11.34-.27.04-.19-.08-.38-.27-.42-.19-.04-.37.08-.42.27-.04.19.08.37.26.42.03,0,.05.01.08.01ZM14.22,31.58c.06.12.18.18.3.18.06,0,.12-.01.17-.04.17-.09.23-.31.14-.48-.09-.17-.31-.23-.48-.14-.17.09-.23.3-.14.48ZM13.43,29.5h0c.03.16.18.28.35.28.02,0,.05,0,.07,0,.19-.04.32-.22.28-.41-.04-.19-.22-.32-.41-.28-.19.04-.31.22-.27.41ZM13.63,30.22c.05.15.19.24.33.24.04,0,.07,0,.11-.02.18-.06.28-.26.22-.44-.06-.18-.26-.28-.44-.22-.18.06-.28.26-.22.44ZM13.32,28.77c.02.18.17.31.35.31h.04c.19-.02.33-.2.31-.39-.02-.19-.2-.33-.39-.31-.19.02-.33.19-.31.39ZM13.9,30.91h0c.06.13.19.21.32.21.05,0,.09,0,.14-.03.18-.08.26-.28.18-.46-.08-.18-.28-.26-.46-.18-.17.07-.26.28-.18.46ZM13.17,26.63c0,.19.16.33.35.33h.01c.19,0,.34-.17.33-.36,0-.19-.17-.34-.36-.34-.19.01-.34.17-.33.37ZM13.21,27.34c.01.19.16.33.35.33h.02c.19-.01.34-.18.33-.37h0c-.01-.19-.18-.34-.37-.33-.19.01-.34.18-.33.37ZM13.26,28.05c.01.18.17.32.35.32.01,0,.02,0,.03,0,.19-.01.34-.18.32-.37s-.18-.34-.37-.32c-.19.01-.34.18-.32.38ZM14.7,31.72c-.16.11-.2.33-.08.49.07.1.18.15.29.15.07,0,.14-.02.2-.06.16-.11.2-.33.09-.49-.11-.16-.33-.2-.49-.08ZM16.14,33.27c-.08.17-.01.38.16.47.05.02.1.04.15.04.13,0,.25-.07.32-.2.08-.17.01-.38-.16-.47-.17-.08-.38-.01-.47.16ZM15.58,32.82c-.12.15-.09.37.06.49.06.05.14.07.22.07.1,0,.21-.05.27-.13.12-.15.09-.37-.06-.49-.15-.12-.37-.09-.49.06ZM16.78,33.58c-.03.19.09.37.28.41.02,0,.04,0,.06,0,.17,0,.32-.12.34-.29.03-.19-.09-.37-.28-.41-.19-.03-.37.09-.41.28ZM15.11,32.3c-.14.13-.15.35-.02.49.07.08.16.11.26.11.08,0,.17-.03.23-.09.14-.13.15-.35.02-.49-.13-.14-.35-.15-.5-.02ZM13.15,25.92c0,.19.16.34.35.34h.01c.19,0,.34-.17.34-.36,0-.2-.17-.35-.36-.34-.19,0-.34.17-.34.36ZM17.48,33.71c.03.17.18.29.34.29.02,0,.04,0,.06,0,.19-.04.32-.22.28-.41-.03-.19-.22-.32-.41-.28-.19.03-.31.22-.28.41ZM13.72,25.44c.07-.06.1-.15.1-.25s-.03-.19-.1-.25c-.13-.13-.37-.13-.49,0-.07.06-.1.15-.1.25s.04.18.1.25c.06.06.15.1.24.1s.19-.04.25-.1Z"/>
          </g>
        </g>
      </g>
    </g>
  </g>
</svg>