<?xml version="1.0" encoding="UTF-8"?>
<svg xmlns="http://www.w3.org/2000/svg" xmlns:xlink="http://www.w3.org/1999/xlink" viewBox="0 0 35 35">
  <defs>
    <style>
      .cls-1 {
        opacity: .4;
      }

      .cls-1, .cls-2, .cls-3, .cls-4, .cls-5 {
        mix-blend-mode: multiply;
      }

      .cls-1, .cls-6, .cls-3 {
        fill: #4d4d4d;
      }

      .cls-7 {
        fill: url(#linear-gradient-2);
      }

      .cls-7, .cls-3, .cls-8 {
        opacity: .2;
      }

      .cls-7, .cls-8, .cls-9 {
        mix-blend-mode: overlay;
      }

      .cls-2, .cls-10 {
        opacity: .5;
      }

      .cls-2, .cls-11 {
        fill: #fbc288;
      }

      .cls-12, .cls-10 {
        fill: #333;
      }

      .cls-13, .cls-8, .cls-9 {
        fill: #fff;
      }

      .cls-14 {
        fill: url(#linear-gradient-3);
      }

      .cls-15 {
        fill: #325a76;
      }

      .cls-16 {
        fill: #f5815a;
      }

      .cls-17 {
        isolation: isolate;
      }

      .cls-18 {
        fill: none;
        opacity: 0;
      }

      .cls-19 {
        fill: #f1b14f;
      }

      .cls-4 {
        fill: #666;
      }

      .cls-4, .cls-9 {
        opacity: .3;
      }

      .cls-20 {
        fill: #e46a5d;
      }

      .cls-21 {
        fill: #db633b;
      }

      .cls-5 {
        fill: #d6be89;
      }

      .cls-22 {
        fill: url(#linear-gradient);
      }

      .cls-23 {
        fill: #663f30;
      }
    </style>
    <linearGradient id="linear-gradient" x1="1813.22" y1="-16278.1" x2="1813.22" y2="-16285.07" gradientTransform="translate(1830.72 -16255.99) rotate(-180)" gradientUnits="userSpaceOnUse">
      <stop offset="0" stop-color="#fbc288"/>
      <stop offset="1" stop-color="#fbd099"/>
    </linearGradient>
    <linearGradient id="linear-gradient-2" x1="1813.16" y1="-16285.64" x2="1813.16" y2="-16290.62" gradientTransform="translate(1830.72 -16255.99) rotate(-180)" gradientUnits="userSpaceOnUse">
      <stop offset="0" stop-color="#fff"/>
      <stop offset="1" stop-color="gray"/>
    </linearGradient>
    <linearGradient id="linear-gradient-3" x1="1813.23" y1="-16275.6" x2="1813.23" y2="-16264.02" xlink:href="#linear-gradient"/>
  </defs>
  <g class="cls-17">
    <g id="Lager_2" data-name="Lager 2">
      <g id="Layer_2" data-name="Layer 2">
        <g>
          <circle class="cls-18" cx="17.5" cy="17.5" r="17.5"/>
          <g>
            <polygon class="cls-6" points="17.63 10.2 25.4 5.64 25.4 5.37 17.63 .81 9.86 5.37 9.86 5.64 17.63 10.2"/>
            <polygon class="cls-10" points="17.63 10.2 25.4 5.64 17.63 1.08 9.86 5.64 17.63 10.2"/>
            <g>
              <path class="cls-23" d="M11.32,17.24c-.23-.87-.36-1.79-.36-2.76,0-4.72,2.98-8.54,6.66-8.54s6.66,3.82,6.66,8.54c0,.97-.13,1.9-.36,2.76-.43,1.81,1.4,2.33,2.24,2.33,0,1.9-3.83,3.45-8.55,3.45s-8.55-1.54-8.55-3.45c.95,0,2.75-.48,2.24-2.33Z"/>
              <path class="cls-4" d="M13.67,22.62c-1.25-1.8-2.04-4.46-2.04-7.44,0-3.19.91-6.02,2.31-7.82,1.06-.9,2.32-1.43,3.69-1.43,1.03,0,2.01.3,2.88.84,1.7,1.72,2.83,4.84,2.83,8.4,0,3.01-.81,5.71-2.08,7.51-1.1.21-2.33.33-3.63.33-1.43,0-2.78-.14-3.96-.39Z"/>
            </g>
            <g>
              <g>
                <path class="cls-15" d="M13.28,25.06c0,.97,1.89,1.75,4.22,1.75s4.22-.78,4.22-1.75-1.89-1.75-4.22-1.75-4.22.78-4.22,1.75Z"/>
                <path class="cls-15" d="M17.5,35c-4.26,0-8.16-1.52-11.2-4.05,2.24-3.54,6.41-5.92,11.2-5.92s8.96,2.38,11.2,5.92c-3.03,2.53-6.94,4.05-11.2,4.05Z"/>
                <path class="cls-8" d="M17.5,27.12c-4.15,0-7.84,1.8-10.21,4.59-.34-.24-.67-.5-.99-.76,2.24-3.54,6.41-5.92,11.2-5.92s8.96,2.38,11.2,5.92c-.32.27-.65.52-.99.76-2.37-2.79-6.06-4.59-10.21-4.59Z"/>
                <path class="cls-22" d="M14.62,23.8c.39-1.44.33-2.5.33-2.5h5.12s-.06,1.06.33,2.5c.24.88.49,1.38.95,1.75l-3.84,5.13-3.84-5.13c.46-.38.72-.87.95-1.75Z"/>
                <polygon class="cls-2" points="17.5 29.28 21.34 25.55 17.5 30.68 13.66 25.55 17.5 29.28"/>
                <path class="cls-2" d="M20.24,23.19c-.59.45-1.46.84-2.74.84s-2.15-.39-2.74-.84c.22-1.12.18-1.88.18-1.88h5.12s-.04.77.18,1.88Z"/>
              </g>
              <path class="cls-1" d="M21.72,25.02l-4.22,5.66,2.87-.42,2.33.42-.98-5.66ZM12.3,30.68l2.33-.42,2.87.42-4.22-5.66-.98,5.66Z"/>
              <path class="cls-15" d="M21.72,25.02l-4.22,5.66,2.87-1.12,2.33,1.12-.98-5.66ZM12.3,30.68l2.33-1.12,2.87,1.12-4.22-5.66-.98,5.66Z"/>
              <polygon class="cls-3" points="13.28 25.02 14.63 29.55 17.5 30.68 13.28 25.02"/>
              <polygon class="cls-3" points="21.72 25.02 20.37 29.55 17.5 30.68 21.72 25.02"/>
              <path class="cls-7" d="M11.33,33.88c.26.1.53.19.8.28.57-.63,1.39-1.04,2.31-1.04,1.28,0,2.36.77,2.85,1.87.04,0,.08,0,.12,0,.1-.3.15-.62.15-.95,0-1.72-1.4-4.62-3.12-4.62s-3.03,2.72-3.11,4.45ZM17.56,34.05c0,.33.06.65.15.94.04,0,.08,0,.12,0,.48-1.1,1.57-1.87,2.85-1.87.9,0,1.71.39,2.27,1,.28-.09.56-.19.83-.3-.11-1.74-1.46-4.4-3.11-4.4s-3.12,2.9-3.12,4.62Z"/>
            </g>
            <g>
              <g>
                <path class="cls-11" d="M21.25,16.42c-.22,1.03.05,1.95.6,2.07.55.12,1.17-.62,1.39-1.65.22-1.03-.05-1.95-.6-2.07-.55-.12-1.17.62-1.39,1.65Z"/>
                <path class="cls-11" d="M13.69,16.42c.22,1.03-.05,1.95-.6,2.07-.55.12-1.17-.62-1.39-1.65-.22-1.03.05-1.95.6-2.07.55-.12,1.17.62,1.39,1.65Z"/>
                <path class="cls-14" d="M12.29,14.45c0,3.39,2.33,8.57,5.21,8.57s5.21-5.18,5.21-8.57c0-5.29-2.33-7.14-5.21-7.14s-5.21,1.85-5.21,7.14Z"/>
                <g>
                  <path class="cls-2" d="M17.79,18.58h-.59c-.18,0-.33-.15-.33-.33h1.25c0,.18-.15.33-.33.33Z"/>
                  <path class="cls-5" d="M17.88,18.25h-.23c0,.06.05.12.12.12s.12-.05.12-.12ZM17.1,18.25c0,.06.05.12.12.12s.12-.05.12-.12h-.23Z"/>
                </g>
                <g>
                  <path class="cls-2" d="M14.23,15.44c0,.58.47,1.04,1.04,1.04s1.04-.47,1.04-1.04-.47-1.04-1.04-1.04-1.04.47-1.04,1.04ZM18.68,15.44c0,.58.47,1.04,1.04,1.04s1.04-.47,1.04-1.04-.47-1.04-1.04-1.04-1.04.47-1.04,1.04Z"/>
                  <path d="M19.05,15.44h0c0,.37.3.67.67.67s.67-.3.67-.67h0c0-.37-.3-.67-.67-.67s-.67.3-.67.67ZM14.6,15.44h0c0,.37.3.67.67.67s.67-.3.67-.67h0c0-.37-.3-.67-.67-.67s-.67.3-.67.67Z"/>
                  <path d="M18.82,14.54s.09-.03.12,0l.69.69v-.98s.04-.09.09-.09.09.04.09.09v.98l.69-.69s.09-.03.12,0c.03.03.03.09,0,.12l-.84.84h0s-.04.03-.06.03-.05,0-.06-.03h0l-.84-.84s-.03-.09,0-.12Z"/>
                  <path d="M14.37,14.54s.09-.03.12,0l.69.69v-.98s.04-.09.09-.09.09.04.09.09v.98l.69-.69s.09-.03.12,0c.03.03.03.09,0,.12l-.84.84h0s-.04.03-.06.03-.05,0-.06-.03h0l-.84-.84s-.03-.09,0-.12Z"/>
                  <path class="cls-13" d="M19.82,15.44c0,.12.1.22.22.22s.22-.1.22-.22-.1-.22-.22-.22-.22.1-.22.22ZM15.33,15.44c0,.12.1.22.22.22s.22-.1.22-.22-.1-.22-.22-.22-.22.1-.22.22Z"/>
                </g>
                <g>
                  <path class="cls-21" d="M16.81,19.73c.26,0,.5.09.66.22.16-.13.39-.22.66-.22.32,0,.59.12.74.31-.34.19-.84.32-1.4.32s-1.06-.13-1.4-.32c.15-.18.43-.31.74-.31Z"/>
                  <path class="cls-16" d="M17.47,20.36c-.55,0-1.04-.12-1.38-.31.07.51.66.9,1.38.9s1.31-.39,1.38-.9c-.34.19-.83.31-1.38.31Z"/>
                </g>
                <path class="cls-12" d="M18.41,13.71c.06.1.19.13.29.07.65-.39,1.51-.38,2.15.04.03.02.07.03.11.03.07,0,.14-.03.18-.1.06-.1.03-.23-.06-.29-.77-.5-1.81-.51-2.59-.04-.1.06-.13.19-.07.29ZM13.88,13.71c.06.1.19.13.29.07.65-.39,1.51-.38,2.15.04.03.02.07.03.11.03.07,0,.14-.03.18-.1.06-.1.03-.23-.06-.29-.77-.5-1.81-.51-2.59-.04-.1.06-.13.19-.07.29Z"/>
                <path class="cls-2" d="M22.65,13.15c-.8.13-2.64.38-5.14.38s-4.39-.25-5.17-.38c.36-4.3,2.53-5.85,5.16-5.85s4.8,1.55,5.16,5.85Z"/>
              </g>
              <g>
                <path class="cls-23" d="M17.51,5.87c3.08,0,5.59,2.91,5.59,6.5,0,0-2.19.45-5.59.45s-5.59-.45-5.59-.45c0-3.59,2.5-6.5,5.59-6.5Z"/>
                <path class="cls-9" d="M17.51,7.86c-3.03,0-5.5,2.01-5.58,4.52,0,0,0,0,0,0,0-3.59,2.5-6.5,5.59-6.5s5.59,2.91,5.59,6.5c0,0,0,0,0,0-.08-2.51-2.54-4.52-5.58-4.52Z"/>
              </g>
            </g>
            <path class="cls-6" d="M21.26,4.03v3.27s-1.44-.87-3.59-.87c-1.93,0-3.68.87-3.68.87v-3.27s1.75-.87,3.68-.87c2.15,0,3.59.87,3.59.87Z"/>
            <path class="cls-12" d="M17.67,3.16c2.15,0,3.59.87,3.59.87v1.73s-1.44-.87-3.59-.87c-1.93,0-3.68.87-3.68.87v-1.73s1.75-.87,3.68-.87Z"/>
            <g>
              <path class="cls-19" d="M25.4,12.15c.07,0,.13-.06.13-.13v-6.65c0-.07-.06-.13-.13-.13s-.13.06-.13.13v6.65c0,.07.06.13.13.13Z"/>
              <path class="cls-20" d="M25.12,12.58l-.33,1.89h1.2l-.33-1.89c.2-.1.33-.29.33-.53,0-.3-.22-.55-.52-.59-.03,0-.06,0-.09,0s-.06,0-.09,0c-.29.04-.52.29-.52.59,0,.23.13.43.33.53Z"/>
            </g>
          </g>
        </g>
      </g>
    </g>
  </g>
</svg>