<?xml version="1.0" encoding="UTF-8"?>
<svg xmlns="http://www.w3.org/2000/svg" viewBox="0 0 35 35">
  <defs>
    <style>
      .cls-1 {
        fill: #f9c6b6;
      }

      .cls-2 {
        fill: #333;
      }

      .cls-3 {
        mix-blend-mode: multiply;
        opacity: .5;
      }

      .cls-3, .cls-4 {
        fill: #e46a5d;
      }

      .cls-5, .cls-6, .cls-7 {
        fill: #fff;
      }

      .cls-8 {
        fill: #d9a08f;
      }

      .cls-9 {
        fill: #f9ddd4;
      }

      .cls-6 {
        opacity: .2;
      }

      .cls-6, .cls-7 {
        mix-blend-mode: screen;
      }

      .cls-10 {
        isolation: isolate;
      }

      .cls-11 {
        fill: none;
        opacity: 0;
      }

      .cls-7 {
        opacity: .4;
      }
    </style>
  </defs>
  <g class="cls-10">
    <g id="Lager_2" data-name="Lager 2">
      <g id="Layer_2" data-name="Layer 2">
        <g>
          <circle class="cls-11" cx="17.5" cy="17.5" r="17.5"/>
          <g>
            <g>
              <path d="M13.14,23.05h8.72c5.27,0,8.31,4.51,8.31,6.47,0,.03,0,.05,0,.08-3.2,3.33-7.69,5.4-12.66,5.4s-9.47-2.07-12.66-5.4c0-.03,0-.05,0-.08,0-1.96,3.04-6.47,8.31-6.47Z"/>
              <path class="cls-7" d="M29.85,29.92c-.91-1.61-3.72-3.82-7.98-3.82h-8.72c-4.27,0-7.07,2.2-7.98,3.82-.11-.11-.22-.21-.32-.32,0-.03,0-.05,0-.08,0-1.96,3.04-6.47,8.31-6.47h8.72c5.27,0,8.31,4.51,8.31,6.47,0,.03,0,.05,0,.08-.1.11-.22.21-.32.32Z"/>
              <path class="cls-4" d="M29.53,17.82l-12.02,14.83-12.02-14.84c2.93-3.03,7.22-4.95,12.02-4.95s9.1,1.92,12.02,4.96Z"/>
              <path class="cls-3" d="M26.69,15.51l-9.19,17.15h0S8.32,15.5,8.32,15.5c2.6-1.66,5.76-2.64,9.18-2.64s6.59.98,9.19,2.65Z"/>
              <path class="cls-1" d="M13.81,23.05v-3.35h7.41v3.72c0,2.05-3.72,4.79-3.72,4.79,0,0-3.72-2.74-3.72-4.79,0-.13,0-.25.02-.37Z"/>
              <circle class="cls-5" cx="17.51" cy="33.78" r=".53"/>
            </g>
            <g>
              <rect class="cls-9" x="11" y="13.85" width="12.99" height="4.13" rx="1.39" ry="1.39"/>
              <path class="cls-9" d="M17.5,5.56c3.09,0,5.6,2.51,5.6,5.6v6.48c0,3.09-2.51,7.67-5.6,7.67s-5.6-4.57-5.6-7.67v-6.48c0-3.09,2.51-5.6,5.6-5.6Z"/>
              <path d="M17.5,12.21s-5.6-2.74-5.6.35c0-3.09,0-7.35,5.6-7.35s5.6,4.26,5.6,7.35c0-3.09-5.6-.35-5.6-.35Z"/>
              <path class="cls-6" d="M17.5,7.02c-5.6,0-5.6,3.21-5.6,5.54,0-3.09,0-7.35,5.6-7.35s5.6,4.26,5.6,7.35c0-2.33,0-5.54-5.6-5.54Z"/>
              <path class="cls-3" d="M15.67,21.45h3.58c.12,0,.21-.09.21-.21s-.09-.21-.21-.21h-3.58c-.12,0-.21.09-.21.21s.09.21.21.21Z"/>
              <path class="cls-1" d="M14.22,15.41c0,.58.47,1.05,1.05,1.05s1.05-.47,1.05-1.05-.47-1.05-1.05-1.05-1.05.47-1.05,1.05ZM18.68,15.41c0,.58.47,1.05,1.05,1.05s1.05-.47,1.05-1.05-.47-1.05-1.05-1.05-1.05.47-1.05,1.05Z"/>
              <path d="M20.41,15.41h-1.35c0,.37.3.67.67.67s.67-.3.67-.67h0ZM14.59,15.41h0c0,.37.3.67.67.67s.67-.3.67-.67h0s-1.35,0-1.35,0Z"/>
              <g>
                <path class="cls-1" d="M17.97,19.18h-.93c-.29,0-.52-.23-.52-.52h1.98c0,.29-.23.52-.52.52Z"/>
                <path class="cls-8" d="M18.11,18.66h-.36c0,.1.08.18.18.18s.18-.08.18-.18ZM16.88,18.66c0,.1.08.18.18.18s.18-.08.18-.18h-.36Z"/>
              </g>
              <g>
                <path class="cls-5" d="M15.54,15.63c-.12,0-.22-.1-.22-.22h.44c0,.12-.1.22-.22.22Z"/>
                <path class="cls-5" d="M20.05,15.63c-.12,0-.22-.1-.22-.22h.44c0,.12-.1.22-.22.22Z"/>
              </g>
              <g>
                <path d="M13.87,14.16c-.01-.08.02-.16.1-.21.78-.47,1.81-.45,2.57.04.07.05.11.13.09.21,0,0,0,.53,0,.53,0,.03-.01.06-.03.09-.04.06-.11.09-.17.09-.04,0-.08-.01-.11-.03-.63-.41-1.49-.42-2.14-.04-.1.06-.22.03-.28-.07-.02-.03-.02-.06-.03-.09,0,0,0-.5,0-.5,0,0,0,0,0-.01,0,0,0,0,0-.01,0,0,0,0,0-.01Z"/>
                <path d="M18.46,13.95c.78-.47,1.81-.45,2.57.04.07.05.11.13.09.21,0,0,0,.51,0,.51,0,0,0,0,0,.01,0,0,0,0,0,.01,0,.03-.01.06-.03.09-.04.06-.11.09-.17.09-.04,0-.08-.01-.11-.03-.63-.41-1.49-.42-2.14-.04-.1.06-.22.03-.28-.07-.02-.03-.02-.06-.03-.09,0,0,0,0,0-.01,0,0,0,0,0-.01,0,0,0,0,0-.01,0,0,0-.49,0-.49,0,0,0,0,0-.01-.01-.08.02-.16.1-.21Z"/>
              </g>
              <polygon points="23.1 12.56 22.09 17.71 23.1 17.01 23.1 12.56"/>
              <polygon points="11.9 12.56 12.91 17.71 11.9 17.01 11.9 12.56"/>
              <polygon class="cls-5" points="19.1 21.45 18.79 22.4 18.49 21.45 19.1 21.45"/>
              <polygon class="cls-5" points="15.9 21.45 16.21 22.4 16.51 21.45 15.9 21.45"/>
            </g>
            <path class="cls-2" d="M27.06,26.48l-5.71-1.88-3.84,8.05,9.55-6.17ZM21.84,19.96l-.49,4.64,2.11.71,6.07-7.49-7.69,2.14Z"/>
            <path class="cls-2" d="M17.51,32.65l-3.84-8.05-5.6,1.88,9.44,6.17ZM5.49,17.82l6.07,7.49,2.11-.71-.5-4.52-7.67-2.27Z"/>
          </g>
        </g>
      </g>
    </g>
  </g>
</svg>