<?xml version="1.0" encoding="UTF-8"?>
<svg xmlns="http://www.w3.org/2000/svg" xmlns:xlink="http://www.w3.org/1999/xlink" viewBox="0 0 35 35">
  <defs>
    <style>
      .cls-1 {
        opacity: .5;
      }

      .cls-1, .cls-2, .cls-3 {
        mix-blend-mode: multiply;
      }

      .cls-1, .cls-4 {
        fill: #fbc288;
      }

      .cls-5 {
        fill: #fcf6a8;
      }

      .cls-6 {
        fill: url(#linear-gradient-2);
      }

      .cls-7 {
        fill: #333;
      }

      .cls-8, .cls-9 {
        fill: #fff;
      }

      .cls-10 {
        fill: #34b67a;
      }

      .cls-11 {
        isolation: isolate;
      }

      .cls-12 {
        fill: url(#linear-gradient-3);
        opacity: .7;
      }

      .cls-12, .cls-9 {
        mix-blend-mode: overlay;
      }

      .cls-13 {
        fill: none;
        opacity: 0;
      }

      .cls-14 {
        fill: #f1b14f;
      }

      .cls-2, .cls-9 {
        opacity: .3;
      }

      .cls-2, .cls-15 {
        fill: #663f30;
      }

      .cls-16 {
        fill: #e46a5d;
      }

      .cls-3 {
        fill: #d6be89;
      }

      .cls-17 {
        fill: #dc564b;
      }

      .cls-18 {
        fill: url(#linear-gradient);
      }

      .cls-19 {
        fill: #bf3f34;
      }
    </style>
    <linearGradient id="linear-gradient" x1="1747.83" y1="-16977.07" x2="1760.46" y2="-16977.07" gradientTransform="translate(1771.65 -16949.73) rotate(-180)" gradientUnits="userSpaceOnUse">
      <stop offset="0" stop-color="#fbc288"/>
      <stop offset="1" stop-color="#fbd099"/>
    </linearGradient>
    <linearGradient id="linear-gradient-2" x1="1754.16" y1="-16968.99" x2="1754.16" y2="-16957.42" xlink:href="#linear-gradient"/>
    <linearGradient id="linear-gradient-3" x1="1754.07" y1="-16979.38" x2="1754.07" y2="-16984.36" gradientTransform="translate(1771.65 -16949.73) rotate(-180)" gradientUnits="userSpaceOnUse">
      <stop offset="0" stop-color="#fff"/>
      <stop offset="1" stop-color="gray"/>
    </linearGradient>
  </defs>
  <g class="cls-11">
    <g id="Lager_2" data-name="Lager 2">
      <g id="Layer_2" data-name="Layer 2">
        <g>
          <circle class="cls-13" cx="17.5" cy="17.5" r="17.5"/>
          <g>
            <g>
              <path class="cls-15" d="M12.95,20.27s0,0,0,0c0,0,0,0,0-.01,0,0,0,0,.01-.01.76-.93,3.38-2.17,4.5-1.57,1.11-.59,3.75.63,4.51,1.57,0,0,0,0,.01.01,0,0,0,0,0,.01,0,0,0,0,0,0,1.01,1.24,4.86,6.25,1.74,8.07-1.85,1.07-6.18,1.09-6.18,1.09,0,0-.03,0-.09,0-.06,0-.09,0-.09,0,0,0-4.34-.02-6.18-1.09-3.12-1.81.73-6.83,1.74-8.07Z"/>
              <path class="cls-9" d="M17.49,18.67s0,0,0,0h0s0,0,0,0ZM17.57,29.43s0,0,0,0c0,0,4.34-.02,6.18-1.09,3.12-1.81-.73-6.83-1.74-8.07,0,0,0,0,0,0,0,0,0,0,0-.01,0,0,0,0-.01-.01-.63-.77-2.55-1.75-3.82-1.72,1.1.03,2.69.97,3.22,1.72,0,0,0,0,0,.01,0,0,0,0,0,.01,0,0,0,0,0,0,.87,1.24,4.22,6.25,1.51,8.07-1.58,1.05-5.23,1.09-5.36,1.09ZM11.21,28.34c1.85,1.07,6.18,1.09,6.18,1.09,0,0,0,0,0,0-.13,0-3.78-.04-5.36-1.09-2.71-1.81.63-6.83,1.51-8.07,0,0,0,0,0,0,0,0,0,0,0-.01,0,0,0,0,0-.01.53-.75,2.1-1.7,3.21-1.73-1.27-.02-3.17.95-3.8,1.73,0,0,0,0-.01.01,0,0,0,0,0,.01,0,0,0,0,0,0-1.01,1.24-4.86,6.25-1.74,8.07Z"/>
              <path class="cls-2" d="M14.41,20.69s0,0,0,0c0,0,0,0,0,0,0,0,0,0,0,0,.52-.83,2.29-1.92,3.05-1.39.75-.53,2.54.56,3.06,1.39,0,0,0,0,0,0,0,0,0,0,0,0,0,0,0,0,0,0,.68,1.1,3.3,5.54,1.18,7.14-1.25.95-4.19.97-4.19.97,0,0-.02,0-.06,0-.04,0-.06,0-.06,0,0,0-2.94-.02-4.19-.97-2.12-1.6.5-6.05,1.18-7.14Z"/>
              <path class="cls-15" d="M12.26,13.93s0,0,0-.01c0,0,0,0,.01-.01,0,0,0,0,.01-.01.87-1.15,3.89-2.68,5.19-1.93,1.27-.73,4.32.78,5.19,1.93,0,0,0,0,.01.01,0,0,0,0,.01.01,0,0,0,0,0,.01,1.16,1.53,5.6,7.72,2,9.96-2.13,1.32-7.12,1.35-7.12,1.35,0,0-.04,0-.1,0-.06,0-.1,0-.1,0,0,0-4.99-.03-7.12-1.35-3.6-2.24.84-8.43,2-9.96Z"/>
              <path class="cls-9" d="M17.49,11.96s0,0,0,0h0s0,0,0,0ZM17.58,25.24h0s4.99-.03,7.12-1.35c3.6-2.24-.84-8.43-2-9.96,0,0,0,0,0-.01,0,0,0,0-.01-.01,0,0,0,0-.01-.01-.72-.95-2.93-2.15-4.4-2.13,1.27.04,3.1,1.2,3.71,2.13,0,0,0,0,.01.01,0,0,0,0,0,.01,0,0,0,0,0,.01,1.01,1.53,4.86,7.72,1.74,9.96-1.81,1.3-6.03,1.35-6.17,1.35ZM10.26,23.89c2.13,1.32,7.12,1.35,7.12,1.35h0c-.14,0-4.36-.05-6.17-1.35-3.12-2.24.73-8.43,1.74-9.96,0,0,0,0,0-.01,0,0,0,0,0-.01,0,0,0,0,.01-.01.61-.93,2.42-2.09,3.69-2.13-1.47-.03-3.66,1.18-4.38,2.13,0,0,0,0-.01.01,0,0,0,0-.01.01,0,0,0,0,0,.01-1.16,1.53-5.6,7.72-2,9.96Z"/>
              <path class="cls-2" d="M13.94,14.45s0,0,0-.01c0,0,0,0,0-.01,0,0,0,0,0-.01.59-1.02,2.64-2.37,3.52-1.71.86-.65,2.93.69,3.52,1.71,0,0,0,0,0,.01,0,0,0,0,0,.01,0,0,0,0,0,.01.79,1.35,3.8,6.84,1.36,8.82-1.44,1.17-4.83,1.2-4.83,1.2,0,0-.03,0-.07,0-.04,0-.07,0-.07,0,0,0-3.39-.03-4.83-1.2-2.44-1.98.57-7.46,1.36-8.82Z"/>
              <path class="cls-15" d="M11.35,6.98s0,0,.01-.01c0,0,0-.01.01-.02,0,0,0-.01.01-.02,1.03-1.47,4.57-3.42,6.09-2.47,1.5-.94,5.07,1,6.1,2.47,0,0,.01.01.01.02,0,0,0,.01.01.02,0,0,0,0,.01.01,1.36,1.95,6.57,9.86,2.35,12.72-2.5,1.69-8.36,1.73-8.36,1.73,0,0-.04,0-.12,0-.08,0-.12,0-.12,0,0,0-5.86-.04-8.36-1.73-4.22-2.86.99-10.77,2.35-12.72Z"/>
              <path class="cls-9" d="M17.49,4.45s0,0,0,0h0s0,0,0,0ZM17.6,21.43s0,0,0,0c0,0,5.86-.04,8.36-1.73,4.22-2.86-.99-10.77-2.35-12.72,0,0,0,0-.01-.01,0,0,0-.01-.01-.02,0,0,0-.01-.01-.02-.85-1.22-3.44-2.75-5.16-2.72,1.49.05,3.64,1.53,4.35,2.72,0,0,0,.01.01.02,0,0,0,.01.01.02,0,0,0,0,0,.01,1.18,1.95,5.7,9.86,2.04,12.72-2.13,1.66-7.08,1.73-7.25,1.73ZM9,19.7c2.5,1.69,8.36,1.73,8.36,1.73,0,0,0,0,0,0-.17,0-5.12-.07-7.25-1.73-3.66-2.86.86-10.77,2.04-12.72,0,0,0,0,0-.01,0,0,0-.01.01-.02,0,0,0-.01.01-.02.72-1.18,2.84-2.67,4.34-2.72-1.72-.04-4.29,1.5-5.14,2.72,0,0-.01.01-.01.02,0,0,0,.01-.01.02,0,0,0,0-.01.01-1.36,1.95-6.57,9.86-2.35,12.72Z"/>
              <path class="cls-2" d="M13.33,7.65s0,0,0-.01c0,0,0-.01,0-.02,0,0,0,0,0-.02.7-1.3,3.1-3.03,4.13-2.19,1.02-.83,3.44.89,4.14,2.19,0,0,0,0,0,.02,0,0,0,.01,0,.02,0,0,0,0,0,.01.92,1.73,4.46,8.74,1.59,11.27-1.69,1.5-5.67,1.53-5.67,1.53,0,0-.03,0-.08,0-.05,0-.08,0-.08,0,0,0-3.98-.03-5.67-1.53-2.86-2.53.67-9.54,1.59-11.27Z"/>
              <path class="cls-10" d="M17.5,35c-4.26,0-8.16-1.52-11.2-4.05,2.24-3.54,6.41-5.92,11.2-5.92s8.96,2.38,11.2,5.92c-3.03,2.53-6.94,4.05-11.2,4.05Z"/>
              <path class="cls-5" d="M10.22,27.56c-.02-.16-.04-.3-.06-.44,2.08-1.32,4.61-2.09,7.33-2.09s5.23.77,7.31,2.08c-.01.15-.03.3-.04.46-.32,4.03-3.46,7.2-7.27,7.2s-6.96-3.18-7.28-7.21Z"/>
              <path class="cls-18" d="M11.19,26.54c.14-.07.29-.14.44-.21-.01.18-.03.37-.03.55,0,3.58,2.64,6.48,5.9,6.48s5.9-2.9,5.9-6.48c0-.19-.01-.38-.03-.57-.65-.31-1.33-.56-2.04-.76h0c-.46-.38-.72-.88-.95-1.75-.39-1.44-.33-2.5-.33-2.5h-5.12s.06,1.06-.33,2.5c-.24.88-.49,1.38-.95,1.75h0c-.71.2-1.39.46-2.04.76,0,0,0,0,0,.01-.15.07-.29.14-.44.21ZM23.53,26.4c.1.05.19.1.28.14h0c-.09-.06-.19-.1-.28-.14Z"/>
              <path class="cls-9" d="M21.3,25.55c.07.07.14.15.21.21.02.01.03.03.04.05,2.46,1.52,4.59,4.06,6.15,5.9.34-.24.67-.5.99-.76-1.62-2.56-4.26-4.51-7.4-5.4ZM6.3,30.95c.32.27.65.52.99.76,1.49-1.75,3.5-4.15,5.83-5.69.2-.16.42-.3.61-.48-3.15.88-5.8,2.84-7.42,5.4Z"/>
              <path class="cls-1" d="M20.24,23.19c-.59.45-1.46.84-2.74.84s-2.15-.39-2.74-.84c.22-1.12.18-1.88.18-1.88h2.56s0,0,0,0h2.56s-.04.77.18,1.88Z"/>
              <g>
                <path class="cls-4" d="M21.23,16.07c-.22,1.03.05,1.95.6,2.07.55.12,1.17-.62,1.39-1.65s-.05-1.95-.6-2.07-1.17.62-1.39,1.65Z"/>
                <path class="cls-4" d="M13.68,16.07c.22,1.03-.05,1.95-.6,2.07s-1.17-.62-1.39-1.65c-.22-1.03.05-1.95.6-2.07.55-.12,1.17.62,1.39,1.65Z"/>
                <path class="cls-6" d="M12.27,14.1c0,3.39,2.33,8.57,5.21,8.57s5.21-5.18,5.21-8.57c0-5.29-2.33-7.14-5.21-7.14s-5.21,1.85-5.21,7.14Z"/>
                <g>
                  <path class="cls-1" d="M17.78,18.23h-.59c-.18,0-.33-.15-.33-.33h1.25c0,.18-.15.33-.33.33Z"/>
                  <path class="cls-3" d="M17.87,17.9h-.23c0,.06.05.12.12.12s.12-.05.12-.12ZM17.09,17.9c0,.06.05.12.12.12s.12-.05.12-.12h-.23Z"/>
                </g>
                <g>
                  <path class="cls-1" d="M14.22,15.09c0,.58.47,1.04,1.04,1.04s1.04-.47,1.04-1.04-.47-1.04-1.04-1.04-1.04.47-1.04,1.04ZM18.66,15.09c0,.58.47,1.04,1.04,1.04s1.04-.47,1.04-1.04-.47-1.04-1.04-1.04-1.04.47-1.04,1.04Z"/>
                  <path d="M19.04,15.09h0c0,.37.3.67.67.67s.67-.3.67-.67h0c0-.37-.3-.67-.67-.67s-.67.3-.67.67ZM14.59,15.09h0c0,.37.3.67.67.67s.67-.3.67-.67h0c0-.37-.3-.67-.67-.67s-.67.3-.67.67Z"/>
                  <path d="M18.81,14.19s.09-.03.12,0l.69.69v-.98s.04-.09.09-.09.09.04.09.09v.98l.69-.69s.09-.03.12,0c.03.03.03.09,0,.12l-.84.84h0s-.04.03-.06.03-.05,0-.06-.03h0s-.84-.84-.84-.84c-.03-.03-.03-.09,0-.12Z"/>
                  <path d="M14.36,14.19s.09-.03.12,0l.69.69v-.98s.04-.09.09-.09.09.04.09.09v.98l.69-.69s.09-.03.12,0c.03.03.03.09,0,.12l-.84.84h0s-.04.03-.06.03-.05,0-.06-.03h0s-.84-.84-.84-.84c-.03-.03-.03-.09,0-.12Z"/>
                  <path class="cls-8" d="M19.8,15.09c0,.12.1.22.22.22s.22-.1.22-.22-.1-.22-.22-.22-.22.1-.22.22ZM15.32,15.09c0,.12.1.22.22.22s.22-.1.22-.22-.1-.22-.22-.22-.22.1-.22.22Z"/>
                </g>
                <g>
                  <path class="cls-19" d="M16.8,19.38c.26,0,.5.09.66.22.16-.13.39-.22.66-.22.32,0,.59.12.74.31-.34.19-.84.32-1.4.32s-1.06-.13-1.4-.32c.15-.18.43-.31.74-.31Z"/>
                  <path class="cls-17" d="M17.46,20.01c-.55,0-1.04-.12-1.38-.31.07.51.66.9,1.38.9s1.31-.39,1.38-.9c-.34.19-.83.31-1.38.31Z"/>
                </g>
                <path class="cls-7" d="M18.4,13.36c.06.1.19.13.29.07.65-.39,1.51-.38,2.15.04.03.02.07.03.11.03.07,0,.14-.03.18-.1.06-.1.03-.23-.06-.29-.77-.5-1.81-.51-2.59-.04-.1.06-.13.19-.07.29ZM13.86,13.36c.06.1.19.13.29.07.65-.39,1.51-.38,2.15.04.03.02.07.03.11.03.07,0,.14-.03.18-.1.06-.1.03-.23-.06-.29-.77-.5-1.81-.51-2.59-.04-.1.06-.13.19-.07.29Z"/>
              </g>
              <path class="cls-12" d="M11.34,33.88c.26.1.53.19.8.28.57-.63,1.39-1.04,2.31-1.04,1.28,0,2.36.77,2.85,1.87.04,0,.08,0,.12,0,.1-.3.15-.62.15-.95,0-1.72-1.4-4.62-3.12-4.62s-3.03,2.72-3.11,4.45ZM17.57,34.05c0,.33.06.65.15.94.04,0,.08,0,.12,0,.48-1.1,1.57-1.87,2.85-1.87.9,0,1.71.39,2.27,1,.28-.09.56-.19.83-.3-.11-1.74-1.46-4.4-3.11-4.4s-3.12,2.9-3.12,4.62Z"/>
              <path class="cls-1" d="M17.48,5.7s-.03,3.38-.03,5.08-.44,2.02-1.68,1.71c-1.24-.31-3.92-2.27-3.5.11.42,2.38.7,2.27.7,2.27,0,0-1.63-.95-1.63-2.59s.92-3.02,2.41-4.86c2.44-3.01,3.73-1.72,3.73-1.72Z"/>
              <path class="cls-1" d="M17.48,5.7s-.03,3.38-.03,5.08.49,2.02,1.73,1.71c1.24-.31,3.92-2.27,3.5.11-.42,2.38-.7,2.27-.7,2.27,0,0,1.63-.95,1.63-2.59s-.92-3.02-2.41-4.86c-2.44-3.01-3.73-1.72-3.73-1.72Z"/>
              <path class="cls-15" d="M17.48,5.64s-.03,2.68-.03,4.03-.44,1.6-1.68,1.35c-1.24-.25-3.92-1.8-3.5.08.42,1.88.7,1.8.7,1.8,0,0-1.63-.75-1.63-2.05s.92-2.39,2.41-3.85c2.44-2.39,3.73-1.36,3.73-1.36Z"/>
              <path class="cls-9" d="M16.5,9.71c.13,0,.17-.03.17-.03h0s.09-.16.09-.91c0-1.27.01-3.46.02-4.53-.03,0-.06,0-.1,0-.35,0-1.11.23-2.25,1.77-.74,1.01-1.29,1.83-1.64,2.59.1-.03.21-.05.34-.05.55,0,1.23.33,1.88.66.37.19.73.36.97.43.22.06.4.09.53.09Z"/>
              <path class="cls-15" d="M17.48,5.64s-.03,2.68-.03,4.03.49,1.6,1.73,1.35c1.24-.25,3.92-1.8,3.5.08-.42,1.88-.7,1.8-.7,1.8,0,0,1.63-.75,1.63-2.05s-.92-2.39-2.41-3.85c-2.44-2.39-3.73-1.36-3.73-1.36Z"/>
              <path class="cls-9" d="M18.45,9.71c.14,0,.31-.03.54-.09.25-.07.6-.24.98-.43.66-.32,1.33-.66,1.89-.66.13,0,.24.02.34.05-.34-.76-.9-1.58-1.65-2.59-1.14-1.54-1.91-1.77-2.26-1.77-.04,0-.08,0-.11,0,0,1.06-.02,3.26-.02,4.53,0,.75.1.9.1.91h0s.04.04.2.04Z"/>
              <path class="cls-8" d="M20.71,24.69l-3.22,1.72-3.21-1.71c.09-.19.17-.41.25-.66l2.96,1.58,2.97-1.58c.08.25.16.47.25.66Z"/>
              <path class="cls-17" d="M16.83,25.94c0,.45.3.82.67.82s.67-.37.67-.82-.3-.82-.67-.82-.67.37-.67.82Z"/>
            </g>
            <g>
              <path class="cls-14" d="M13.57,3.76c0-.24.19-.43.43-.43s.43.19.43.43c0,.18-.12.34-.28.4l.74,1.79.66-1.81c-.14-.07-.25-.22-.25-.39,0-.24.19-.43.43-.43s.43.19.43.43c0,.19-.13.36-.31.41l.72,1.78.72-1.8c-.15-.07-.25-.22-.25-.39,0-.24.19-.43.43-.43s.43.19.43.43c0,.19-.12.35-.29.41l.7,1.79.74-1.8c-.16-.06-.27-.22-.27-.4,0-.24.19-.43.43-.43s.43.19.43.43c0,.19-.12.34-.28.4l.66,1.79.76-1.8c-.15-.07-.26-.22-.26-.4,0-.24.19-.43.43-.43s.43.19.43.43-.19.43-.43.43v3.76s-.79.77-3.51.77-3.47-.77-3.47-.77v-3.76c-.23,0-.42-.2-.42-.43Z"/>
              <g>
                <circle class="cls-8" cx="18.64" cy="6.85" r=".51"/>
                <path class="cls-8" d="M20.45,6.85c0-.28.23-.51.51-.51v1.01c-.28,0-.51-.23-.51-.51Z"/>
                <circle class="cls-8" cx="16.31" cy="6.85" r=".51"/>
                <path class="cls-8" d="M14.49,6.85c0,.28-.23.51-.51.51v-1.01c.28,0,.51.23.51.51Z"/>
              </g>
              <path class="cls-16" d="M20.61,6.85c0,.2.16.35.35.35s.35-.16.35-.35-.16-.35-.35-.35-.35.16-.35.35Z"/>
              <path class="cls-16" d="M18.28,6.85c0,.2.16.35.35.35s.35-.16.35-.35-.16-.35-.35-.35-.35.16-.35.35Z"/>
              <path class="cls-16" d="M15.96,6.85c0,.2.16.35.35.35s.35-.16.35-.35-.16-.35-.35-.35-.35.16-.35.35Z"/>
              <path class="cls-16" d="M13.63,6.85c0,.2.16.35.35.35s.35-.16.35-.35-.16-.35-.35-.35-.35.16-.35.35Z"/>
            </g>
          </g>
        </g>
      </g>
    </g>
  </g>
</svg>