<?xml version="1.0" encoding="UTF-8"?>
<svg xmlns="http://www.w3.org/2000/svg" xmlns:xlink="http://www.w3.org/1999/xlink" viewBox="0 0 35 35">
  <defs>
    <style>
      .cls-1 {
        fill: #0c3141;
      }

      .cls-2, .cls-3, .cls-4, .cls-5, .cls-6, .cls-7, .cls-8 {
        mix-blend-mode: multiply;
      }

      .cls-2, .cls-9 {
        fill: #4d4d4d;
      }

      .cls-2, .cls-6 {
        opacity: .4;
      }

      .cls-3 {
        fill: #fbc288;
      }

      .cls-3, .cls-5, .cls-8 {
        opacity: .5;
      }

      .cls-10 {
        fill: #d7eced;
      }

      .cls-4, .cls-11 {
        fill: #e46a5d;
      }

      .cls-4, .cls-12, .cls-13, .cls-14 {
        opacity: .3;
      }

      .cls-5, .cls-15 {
        fill: #325a76;
      }

      .cls-16, .cls-12 {
        fill: #fff;
      }

      .cls-17 {
        isolation: isolate;
      }

      .cls-18 {
        fill: none;
        opacity: 0;
      }

      .cls-19 {
        fill: #f1b14f;
      }

      .cls-20, .cls-7 {
        fill: #1c90bf;
      }

      .cls-7 {
        opacity: .2;
      }

      .cls-8 {
        fill: #8fc2d7;
      }

      .cls-12, .cls-14 {
        mix-blend-mode: overlay;
      }

      .cls-13 {
        fill: #a6dae8;
        mix-blend-mode: screen;
      }

      .cls-21 {
        fill: url(#linear-gradient);
      }
    </style>
    <linearGradient id="linear-gradient" x1="1177.61" y1="-16319.17" x2="1177.61" y2="-16302.62" gradientTransform="translate(1195.11 -16296.62) rotate(-180)" gradientUnits="userSpaceOnUse">
      <stop offset="0" stop-color="#fbc288"/>
      <stop offset="1" stop-color="#fbd099"/>
    </linearGradient>
  </defs>
  <g class="cls-17">
    <g id="Lager_2" data-name="Lager 2">
      <g id="Layer_2" data-name="Layer 2">
        <g>
          <circle class="cls-18" cx="17.5" cy="17.5" r="17.5"/>
          <g>
            <g>
              <g>
                <path class="cls-20" d="M25.2,19.84c1.89,0,3.42.72,3.42,1.61v7.85h-6.85v-7.85c0-.89,1.53-1.61,3.42-1.61Z"/>
                <path class="cls-7" d="M25.2,19.84v9.46h-3.42v-7.85c0-.89,1.53-1.61,3.42-1.61Z"/>
                <circle class="cls-19" cx="25.21" cy="19.31" r=".33"/>
                <rect class="cls-16" x="24.57" y="19.31" width="1.28" height=".6"/>
                <path class="cls-13" d="M28.61,21.33h-6.82c.13-.84,1.61-1.49,3.41-1.49s3.28.66,3.41,1.49Z"/>
              </g>
              <g>
                <path class="cls-20" d="M9.8,19.84c1.89,0,3.42.72,3.42,1.61v7.85h-6.85v-7.85c0-.89,1.53-1.61,3.42-1.61Z"/>
                <path class="cls-7" d="M9.8,19.84v9.46h-3.42v-7.85c0-.89,1.53-1.61,3.42-1.61Z"/>
                <path class="cls-19" d="M9.48,19.31c0,.18.15.33.33.33s.33-.15.33-.33-.15-.33-.33-.33-.33.15-.33.33Z"/>
                <rect class="cls-16" x="9.17" y="19.31" width="1.28" height=".6"/>
                <path class="cls-13" d="M13.21,21.33h-6.82c.13-.84,1.61-1.49,3.41-1.49s3.28.66,3.41,1.49Z"/>
              </g>
            </g>
            <g>
              <g>
                <g>
                  <path class="cls-9" d="M13.14,23.05h8.72c5.27,0,8.31,4.51,8.31,6.47,0,.03,0,.05,0,.08-3.2,3.33-7.69,5.4-12.66,5.4s-9.47-2.07-12.66-5.4c0-.03,0-.05,0-.08,0-1.96,3.04-6.47,8.31-6.47Z"/>
                  <path class="cls-2" d="M17.5,26.6c-4.8,0-5.55-3.47-5.55-3.47.39-.05.78-.08,1.2-.08h8.72c.39,0,.77.03,1.13.07,0,0-.69,3.48-5.49,3.48Z"/>
                  <path class="cls-12" d="M29.6,30.16c-1.11-2.09-3.8-4.63-7.74-4.63h-8.72c-3.94,0-6.64,2.53-7.74,4.63-.19-.18-.38-.37-.56-.56,0-.03,0-.05,0-.08,0-1.96,3.04-6.47,8.31-6.47h8.72c5.27,0,8.31,4.51,8.31,6.47,0,.03,0,.05,0,.08-.18.19-.37.37-.56.56Z"/>
                </g>
                <g class="cls-6">
                  <path class="cls-9" d="M12.13,34.16c-.76-.24-1.5-.54-2.21-.88v-9.62c.68-.27,1.41-.46,2.21-.55v11.06Z"/>
                  <path class="cls-9" d="M25.2,33.22c-.71.35-1.45.65-2.21.9v-11c.8.1,1.53.31,2.21.59v9.51Z"/>
                </g>
              </g>
              <g>
                <path class="cls-21" d="M17.5,5.56c3.09,0,5.6,2.51,5.6,5.6v8.55c0,3.09-2.51,5.6-5.6,5.6s-5.6-2.51-5.6-5.6v-8.55c0-3.09,2.51-5.6,5.6-5.6Z"/>
                <path class="cls-3" d="M14.22,14.99c0,.58.47,1.05,1.05,1.05s1.05-.47,1.05-1.05-.47-1.05-1.05-1.05-1.05.47-1.05,1.05ZM18.68,14.99c0,.58.47,1.05,1.05,1.05s1.05-.47,1.05-1.05-.47-1.05-1.05-1.05-1.05.47-1.05,1.05Z"/>
                <path d="M20.41,14.99h-1.35c0,.37.3.67.67.67s.67-.3.67-.67h0ZM14.59,14.99h0c0,.37.3.67.67.67s.67-.3.67-.67h0s-1.35,0-1.35,0Z"/>
                <g>
                  <path class="cls-16" d="M15.54,15.21c-.12,0-.22-.1-.22-.22h.44c0,.12-.1.22-.22.22Z"/>
                  <path class="cls-16" d="M20.05,15.21c-.12,0-.22-.1-.22-.22h.44c0,.12-.1.22-.22.22Z"/>
                </g>
                <g class="cls-14">
                  <path class="cls-16" d="M17.5,5.56c-3.09,0-5.6,2.51-5.6,5.6,0-1.63,2.51-3.61,5.6-3.61s5.6,2.1,5.6,3.61c0-3.09-2.51-5.6-5.6-5.6Z"/>
                </g>
              </g>
              <path class="cls-9" d="M10.65,15.25v1.34c0,.64.89,3.12.89,3.12,0,3.28,2.67,5.95,5.95,5.95s5.95-2.67,5.95-5.95c0,0,.89-2.48.89-3.12v-1.34c0-.64-.34-1.21-.89-1.52v-2.57c0-3.28-2.67-5.95-5.95-5.95s-5.95,2.67-5.95,5.95v2.57c-.55.31-.89.88-.89,1.52ZM12.4,15.25c0-1.86,2.28-3.37,5.1-3.37s5.1,1.51,5.1,3.37-2.28,3.37-5.1,3.37-5.1-1.51-5.1-3.37Z"/>
              <path class="cls-12" d="M17.84,29.09h-.36v.19h.36v-.19ZM17.84,30.2h-.36v.19h.36v-.19ZM17.84,26.51h-.36v.19h.36v-.19ZM17.84,29.83h-.36v.19h.36v-.19ZM17.84,29.46h-.36v.19h.36v-.19ZM17.84,28.72h-.36v.19h.36v-.19ZM17.84,27.25h-.36v.19h.36v-.19ZM17.84,26.88h-.36v.19h.36v-.19ZM17.84,28.35h-.36v.19h.36v-.19ZM17.84,27.99h-.36v.19h.36v-.19ZM17.84,27.62h-.36v.19h.36v-.19ZM17.84,32.79h-.36v.19h.36v-.19ZM17.84,33.9h-.36v.19h.36v-.19ZM17.84,33.53h-.36v.19h.36v-.19ZM17.84,34.27h-.36v.19h.36v-.19ZM17.84,33.16h-.36v.19h.36v-.19ZM17.84,34.64h-.36v.19h.36v-.19ZM17.84,30.94h-.36v.19h.36v-.19ZM17.84,31.31h-.36v.19h.36v-.19ZM17.84,30.57h-.36v.19h.36v-.19ZM17.84,31.68h-.36v.19h.36v-.19ZM17.84,32.42h-.36v.19h.36v-.19ZM17.84,32.05h-.36v.19h.36v-.19ZM17.47,32.96h-.36v.19h.36v-.19ZM17.47,29.26h-.36v.19h.36v-.19ZM17.47,28.89h-.36v.19h.36v-.19ZM17.47,30.37h-.36v.19h.36v-.19ZM17.47,30h-.36v.19h.36v-.19ZM17.47,29.63h-.36v.19h.36v-.19ZM17.47,28.52h-.36v.19h.36v-.19ZM17.47,27.04h-.36v.19h.36v-.19ZM17.11,26.67v.19h.36v-.19h-.36ZM17.47,28.15h-.36v.19h.36v-.19ZM17.47,27.78h-.36v.19h.36v-.19ZM17.47,27.41h-.36v.19h.36v-.19ZM17.47,32.59h-.36v.19h.36v-.19ZM17.47,30.74h-.36v.19h.36v-.19ZM17.47,34.81h-.36v.19h.36v-.19ZM17.47,33.7h-.36v.19h.36v-.19ZM17.47,34.44h-.36v.19h.36v-.19ZM17.47,34.07h-.36v.19h.36v-.19ZM17.47,33.33h-.36v.19h.36v-.19ZM17.47,31.48h-.36v.19h.36v-.19ZM17.47,32.22h-.36v.19h.36v-.19ZM17.47,31.11h-.36v.19h.36v-.19ZM17.47,31.85h-.36v.19h.36v-.19Z"/>
              <path class="cls-12" d="M23.45,13.26v-2.1c0-3.28-2.67-5.95-5.95-5.95s-5.95,2.67-5.95,5.95v2.1c0-3.28,2.67-5.95,5.95-5.95s5.95,2.67,5.95,5.95Z"/>
            </g>
            <g>
              <path class="cls-11" d="M10.5,13.66v4.1c0,.87.7,1.57,1.57,1.57h3.91l.6-2.63c.06-.25.37-.43.71-.43s.65.18.71.43l.6,2.63h3.91c.87,0,1.57-.7,1.57-1.57v-4.1c0-.87-.7-1.57-1.57-1.57h-10.44c-.87,0-1.57.7-1.57,1.57ZM11.44,13.66c0-.35.28-.63.63-.63h10.44c.35,0,.63.28.63.63v4.1c0,.35-.28.63-.63.63h-3.16l-.43-1.9c-.16-.68-.82-1.16-1.63-1.16s-1.47.48-1.63,1.16l-.43,1.9h-3.16c-.35,0-.63-.28-.63-.63v-4.1Z"/>
              <path class="cls-13" d="M22.51,13.04c.35,0,.63.28.63.63v4.1c0,.35-.28.63-.63.63h-3.16l-.43-1.9c-.16-.68-.82-1.16-1.63-1.16s-1.47.48-1.63,1.16l-.43,1.9h-3.16c-.35,0-.63-.28-.63-.63v-4.1c0-.35.28-.63.63-.63h10.44Z"/>
              <path class="cls-13" d="M12.07,13.04h5.22v2.3c-.8,0-1.47.48-1.63,1.16l-.43,1.9h-3.16c-.35,0-.63-.28-.63-.63v-4.1c0-.35.28-.63.63-.63Z"/>
              <path class="cls-8" d="M12.07,13.04h10.44c.35,0,.63.28.63.63v.63c0-.35-.28-.63-.63-.63h-10.44c-.35,0-.63.28-.63.63v-.63c0-.35.28-.63.63-.63Z"/>
              <path class="cls-11" d="M23.19,14.82v1.78h1.48v-1.78h-1.48ZM23.68,15.13h.73v1.14h-.73v-1.14Z"/>
              <path class="cls-16" d="M9.87,6.65v16.98c0,1.01.82,1.84,1.84,1.84h5.59v.92h-5.59c-1.52,0-2.76-1.24-2.76-2.76V6.65h.92Z"/>
              <path class="cls-11" d="M8.66,16.6h1.84v1.16c0,.87.7,1.57,1.57,1.57h3.91l.6-2.63c.06-.25.37-.43.71-.43v-.94c-.8,0-1.47.48-1.63,1.16l-.43,1.9h-3.16c-.35,0-.63-.28-.63-.63v-4.1c0-.35.28-.63.63-.63h5.22v-.94h-5.22c-.87,0-1.57.7-1.57,1.57v1.16h-1.84v1.78ZM10.16,15.13h.33v1.14h-.33v-1.14Z"/>
              <g>
                <rect class="cls-11" x="16.65" y="24.14" width="1.27" height="1.25"/>
                <path class="cls-11" d="M15.4,23.39c.31.74,1.04,1.27,1.89,1.27s1.58-.52,1.89-1.27h-3.78ZM16.09,22.97h2.39v-.36h-2.39v.36ZM16.15,25.93c0,.63.51,1.14,1.14,1.14s1.14-.51,1.14-1.14-.51-1.14-1.14-1.14-1.14.51-1.14,1.14Z"/>
                <path class="cls-4" d="M16.09,22.97h1.2v-.36h-1.2v.36ZM15.4,23.39c.31.74,1.04,1.27,1.89,1.27v-1.27h-1.89ZM16.15,25.93c0,.63.51,1.14,1.14,1.14v-2.28c-.63,0-1.14.51-1.14,1.14Z"/>
                <rect class="cls-11" x="16.33" y="22.97" width="1.92" height=".42"/>
                <path class="cls-11" d="M16.74,25.93c0,.3.25.55.55.55s.55-.25.55-.55-.25-.55-.55-.55-.55.25-.55.55Z"/>
              </g>
              <path class="cls-15" d="M10.01,7.59h-1.21v1.78h1.21v-1.78ZM8.8,6.96v.33h1.21v-.33h-1.21Z"/>
              <rect class="cls-1" x="8.95" y="7.29" width=".92" height=".3"/>
              <rect class="cls-10" x="8.95" y="9.37" width=".92" height=".3"/>
              <rect class="cls-10" x="8.95" y="16.6" width=".92" height=".3"/>
              <path class="cls-5" d="M8.8,6.96v.33h.6v-.33h-.6ZM9.41,7.59h-.6v1.78h.6v-1.78Z"/>
            </g>
          </g>
        </g>
      </g>
    </g>
  </g>
</svg>