<?xml version="1.0" encoding="UTF-8"?>
<svg xmlns="http://www.w3.org/2000/svg" xmlns:xlink="http://www.w3.org/1999/xlink" viewBox="0 0 34.32 34.32">
  <defs>
    <style>
      .cls-1, .cls-2 {
        opacity: .5;
      }

      .cls-1, .cls-3, .cls-4, .cls-5 {
        mix-blend-mode: multiply;
      }

      .cls-1, .cls-6 {
        fill: #fbc288;
      }

      .cls-7 {
        fill: #fcf6a8;
      }

      .cls-8, .cls-2, .cls-9 {
        fill: #fff;
      }

      .cls-10, .cls-5 {
        fill: #d6be89;
      }

      .cls-11 {
        fill: #34b67a;
      }

      .cls-12 {
        isolation: isolate;
      }

      .cls-3 {
        fill: #333;
        opacity: .2;
      }

      .cls-13 {
        fill: none;
        opacity: 0;
      }

      .cls-14 {
        fill: #e46a5d;
      }

      .cls-9 {
        mix-blend-mode: overlay;
        opacity: .3;
      }

      .cls-15 {
        fill: url(#linear-gradient);
      }

      .cls-16 {
        fill: #663f30;
      }

      .cls-17 {
        fill: #ab3900;
      }
    </style>
    <linearGradient id="linear-gradient" x1="1726.89" y1="-16395.38" x2="1726.89" y2="-16384.69" gradientTransform="translate(1744.05 -16377.75) rotate(-180)" gradientUnits="userSpaceOnUse">
      <stop offset="0" stop-color="#fbc288"/>
      <stop offset="1" stop-color="#fbd099"/>
    </linearGradient>
  </defs>
  <g class="cls-12">
    <g id="Lager_2" data-name="Lager 2">
      <g id="Layer_2" data-name="Layer 2">
        <g>
          <circle class="cls-13" cx="17.16" cy="17.16" r="17.16"/>
          <g>
            <g>
              <path class="cls-14" d="M17.03,4.05c5.57,0,9.52,4.73,9.52,4.73h-13.16s-1.93-4.73,3.64-4.73Z"/>
              <path class="cls-7" d="M28.29,8.77c0,.84-.68,1.52-1.52,1.52s-1.52-.68-1.52-1.52.68-1.52,1.52-1.52,1.52.68,1.52,1.52Z"/>
              <path class="cls-2" d="M26.77,7.97c.72,0,1.32.49,1.48,1.16.03-.12.05-.24.05-.36,0-.84-.68-1.52-1.52-1.52s-1.52.68-1.52,1.52c0,.13.02.25.05.36.16-.67.76-1.16,1.48-1.16Z"/>
            </g>
            <g>
              <g>
                <path class="cls-11" d="M17.16,34.32c-4.06,0-7.78-1.41-10.72-3.77.37-2.84,2.89-7.95,7.02-7.95h7.41c4.13,0,6.65,5.1,7.02,7.95-2.94,2.36-6.66,3.77-10.72,3.77Z"/>
                <path class="cls-9" d="M20.86,25.03h-7.41c-3.75,0-6.17,3.33-6.86,5.63-.05-.04-.1-.08-.16-.12.37-2.84,2.89-7.95,7.02-7.95h7.41c4.13,0,6.65,5.1,7.02,7.95-.05.04-.1.08-.16.12-.69-2.3-3.11-5.63-6.86-5.63Z"/>
                <path class="cls-14" d="M14.22,21.49h5.88s1.95,2.28,1.37,4.37c-.41,1.49-2.31,2.8-2.31,2.8l-2-1.41-2.01,1.41s-1.89-1.31-2.31-2.8c-.58-2.08,1.37-4.37,1.37-4.37Z"/>
                <path class="cls-9" d="M16.89,21.49h3.2s1.83,2.15,1.41,4.18c-.48-1.03-1.59-1.86-1.59-1.86h-5.51s-1.13.84-1.6,1.88c-.43-2.03,1.41-4.19,1.41-4.19h2.68Z"/>
                <g>
                  <path class="cls-6" d="M14.23,22.52v-2.65h5.86v2.94c0,2.5-2.94,4.43-2.94,4.43,0,0-2.94-1.94-2.94-4.43,0-.1,0-.2.01-.29Z"/>
                  <path class="cls-1" d="M17.16,26.44s2.94-1.72,2.94-3.94v.32c0,2.5-2.94,4.43-2.94,4.43,0,0-2.94-1.94-2.94-4.43,0-.07,0-.13.01-.2.11,2.16,2.93,3.82,2.93,3.82Z"/>
                </g>
                <polygon class="cls-3" points="19.16 28.66 17.16 27.25 15.15 28.66 17.16 27.77 19.16 28.66"/>
                <path class="cls-1" d="M20.1,19.88v2.46c-.76,1.05-1.79,1.82-2.94,1.82s-2.17-.76-2.93-1.81v-2.47h5.86Z"/>
              </g>
              <g>
                <path class="cls-6" d="M23.63,12.88l-1.93,1.6v2.92c1.08,0,1.93-4.52,1.93-4.52ZM10.7,12.88s.84,4.52,1.93,4.52v-2.92l-1.93-1.6Z"/>
                <g>
                  <path class="cls-15" d="M17.16,6.89c2.53,0,4.58,2.05,4.58,4.58v5.58c0,2.53-2.05,6-4.58,6s-4.58-3.47-4.58-6v-5.58c0-2.53,2.05-4.58,4.58-4.58Z"/>
                  <g class="cls-4">
                    <path class="cls-10" d="M15.81,20.7c1.04.25,1.6.25,2.64,0,.11-.02.17-.13.14-.22-.03-.1-.13-.15-.23-.13-.98.23-1.5.23-2.47,0-.1-.02-.2.03-.23.13-.03.1.04.2.14.22Z"/>
                  </g>
                  <g>
                    <path class="cls-1" d="M17.56,18.9h-.8c-.25,0-.45-.2-.45-.45h1.7c0,.25-.2.45-.45.45Z"/>
                    <path class="cls-5" d="M17.69,18.45h-.31c0,.09.07.16.16.16s.16-.07.16-.16ZM16.63,18.45c0,.09.07.16.16.16s.16-.07.16-.16h-.31Z"/>
                  </g>
                  <g>
                    <path class="cls-1" d="M17.87,16.12h2.31c0-.64-.52-1.16-1.16-1.16s-1.16.52-1.16,1.16ZM14.14,16.12h2.31c0-.64-.52-1.16-1.16-1.16s-1.16.52-1.16,1.16Z"/>
                    <path d="M18.29,16.12h0c0,.41.33.74.74.74s.74-.33.74-.74h0c0-.41-.33-.74-.74-.74s-.74.33-.74.74ZM14.55,16.12h0c0,.41.33.74.74.74s.74-.33.74-.74h0c0-.41-.33-.74-.74-.74s-.74.33-.74.74Z"/>
                    <path class="cls-8" d="M19.13,16.12c0,.13.11.24.24.24s.24-.11.24-.24-.11-.24-.24-.24-.24.11-.24.24ZM15.36,16.12c0,.13.11.24.24.24s.24-.11.24-.24-.11-.24-.24-.24-.24.11-.24.24Z"/>
                  </g>
                  <path class="cls-1" d="M12.58,11.47c0-.87.25-1.68.67-2.38.91-.96,2.32-1.57,3.91-1.57s2.99.61,3.9,1.56c.43.7.68,1.51.68,2.39v3.66l-1.28-2.71s-1.94.74-3.3.74-2.58-.31-3.48-.8c0,0,0,0,0,0h0s-1.1,2.77-1.1,2.77h0v-3.66Z"/>
                  <path class="cls-17" d="M11.18,10.9c0-.71.52-1.29,1.2-1.39.6-2.08,2.51-3.6,4.79-3.6s4.18,1.52,4.79,3.6c.68.1,1.2.68,1.2,1.39,0,.16-.03.31-.08.45h0s-1.34,3.78-1.34,3.78l-1.1-3.36h0s0,0,0,0c-.9.6-2.13.97-3.48.97s-2.58-.37-3.48-.97c0,0,0,0,0,0h0s-1.1,3.36-1.1,3.36l-1.34-3.78h0c-.05-.14-.08-.29-.08-.45Z"/>
                  <path class="cls-9" d="M11.18,10.9c0-.71.52-1.29,1.2-1.39.6-2.08,2.51-3.6,4.79-3.6s4.18,1.52,4.79,3.6c.68.1,1.2.68,1.2,1.39-.16-.5-.51-.83-1.1-.91,0,0,0-.01,0-.02-.45-1.33-2.46-2.45-4.9-2.45s-4.59,1.21-4.9,2.45c0-.02,0-.03.01-.05-.61.1-1,.48-1.11.98Z"/>
                  <path class="cls-16" d="M20.11,14.34c.06,0,.12-.03.15-.08.05-.08.03-.19-.05-.25-.65-.42-1.54-.44-2.21-.04-.08.05-.11.16-.06.24.05.08.16.11.24.06.55-.33,1.29-.32,1.83.03.03.02.06.03.1.03Z"/>
                  <path class="cls-16" d="M16.25,14.34c.06,0,.12-.03.15-.08.05-.08.03-.19-.05-.25-.65-.42-1.54-.44-2.21-.04-.08.05-.11.16-.06.24.05.08.16.11.24.06.55-.33,1.29-.32,1.83.03.03.02.06.03.1.03Z"/>
                </g>
              </g>
            </g>
            <path class="cls-11" d="M16.85,4.42l.51,1.64.51-1.64,4.99,1.63-1.01,3.35s-3.37-.41-4.5-.41-4.5.41-4.5.41l-1.01-3.35,4.99-1.63Z"/>
            <path class="cls-7" d="M17.75,29.66c0-.32-.26-.58-.58-.58s-.58.26-.58.58.26.58.58.58.58-.26.58-.58ZM16.58,32.49c0,.32.26.58.58.58s.58-.26.58-.58-.26-.58-.58-.58-.58.26-.58.58Z"/>
          </g>
        </g>
      </g>
    </g>
  </g>
</svg>