<?xml version="1.0" encoding="UTF-8"?>
<svg xmlns="http://www.w3.org/2000/svg" xmlns:xlink="http://www.w3.org/1999/xlink" viewBox="0 0 35 35">
  <defs>
    <style>
      .cls-1, .cls-2, .cls-3, .cls-4, .cls-5 {
        mix-blend-mode: multiply;
      }

      .cls-1, .cls-6 {
        fill: #ccc;
      }

      .cls-2 {
        opacity: .5;
      }

      .cls-2, .cls-7 {
        fill: #fbc288;
      }

      .cls-8, .cls-4 {
        fill: #333;
      }

      .cls-9 {
        fill: #f2f2f2;
      }

      .cls-10, .cls-11, .cls-12 {
        fill: #fff;
      }

      .cls-3, .cls-13 {
        fill: #663f30;
      }

      .cls-14 {
        fill: #325a76;
      }

      .cls-15 {
        isolation: isolate;
      }

      .cls-4, .cls-11 {
        opacity: .2;
      }

      .cls-16, .cls-17 {
        fill: #1a1a1a;
      }

      .cls-18 {
        fill: none;
        opacity: 0;
      }

      .cls-19 {
        fill: #f1b14f;
      }

      .cls-11, .cls-12, .cls-20 {
        mix-blend-mode: overlay;
      }

      .cls-17, .cls-21 {
        opacity: .1;
      }

      .cls-12, .cls-20 {
        opacity: .3;
      }

      .cls-5 {
        fill: #d6be89;
      }

      .cls-22 {
        fill: url(#linear-gradient);
      }
    </style>
    <linearGradient id="linear-gradient" x1="1610.46" y1="-16524.37" x2="1610.46" y2="-16534.55" gradientTransform="translate(1627.99 -16520.49) rotate(-180)" gradientUnits="userSpaceOnUse">
      <stop offset="0" stop-color="#fbd099"/>
      <stop offset="1" stop-color="#fbc288"/>
    </linearGradient>
  </defs>
  <g class="cls-15">
    <g id="Lager_2" data-name="Lager 2">
      <g id="Layer_2" data-name="Layer 2">
        <g>
          <circle class="cls-18" cx="17.5" cy="17.5" r="17.5"/>
          <g>
            <g>
              <g>
                <path class="cls-14" d="M2.89,27.13c1.21-2.38,4.5-5.43,9.41-5.43h10.42c4.9,0,8.19,3.05,9.41,5.43-3.09,4.73-8.48,7.87-14.61,7.87s-11.53-3.14-14.61-7.87Z"/>
                <path class="cls-12" d="M22.71,21.7c4.9,0,8.19,3.05,9.41,5.43-.25.38-.5.74-.78,1.1-1.58-1.55-4.54-3.13-8.63-3.13h-10.42c-4.09,0-7.05,1.58-8.63,3.13-.27-.36-.53-.72-.78-1.1,1.21-2.38,4.5-5.43,9.41-5.43h10.42Z"/>
                <polygon class="cls-6" points="17.49 32.94 12.92 20.91 22.07 20.91 17.49 32.94"/>
                <polygon class="cls-10" points="17.49 32.94 13.32 20.91 21.67 20.91 17.49 32.94"/>
                <path class="cls-7" d="M13.04,19.69v-3.49h8.96v3.88c0,3.29-4.49,5.85-4.49,5.85,0,0-4.49-2.56-4.49-5.85,0-.13,0-.26.02-.39Z"/>
                <path class="cls-2" d="M17.51,24.99s4.49-2.31,4.49-5.29v.37c0,3.29-4.49,5.85-4.49,5.85,0,0-4.49-2.56-4.49-5.85,0-.08,0-.15.01-.23.14,2.91,4.48,5.14,4.48,5.14Z"/>
                <polygon class="cls-4" points="17.49 32.94 22.27 20.55 24.63 21.72 22.76 24.57 24.26 26.68 17.49 32.94"/>
                <polygon class="cls-14" points="17.49 32.94 22.22 20.49 24.63 21.72 22.46 24.16 23.97 26.27 17.49 32.94"/>
                <polygon class="cls-12" points="22.46 24.16 21.39 22.68 22.22 20.49 24.63 21.72 22.46 24.16"/>
                <polygon class="cls-4" points="17.49 32.94 12.72 20.55 10.21 21.72 12.23 24.57 10.73 26.68 17.49 32.94"/>
                <polygon class="cls-14" points="17.49 32.94 12.77 20.49 10.21 21.72 12.53 24.16 11.02 26.27 17.49 32.94"/>
                <polygon class="cls-12" points="12.53 24.16 13.6 22.68 12.77 20.49 10.21 21.72 12.53 24.16"/>
                <polygon class="cls-1" points="15.7 27.22 17.49 25.89 19.29 27.22 18.67 28.39 18.85 29.39 17.49 32.94 16.14 29.39 16.3 28.39 15.7 27.22"/>
                <polygon class="cls-8" points="15.7 27.22 17.49 25.89 19.29 27.22 18.44 28.39 18.85 29.39 17.49 32.94 16.14 29.39 16.55 28.39 15.7 27.22"/>
                <polygon class="cls-1" points="19.59 27.43 17.5 25.89 15.4 27.43 17.45 26.6 19.59 27.43"/>
                <polygon class="cls-1" points="18.44 28.39 16.55 28.39 16.47 28.59 18.52 28.59 18.44 28.39"/>
              </g>
              <path class="cls-19" d="M21.72,30.5c0,.37.3.68.68.68s.68-.3.68-.68-.3-.68-.68-.68-.68.3-.68.68ZM21.72,32.94c0,.37.3.68.68.68s.68-.3.68-.68-.3-.68-.68-.68-.68.3-.68.68ZM13.25,30.5c0-.37-.3-.68-.68-.68s-.68.3-.68.68.3.68.68.68.68-.3.68-.68ZM11.9,32.94c0,.37.3.68.68.68s.68-.3.68-.68-.3-.68-.68-.68-.68.3-.68.68Z"/>
              <path class="cls-19" d="M4.06,25.42c1.17-1.38,3-2.69,5.11-3.27l.51,1.01-.96,1.45c-1.64.35-3.02,1.14-4.05,2.04l-.61-1.23Z"/>
              <path class="cls-8" d="M9.02,22.79c.05.13-.06.29-.24.36-.18.07-.37.01-.41-.12-.05-.13.06-.29.24-.36.18-.07.37-.01.41.12Z"/>
              <path class="cls-19" d="M30.94,25.42c-1.17-1.38-3-2.69-5.11-3.27l-.51,1.01.96,1.45c1.64.35,3.02,1.14,4.05,2.04l.61-1.23Z"/>
              <path class="cls-8" d="M25.98,22.79c-.05.13.06.29.24.36.18.07.37.01.41-.12.05-.13-.06-.29-.24-.36-.18-.07-.37-.01-.41.12Z"/>
            </g>
            <g>
              <g>
                <g>
                  <rect class="cls-7" x="11.03" y="12.09" width="12.99" height="4.13" rx="1.39" ry="1.39"/>
                  <path class="cls-22" d="M17.53,3.79c3.09,0,5.6,2.51,5.6,5.6v6.48c0,5.89-2.51,7.67-5.6,7.67s-5.6-1.77-5.6-7.67v-6.48c0-3.09,2.51-5.6,5.6-5.6Z"/>
                  <path class="cls-2" d="M14.25,13.99c0,.58.47,1.05,1.05,1.05s1.05-.47,1.05-1.05-.47-1.05-1.05-1.05-1.05.47-1.05,1.05ZM18.71,13.99c0,.58.47,1.05,1.05,1.05s1.05-.47,1.05-1.05-.47-1.05-1.05-1.05-1.05.47-1.05,1.05Z"/>
                  <path d="M20.44,13.99h-1.35c0,.37.3.67.67.67s.67-.3.67-.67h0ZM14.62,13.99h0c0,.37.3.67.67.67s.67-.3.67-.67h-1.35Z"/>
                  <g>
                    <path class="cls-2" d="M18,17.42h-.93c-.29,0-.52-.23-.52-.52h1.98c0,.29-.23.52-.52.52Z"/>
                    <path class="cls-5" d="M18.14,16.9h-.36c0,.1.08.18.18.18s.18-.08.18-.18ZM16.91,16.9c0,.1.08.18.18.18s.18-.08.18-.18h-.36Z"/>
                  </g>
                  <g>
                    <path class="cls-10" d="M15.57,14.21c-.12,0-.22-.1-.22-.22h.44c0,.12-.1.22-.22.22Z"/>
                    <path class="cls-10" d="M20.08,14.21c-.12,0-.22-.1-.22-.22h.44c0,.12-.1.22-.22.22Z"/>
                  </g>
                  <g>
                    <path class="cls-9" d="M13.9,12.75c-.01-.08.02-.16.1-.21.78-.47,1.81-.45,2.57.04.07.05.11.13.09.21,0,0,0,.53,0,.53,0,.03-.01.06-.03.09-.04.06-.11.09-.17.09-.04,0-.08-.01-.11-.03-.63-.41-1.49-.42-2.14-.04-.1.06-.22.03-.28-.07-.02-.03-.02-.06-.03-.09,0,0,0-.5,0-.5,0,0,0,0,0-.01,0,0,0,0,0-.01,0,0,0,0,0-.01Z"/>
                    <path class="cls-9" d="M18.49,12.54c.78-.47,1.81-.45,2.57.04.07.05.11.13.09.21,0,0,0,.51,0,.51,0,0,0,0,0,.01,0,0,0,0,0,.01,0,.03-.01.06-.03.09-.04.06-.11.09-.17.09-.04,0-.08-.01-.11-.03-.63-.41-1.49-.42-2.14-.04-.1.06-.22.03-.28-.07-.02-.03-.02-.06-.03-.09,0,0,0,0,0-.01,0,0,0,0,0-.01,0,0,0,0,0-.01,0,0,0-.49,0-.49,0,0,0,0,0-.01-.01-.08.02-.16.1-.21Z"/>
                  </g>
                  <g class="cls-20">
                    <path class="cls-10" d="M17.53,3.79c-3.09,0-5.6,2.51-5.6,5.6,0-1.63,2.51-3.61,5.6-3.61s5.6,2.1,5.6,3.61c0-3.09-2.51-5.6-5.6-5.6Z"/>
                  </g>
                </g>
                <g>
                  <path class="cls-9" d="M11.62,14.68c0-.24.12-.46.31-.58v1.43c0,5.21,2.51,4.02,5.6,4.02s5.6,1.19,5.6-4.02v-1.43c.19.13.31.34.31.58v4.55s0,.03,0,.04c0,.03,0,.05,0,.08,0,2.92-2.65,5.29-5.91,5.29s-5.91-2.37-5.91-5.29c0-.03,0-.05,0-.08,0-.01,0-.03,0-.04v-4.55Z"/>
                  <path class="cls-17" d="M23.44,18.52s0,.04,0,.07v-.1s0,.02,0,.04ZM11.62,18.48v.1s0-.04,0-.07c0-.01,0-.02,0-.04ZM11.62,18.59v.65s0,.03,0,.04c0,.03,0,.05,0,.08,0,2.92,2.65,5.29,5.91,5.29s5.91-2.37,5.91-5.29c0-.03,0-.05,0-.08,0-.01,0-.03,0-.04v-.65c0,2.55-2.65,4.62-5.91,4.62s-5.91-2.07-5.91-4.62Z"/>
                  <g>
                    <path class="cls-13" d="M12.26,24.35h2.03s.04,0,.07,0c.21-2.71.93-5.15,2.24-5.15.19,0,.35.16.35.35s-.16.35-.35.35c-.67,0-1.61,2.34-1.61,6.16v.1c0,.07-.01.13-.03.19-.14.81-.84,1.43-1.68,1.43s-1.55-.62-1.68-1.43c-.02-.06-.03-.12-.03-.19v-1.11c0-.39.31-.7.7-.7Z"/>
                    <path class="cls-11" d="M12.26,24.35h2.03s.04,0,.07,0c0-.03,0-.06,0-.08.28.05.52.12.69.21-.02.21-.03.42-.04.63-.35.17-.97.28-1.67.28-.79,0-1.46-.14-1.78-.34h0c0-.39.31-.7.7-.7Z"/>
                    <path class="cls-3" d="M12.16,24.83c0,.1.5.19,1.12.19s1.12-.08,1.12-.19-.5-.19-1.12-.19-1.12.08-1.12.19Z"/>
                  </g>
                  <g class="cls-21">
                    <path class="cls-16" d="M11.73,20.4c.55-.18,1.26-.52,1.99-.86.99.27,2.3.02,3.75,0-.35,1.58-3.62,2.05-5.5,1.61-.1-.25-.19-.5-.24-.76Z"/>
                    <path class="cls-16" d="M21.33,19.55c.73.34,1.44.68,1.99.86-.06.26-.14.51-.24.76-1.88.44-5.15-.02-5.5-1.61,1.45,0,2.77.26,3.75,0Z"/>
                  </g>
                  <path class="cls-9" d="M17.55,18.57c0,2.51,6.84,2.58,6.84.91,0,1.75-6.84-3.6-6.84-.91ZM10.67,19.48c0,1.67,6.84,1.6,6.84-.91,0-2.69-6.84,2.66-6.84.91Z"/>
                  <path class="cls-10" d="M10.7,19.64c.05.19.19.35.4.49,1.42-.04,5.95-2.61,6.38-1.26.02-.09.04-.19.04-.29,0-2.6-6.38,2.3-6.81,1.06ZM10.67,19.48c0,.06,0,.11.02.15-.01-.05-.02-.1-.02-.15ZM17.55,18.57c0,.1.01.2.04.29.43-1.35,4.95,1.22,6.38,1.26.21-.14.35-.3.4-.49-.43,1.24-6.81-3.66-6.81-1.06ZM24.38,19.48c0,.05-.01.1-.02.15.02-.04.02-.09.02-.15Z"/>
                </g>
              </g>
              <path class="cls-2" d="M17.52,15.02c-3.1,0-5.62-2.2-5.62-4.92h11.24c0,2.72-2.52,4.92-5.62,4.92Z"/>
              <g>
                <g>
                  <path d="M17.5,11.7c-3.24,0-5.87-.71-5.87-1.6h11.74c0,.88-2.63,1.6-5.87,1.6Z"/>
                  <rect class="cls-8" x="11.63" y="8.16" width="11.74" height="1.94"/>
                  <rect class="cls-19" x="11.63" y="8.79" width="11.74" height=".88"/>
                  <rect class="cls-16" x="11.63" y="8.16" width="11.74" height=".62"/>
                  <path class="cls-12" d="M23.37,8.16l-1.03,1.94h1.03v-1.94ZM11.63,8.16v1.94h1.03l-1.03-1.94Z"/>
                  <path class="cls-9" d="M17.46,2.67c7.01,0,8.95,3.2,8.95,4.03s-3.03,1.45-3.03,1.45h-11.74s-3.12-.72-3.12-1.45,1.94-4.03,8.95-4.03Z"/>
                  <path class="cls-10" d="M17.46,4.5c-6.12,0-8.37,1.68-8.85,2.43-.06-.07-.1-.15-.1-.23,0-.73,1.94-4.03,8.95-4.03s8.95,3.2,8.95,4.03c0,.08-.04.16-.09.23-.44-.77-2.67-2.43-8.86-2.43Z"/>
                </g>
                <rect class="cls-8" x="15.49" y="3.38" width="4.07" height="4.07" rx=".7" ry=".7"/>
                <rect x="15.89" y="3.78" width="3.26" height="3.26"/>
                <path class="cls-19" d="M16.11,5.42c0,.54.38.85.77.99.58.2.64.44.64.44,0,0,.06-.24.64-.44.4-.14.77-.45.77-.99,0-.17-.14-.46-.14-.5l-.21.45s.17.02.17.14c0,.38-.58.65-.97.65l-.14-1.29c.19-.05.33-.22.33-.42,0-.25-.2-.45-.45-.45-.25,0-.45.2-.45.45,0,.21.14.37.33.42l-.14,1.29c-.38,0-.97-.27-.97-.65,0-.13.17-.14.17-.14l-.21-.45s-.14.33-.14.5ZM17.3,4.44c0-.12.1-.22.22-.22.12,0,.22.1.22.22s-.1.22-.22.22c-.12,0-.22-.1-.22-.22Z"/>
              </g>
            </g>
          </g>
        </g>
      </g>
    </g>
  </g>
</svg>