<?xml version="1.0" encoding="UTF-8"?>
<svg xmlns="http://www.w3.org/2000/svg" xmlns:xlink="http://www.w3.org/1999/xlink" viewBox="0 0 35 35">
  <defs>
    <style>
      .cls-1 {
        fill: url(#linear-gradient-2);
      }

      .cls-1, .cls-2, .cls-3, .cls-4, .cls-5, .cls-6, .cls-7, .cls-8, .cls-9 {
        mix-blend-mode: multiply;
      }

      .cls-1, .cls-3, .cls-4, .cls-5, .cls-6, .cls-9 {
        opacity: .5;
      }

      .cls-10 {
        fill: #c5a4cf;
      }

      .cls-11, .cls-12 {
        fill: #fff;
      }

      .cls-13 {
        fill: url(#linear-gradient-4);
      }

      .cls-14 {
        fill: url(#linear-gradient-5);
      }

      .cls-15 {
        isolation: isolate;
      }

      .cls-2 {
        fill: url(#linear-gradient-10);
      }

      .cls-2, .cls-12, .cls-8 {
        opacity: .3;
      }

      .cls-16 {
        fill: #1a1a1a;
      }

      .cls-17 {
        fill: none;
        opacity: 0;
      }

      .cls-18 {
        fill: #f1b14f;
      }

      .cls-3 {
        fill: url(#linear-gradient-9);
      }

      .cls-4 {
        fill: url(#linear-gradient-11);
      }

      .cls-19 {
        fill: url(#linear-gradient-6);
      }

      .cls-20 {
        fill: #e46a5d;
      }

      .cls-5 {
        fill: url(#linear-gradient-3);
      }

      .cls-12 {
        mix-blend-mode: overlay;
      }

      .cls-6 {
        fill: url(#linear-gradient-8);
      }

      .cls-7 {
        fill: #d6be89;
      }

      .cls-21 {
        fill: url(#linear-gradient);
      }

      .cls-9 {
        fill: url(#linear-gradient-7);
      }
    </style>
    <linearGradient id="linear-gradient" x1="1972.24" y1="-16596.6" x2="1972.24" y2="-16603.19" gradientTransform="translate(1989.72 -16574.54) rotate(-180)" gradientUnits="userSpaceOnUse">
      <stop offset="0" stop-color="#89695e"/>
      <stop offset="1" stop-color="#795547"/>
    </linearGradient>
    <linearGradient id="linear-gradient-2" x1="1972.24" y1="-16600.48" x2="1972.24" y2="-16603.91" xlink:href="#linear-gradient"/>
    <linearGradient id="linear-gradient-3" x1="1969.5" y1="-16597.2" x2="1974.98" y2="-16597.2" xlink:href="#linear-gradient"/>
    <linearGradient id="linear-gradient-4" x1="1968.76" y1="-16590.61" x2="1965.63" y2="-16589.9" xlink:href="#linear-gradient"/>
    <linearGradient id="linear-gradient-5" x1="1976.62" y1="-16588.63" x2="1977.41" y2="-16592.12" xlink:href="#linear-gradient"/>
    <linearGradient id="linear-gradient-6" x1="1972.23" y1="-16597.95" x2="1972.23" y2="-16585.85" xlink:href="#linear-gradient"/>
    <linearGradient id="linear-gradient-7" x1="1971.5" y1="-16592.63" x2="1972.95" y2="-16592.63" xlink:href="#linear-gradient"/>
    <linearGradient id="linear-gradient-8" x1="1973.41" y1="-16589.62" x2="1975.49" y2="-16589.62" xlink:href="#linear-gradient"/>
    <linearGradient id="linear-gradient-9" x1="1970.59" y1="-16594.11" x2="1973.92" y2="-16594.11" xlink:href="#linear-gradient"/>
    <linearGradient id="linear-gradient-10" x1="1970.61" y1="-16594.75" x2="1973.9" y2="-16594.75" xlink:href="#linear-gradient"/>
    <linearGradient id="linear-gradient-11" x1="1972.23" y1="-16588.8" x2="1972.23" y2="-16583.15" xlink:href="#linear-gradient"/>
  </defs>
  <g class="cls-15">
    <g id="Lager_2" data-name="Lager 2">
      <g id="Layer_2" data-name="Layer 2">
        <g>
          <circle class="cls-17" cx="17.5" cy="17.5" r="17.5"/>
          <g>
            <g>
              <g>
                <path class="cls-20" d="M17.49,35c-4.26,0-8.16-1.52-11.2-4.05,2.24-3.54,6.41-5.92,11.2-5.92s8.96,2.38,11.2,5.92c-3.03,2.53-6.94,4.05-11.2,4.05Z"/>
                <path class="cls-10" d="M12.24,26.05c1.61-.66,3.38-1.03,5.26-1.03s3.62.36,5.22,1.01v5.53h-10.47v-5.51Z"/>
                <path class="cls-21" d="M14.59,23.79c.39-1.44.33-2.5.33-2.5h5.12s-.06,1.06.33,2.5c.24.88.49,1.38.95,1.75v4.62h-7.67v-4.62c.46-.38.72-.87.95-1.75Z"/>
                <polygon class="cls-1" points="14.08 29.63 20.92 29.63 21.31 25.55 21.31 30.16 13.64 30.16 13.64 25.55 14.08 29.63"/>
                <g>
                  <path class="cls-18" d="M17.41,26.19c2.08,0,3.55-.83,3.62-.86.17-.1.23-.31.13-.48-.09-.17-.31-.23-.48-.13-.01,0-1.38.77-3.27.77s-3.09-.75-3.1-.76c-.16-.1-.38-.06-.48.1-.1.16-.06.38.1.48.05.04,1.36.87,3.48.87Z"/>
                  <path class="cls-18" d="M17.41,25.28c1.93,0,3.29-.83,3.34-.87.16-.1.21-.32.11-.48-.1-.16-.32-.21-.48-.11-.01,0-1.26.76-2.97.76s-2.8-.74-2.81-.75c-.16-.11-.38-.07-.49.08-.11.16-.07.38.08.49.05.04,1.26.88,3.22.88Z"/>
                  <path class="cls-18" d="M17.42,24.37c1.77,0,3.02-.84,3.07-.88.16-.11.2-.33.09-.49-.11-.16-.33-.2-.49-.09-.02.02-1.14.75-2.68.75s-2.52-.73-2.53-.74c-.15-.12-.37-.09-.49.06-.12.15-.09.37.06.49.05.04,1.16.89,2.96.89Z"/>
                </g>
                <path class="cls-5" d="M20.22,23.18c-.59.45-1.46.84-2.74.84s-2.15-.39-2.74-.84c.22-1.12.18-1.88.18-1.88h2.56s0,0,0,0h2.56s-.04.77.18,1.88Z"/>
              </g>
              <path class="cls-12" d="M21.3,25.55c.07.07.14.15.21.21.02.01.03.03.04.05,2.46,1.52,4.6,4.06,6.16,5.9.34-.24.67-.5.99-.76-1.62-2.56-4.26-4.51-7.4-5.4ZM6.3,30.95c.32.27.65.52.99.76,1.49-1.75,3.51-4.15,5.83-5.69.2-.16.42-.3.61-.48-3.16.88-5.8,2.84-7.43,5.4Z"/>
            </g>
            <g>
              <g>
                <path class="cls-18" d="M19.85,19.43c0-1.08.88-1.96,1.96-1.96s1.96.88,1.96,1.96-.88,1.96-1.96,1.96-1.96-.88-1.96-1.96ZM20.2,19.43c0,.89.72,1.61,1.61,1.61s1.61-.72,1.61-1.61-.72-1.61-1.61-1.61-1.61.72-1.61,1.61Z"/>
                <path class="cls-18" d="M10.76,19.43c0-1.08.88-1.96,1.96-1.96s1.96.88,1.96,1.96-.88,1.96-1.96,1.96-1.96-.88-1.96-1.96ZM11.11,19.43c0,.89.72,1.61,1.61,1.61s1.61-.72,1.61-1.61-.72-1.61-1.61-1.61-1.61.72-1.61,1.61Z"/>
                <path class="cls-13" d="M21.27,15.57c-.22,1.03.05,1.95.6,2.07.55.12,1.17-.62,1.39-1.65.22-1.03-.05-1.95-.6-2.07-.55-.12-1.17.62-1.39,1.65Z"/>
                <path class="cls-14" d="M13.71,15.57c.22,1.03-.05,1.95-.6,2.07-.55.12-1.17-.62-1.39-1.65-.22-1.03.05-1.95.6-2.07.55-.12,1.17.62,1.39,1.65Z"/>
                <path class="cls-19" d="M12.28,14.1c0,3.39,2.33,8.57,5.21,8.57s5.21-5.18,5.21-8.57c0-5.29-2.33-7.84-5.21-7.84s-5.21,2.55-5.21,7.84Z"/>
                <g>
                  <path class="cls-9" d="M17.83,18.29h-.69c-.21,0-.38-.17-.38-.39h1.45c0,.22-.17.39-.38.39Z"/>
                  <path class="cls-7" d="M17.94,17.9h-.27c0,.08.06.14.13.14s.13-.06.13-.14ZM17.04,17.9c0,.08.06.14.13.14s.13-.06.13-.14h-.27Z"/>
                </g>
                <g>
                  <path class="cls-6" d="M14.22,15.09c0,.58.47,1.04,1.04,1.04s1.04-.47,1.04-1.04-.47-1.04-1.04-1.04-1.04.47-1.04,1.04ZM18.67,15.09c0,.58.47,1.04,1.04,1.04s1.04-.47,1.04-1.04-.47-1.04-1.04-1.04-1.04.47-1.04,1.04Z"/>
                  <path d="M19.05,15.09h0c0,.37.3.67.67.67s.67-.3.67-.67h0c0-.37-.3-.67-.67-.67s-.67.3-.67.67ZM14.6,15.09h0c0,.37.3.67.67.67s.67-.3.67-.67h0c0-.37-.3-.67-.67-.67s-.67.3-.67.67Z"/>
                  <path d="M18.82,14.19s.09-.03.12,0l.69.69v-.98s.04-.09.09-.09.09.04.09.09v.98l.69-.69s.09-.03.12,0c.03.03.03.09,0,.12l-.84.84h0s-.04.03-.06.03-.05,0-.06-.03h0l-.84-.84s-.03-.09,0-.12Z"/>
                  <path d="M14.37,14.19s.09-.03.12,0l.69.69v-.98s.04-.09.09-.09.09.04.09.09v.98l.69-.69s.09-.03.12,0c.03.03.03.09,0,.12l-.84.84h0s-.04.03-.06.03-.05,0-.06-.03h0l-.84-.84s-.03-.09,0-.12Z"/>
                  <path class="cls-11" d="M19.81,15.09c0,.12.1.22.22.22s.22-.1.22-.22-.1-.22-.22-.22-.22.1-.22.22ZM15.33,15.09c0,.12.1.22.22.22s.22-.1.22-.22-.1-.22-.22-.22-.22.1-.22.22Z"/>
                </g>
                <g>
                  <path class="cls-3" d="M16.68,19.13c.31,0,.59.12.78.31.19-.19.47-.31.78-.31.38,0,.71.17.89.43-.41.28-1,.45-1.67.45s-1.26-.18-1.67-.45c.18-.26.51-.43.89-.43Z"/>
                  <path class="cls-2" d="M17.46,20.02c-.66,0-1.24-.17-1.64-.44.08.72.79,1.28,1.64,1.28s1.56-.56,1.64-1.28c-.41.27-.99.44-1.64.44Z"/>
                </g>
                <path d="M18.41,13.36c.06.1.19.13.29.07.65-.39,1.51-.38,2.15.04.03.02.07.03.11.03.07,0,.14-.03.18-.1.06-.1.03-.23-.06-.29-.77-.5-1.81-.51-2.59-.04-.1.06-.13.19-.07.29ZM13.87,13.36c.06.1.19.13.29.07.65-.39,1.51-.38,2.15.04.03.02.07.03.11.03.07,0,.14-.03.18-.1.06-.1.03-.23-.06-.29-.77-.5-1.81-.51-2.59-.04-.1.06-.13.19-.07.29Z"/>
              </g>
              <path class="cls-16" d="M17.48,6.88c2.88,0,5.21,1.85,5.21,7.14,0,.04,0,.08,0,.12-.3-1.37-.95-2.82-1.87-3.56-.34.88-1.24,1.47-2.13,1.69-.99.24-1.9.04-2.72-.55.56.15,1.13.3,1.72.22.75-.09,1.39-.39,2.01-.82-1.68.68-3.87.58-5.38-.48-.11-.08-.12-.15-.24-.05-.08.07-.16.14-.24.21-.16.14-.31.29-.45.45-.28.32-.52.67-.72,1.05-.16.3-.29.75-.39,1.24.14-4.92,2.41-6.66,5.2-6.66Z"/>
              <path class="cls-4" d="M17.49,6.25c2.81,0,5.09,2.44,5.2,7.48-.02.06-.05.12-.07.18,0,0-1.11-3.5-5.12-4.33-4.01.84-5.13,4.33-5.13,4.33-.03-.06-.05-.12-.07-.18.11-5.04,2.39-7.48,5.2-7.48Z"/>
              <g>
                <g>
                  <path class="cls-10" d="M11.23,9.84s0-.04,0-.1c0,.03,0,.06,0,.1h0Z"/>
                  <path class="cls-10" d="M17.45,3.55s-.07,0-.1,0c.06,0,.11,0,.17,0h0c.06,0,.11,0,.17,0-.03,0-.07,0-.1,0,6.39.06,7.52,4.68,5.08,10.36,0,0-1.12-4.03-5.15-4.88-4.03.85-5.15,4.88-5.15,4.88-2.45-5.69-1.31-10.3,5.08-10.36Z"/>
                  <path class="cls-12" d="M23.79,7.9c-.86-1.8-2.85-2.92-6.19-2.95.04,0,.07,0,.11,0-.06,0-.12,0-.18,0h0c-.06,0-.12,0-.18,0,.04,0,.07,0,.11,0-3.34.03-5.33,1.15-6.19,2.95.39-2.61,2.32-4.32,6.19-4.35-.03,0-.07,0-.1,0,.06,0,.11,0,.17,0h0c.06,0,.11,0,.17,0-.03,0-.07,0-.1,0,3.87.04,5.81,1.75,6.19,4.35Z"/>
                </g>
                <g class="cls-8">
                  <path class="cls-10" d="M21.92,9.3l1.95.54c-.02.14-.03.29-.06.44l-1.62-.45c-1.53-.52-2.83-.68-3.94-.62-.22-.07-.46-.14-.7-.19,1.19-.25,2.63-.22,4.37.27Z"/>
                  <path class="cls-10" d="M17.55,3.54c-.07,0-.13,0-.2,0,.06,0,.11,0,.17,0,.01,0,.02,0,.03,0Z"/>
                </g>
                <g class="cls-8">
                  <path class="cls-10" d="M13.18,9.3l-1.95.54c.02.14.03.29.06.44l1.62-.45c1.53-.52,2.83-.68,3.94-.62.22-.07.46-.14.7-.19-1.19-.25-2.63-.22-4.37.27Z"/>
                  <path class="cls-10" d="M17.55,3.54c.07,0,.13,0,.2,0-.06,0-.11,0-.17,0-.01,0-.02,0-.03,0Z"/>
                </g>
              </g>
            </g>
          </g>
        </g>
      </g>
    </g>
  </g>
</svg>