<?xml version="1.0" encoding="UTF-8"?>
<svg xmlns="http://www.w3.org/2000/svg" xmlns:xlink="http://www.w3.org/1999/xlink" viewBox="0 0 35 35">
  <defs>
    <style>
      .cls-1, .cls-2, .cls-3, .cls-4 {
        mix-blend-mode: multiply;
      }

      .cls-1, .cls-3 {
        opacity: .5;
      }

      .cls-1, .cls-5 {
        fill: #fbc288;
      }

      .cls-2, .cls-6 {
        fill: #e46a5d;
      }

      .cls-2, .cls-7, .cls-8 {
        opacity: .3;
      }

      .cls-9 {
        fill: #f2f2f2;
      }

      .cls-3 {
        fill: #e3d8cc;
      }

      .cls-10, .cls-11, .cls-7 {
        fill: #fff;
      }

      .cls-12 {
        isolation: isolate;
      }

      .cls-11 {
        mix-blend-mode: screen;
      }

      .cls-13 {
        fill: #1a1a1a;
      }

      .cls-14 {
        fill: none;
        opacity: 0;
      }

      .cls-15 {
        fill: #f1b14f;
      }

      .cls-7, .cls-8 {
        mix-blend-mode: overlay;
      }

      .cls-4 {
        fill: #d6be89;
      }

      .cls-16 {
        fill: url(#linear-gradient);
      }

      .cls-17 {
        fill: #663f30;
      }
    </style>
    <linearGradient id="linear-gradient" x1="1943.57" y1="-16152.48" x2="1943.57" y2="-16162.66" gradientTransform="translate(1961.07 -16145.78) rotate(-180)" gradientUnits="userSpaceOnUse">
      <stop offset="0" stop-color="#fbd099"/>
      <stop offset="1" stop-color="#fbc288"/>
    </linearGradient>
  </defs>
  <g class="cls-12">
    <g id="Lager_2" data-name="Lager 2">
      <g id="Layer_2" data-name="Layer 2">
        <g>
          <circle class="cls-14" cx="17.5" cy="17.5" r="17.5"/>
          <g>
            <g>
              <g>
                <g>
                  <path class="cls-6" d="M13.14,23.05h8.72c5.27,0,8.31,4.51,8.31,6.47,0,.03,0,.05,0,.08-3.2,3.33-7.69,5.4-12.66,5.4s-9.47-2.07-12.66-5.4c0-.03,0-.05,0-.08,0-1.96,3.04-6.47,8.31-6.47Z"/>
                  <path class="cls-7" d="M29.85,29.92c-.91-1.61-3.72-3.82-7.98-3.82h-8.72c-4.27,0-7.07,2.2-7.98,3.82-.11-.11-.22-.21-.32-.32,0-.03,0-.05,0-.08,0-1.96,3.04-6.47,8.31-6.47h8.72c5.27,0,8.31,4.51,8.31,6.47,0,.03,0,.05,0,.08-.1.11-.22.21-.32.32Z"/>
                </g>
                <path class="cls-2" d="M8.28,24.86c0-.12,0-.23.01-.35,1.29-.86,2.92-1.47,4.85-1.47h8.72c1.93,0,3.56.61,4.86,1.47,0,.11.01.23.01.34,0,3.68-4.13,6.66-9.22,6.66s-9.22-2.98-9.22-6.66Z"/>
                <ellipse class="cls-9" cx="17.5" cy="24.38" rx="8.94" ry="6.53"/>
                <path class="cls-3" d="M17.5,29.55c4.77,0,8.67-2.45,8.93-5.52,0,.12.01.24.01.36,0,3.6-4,6.53-8.94,6.53s-8.94-2.92-8.94-6.53c0-.12,0-.24.01-.36.26,3.08,4.16,5.52,8.93,5.52Z"/>
                <path class="cls-11" d="M17.5,20.3c-4.63,0-8.43,2.08-8.9,4.75-.03-.22-.05-.45-.05-.68,0-3.6,4-6.53,8.94-6.53s8.94,2.92,8.94,6.53c0,.23-.02.45-.05.68-.46-2.67-4.27-4.75-8.9-4.75Z"/>
                <g>
                  <path class="cls-13" d="M15.74,23.48s.36.29.36.65-.36.65-.36.65c0,0-.36-.29-.36-.65s.36-.65.36-.65Z"/>
                  <path class="cls-13" d="M15.69,19.82s.36.29.36.65-.36.65-.36.65c0,0-.36-.29-.36-.65s.36-.65.36-.65Z"/>
                  <path class="cls-13" d="M15.74,26.63s.36.29.36.65-.36.65-.36.65c0,0-.36-.29-.36-.65s.36-.65.36-.65Z"/>
                  <path class="cls-13" d="M19.31,23.48s.36.29.36.65-.36.65-.36.65c0,0-.36-.29-.36-.65s.36-.65.36-.65Z"/>
                  <path class="cls-13" d="M13.89,21.62s.36.29.36.65-.36.65-.36.65c0,0-.36-.29-.36-.65s.36-.65.36-.65Z"/>
                  <path class="cls-13" d="M17.81,22.27c0,.36-.36.65-.36.65,0,0-.36-.29-.36-.65s.36-.65.36-.65c0,0,.36.29.36.65Z"/>
                  <path class="cls-13" d="M17.45,24.77s.36.29.36.65-.36.65-.36.65c0,0-.36-.29-.36-.65s.36-.65.36-.65Z"/>
                  <path class="cls-13" d="M10.32,24.77s.36.29.36.65-.36.65-.36.65c0,0-.36-.29-.36-.65s.36-.65.36-.65Z"/>
                  <path class="cls-13" d="M12.18,23.48s.36.29.36.65-.36.65-.36.65c0,0-.36-.29-.36-.65s.36-.65.36-.65Z"/>
                  <path class="cls-13" d="M13.89,27.92s.36.29.36.65-.36.65-.36.65c0,0-.36-.29-.36-.65s.36-.65.36-.65Z"/>
                  <path class="cls-13" d="M10.68,22.27c0,.36-.36.65-.36.65,0,0-.36-.29-.36-.65s.36-.65.36-.65c0,0,.36.29.36.65Z"/>
                  <path class="cls-13" d="M19.31,26.63s.36.29.36.65-.36.65-.36.65c0,0-.36-.29-.36-.65s.36-.65.36-.65Z"/>
                  <path class="cls-13" d="M13.89,24.77s.36.29.36.65-.36.65-.36.65c0,0-.36-.29-.36-.65s.36-.65.36-.65Z"/>
                  <path class="cls-13" d="M12.18,26.63s.36.29.36.65-.36.65-.36.65c0,0-.36-.29-.36-.65s.36-.65.36-.65Z"/>
                  <path class="cls-13" d="M12.13,19.82s.36.29.36.65-.36.65-.36.65c0,0-.36-.29-.36-.65s.36-.65.36-.65Z"/>
                  <path class="cls-13" d="M18.95,30.43c0-.36.36-.65.36-.65,0,0,.36.29.36.65,0,.11-.04.21-.08.3-.17.03-.34.05-.51.08-.07-.11-.12-.24-.12-.38Z"/>
                  <path class="cls-13" d="M24.23,28.68s-.01-.07-.01-.11c0-.36.36-.65.36-.65,0,0,.11.09.21.24-.17.18-.36.35-.56.52Z"/>
                  <path class="cls-13" d="M24.58,24.77s.36.29.36.65-.36.65-.36.65c0,0-.36-.29-.36-.65s.36-.65.36-.65Z"/>
                  <path class="cls-13" d="M19.26,19.82s.36.29.36.65-.36.65-.36.65c0,0-.36-.29-.36-.65s.36-.65.36-.65Z"/>
                  <path class="cls-13" d="M17.09,28.57c0-.36.36-.65.36-.65,0,0,.36.29.36.65s-.36.65-.36.65c0,0-.36-.29-.36-.65Z"/>
                  <path class="cls-13" d="M8.98,24.13c0,.36-.36.65-.36.65,0,0-.02-.02-.05-.04,0-.12-.01-.23-.01-.35,0-.3.03-.59.08-.88.08.07.34.32.34.63Z"/>
                  <path class="cls-13" d="M10.15,28.1c.09-.11.17-.18.17-.18,0,0,.36.29.36.65,0,.01,0,.02,0,.03-.19-.16-.36-.33-.52-.5Z"/>
                  <path class="cls-13" d="M15.39,30.43c0-.36.36-.65.36-.65,0,0,.36.29.36.65,0,.14-.06.28-.13.38-.17-.02-.34-.05-.5-.07-.05-.09-.09-.2-.09-.31Z"/>
                  <path class="cls-13" d="M26.07,24.13c0-.26.19-.48.29-.59.05.27.08.55.08.84,0,.13,0,.26-.02.39-.03-.03-.35-.3-.35-.64Z"/>
                  <path class="cls-13" d="M21.01,27.92s.36.29.36.65-.36.65-.36.65c0,0-.36-.29-.36-.65s.36-.65.36-.65Z"/>
                  <path class="cls-13" d="M24.58,22.92s-.36-.29-.36-.65.36-.65.36-.65c0,0,.36.29.36.65s-.36.65-.36.65Z"/>
                  <path class="cls-13" d="M21.01,24.77s.36.29.36.65-.36.65-.36.65c0,0-.36-.29-.36-.65s.36-.65.36-.65Z"/>
                  <path class="cls-13" d="M21.01,21.62s.36.29.36.65-.36.65-.36.65c0,0-.36-.29-.36-.65s.36-.65.36-.65Z"/>
                  <path class="cls-13" d="M22.82,19.82s.36.29.36.65-.36.65-.36.65c0,0-.36-.29-.36-.65s.36-.65.36-.65Z"/>
                  <path class="cls-13" d="M22.87,23.48s.36.29.36.65-.36.65-.36.65c0,0-.36-.29-.36-.65s.36-.65.36-.65Z"/>
                  <path class="cls-13" d="M22.87,26.63s.36.29.36.65-.36.65-.36.65c0,0-.36-.29-.36-.65s.36-.65.36-.65Z"/>
                </g>
              </g>
              <g>
                <g>
                  <rect class="cls-5" x="11" y="14.9" width="12.99" height="4.13" rx="1.39" ry="1.39"/>
                  <path class="cls-16" d="M17.5,6.61c3.09,0,5.6,2.51,5.6,5.6v6.48c0,5.89-2.51,7.67-5.6,7.67s-5.6-1.77-5.6-7.67v-6.48c0-3.09,2.51-5.6,5.6-5.6Z"/>
                  <path class="cls-1" d="M14.22,16.81c0,.58.47,1.05,1.05,1.05s1.05-.47,1.05-1.05-.47-1.05-1.05-1.05-1.05.47-1.05,1.05ZM18.68,16.81c0,.58.47,1.05,1.05,1.05s1.05-.47,1.05-1.05-.47-1.05-1.05-1.05-1.05.47-1.05,1.05Z"/>
                  <path d="M20.41,16.81h-1.35c0,.37.3.67.67.67s.67-.3.67-.67h0ZM14.59,16.81h0c0,.37.3.67.67.67s.67-.3.67-.67h-1.35Z"/>
                  <g>
                    <path class="cls-1" d="M17.97,20.23h-.93c-.29,0-.52-.23-.52-.52h1.98c0,.29-.23.52-.52.52Z"/>
                    <path class="cls-4" d="M18.11,19.71h-.36c0,.1.08.18.18.18s.18-.08.18-.18ZM16.88,19.71c0,.1.08.18.18.18s.18-.08.18-.18h-.36Z"/>
                  </g>
                  <g>
                    <path class="cls-10" d="M15.54,17.03c-.12,0-.22-.1-.22-.22h.44c0,.12-.1.22-.22.22Z"/>
                    <path class="cls-10" d="M20.05,17.03c-.12,0-.22-.1-.22-.22h.44c0,.12-.1.22-.22.22Z"/>
                  </g>
                  <g>
                    <path class="cls-17" d="M13.87,15.56c-.01-.08.02-.16.1-.21.78-.47,1.81-.45,2.57.04.07.05.11.13.09.21,0,0,0,.53,0,.53,0,.03-.01.06-.03.09-.04.06-.11.09-.17.09-.04,0-.08-.01-.11-.03-.63-.41-1.49-.42-2.14-.04-.1.06-.22.03-.28-.07-.02-.03-.02-.06-.03-.09,0,0,0-.5,0-.5,0,0,0,0,0-.01,0,0,0,0,0-.01,0,0,0,0,0-.01Z"/>
                    <path class="cls-17" d="M18.46,15.35c.78-.47,1.81-.45,2.57.04.07.05.11.13.09.21,0,0,0,.51,0,.51,0,0,0,0,0,.01,0,0,0,0,0,.01,0,.03-.01.06-.03.09-.04.06-.11.09-.17.09-.04,0-.08-.01-.11-.03-.63-.41-1.49-.42-2.14-.04-.1.06-.22.03-.28-.07-.02-.03-.02-.06-.03-.09,0,0,0,0,0-.01,0,0,0,0,0-.01,0,0,0,0,0-.01,0,0,0-.49,0-.49,0,0,0,0,0-.01-.01-.08.02-.16.1-.21Z"/>
                  </g>
                  <g class="cls-8">
                    <path class="cls-10" d="M17.5,6.61c-3.09,0-5.6,2.51-5.6,5.6,0-1.63,2.51-3.61,5.6-3.61s5.6,2.1,5.6,3.61c0-3.09-2.51-5.6-5.6-5.6Z"/>
                  </g>
                </g>
                <g>
                  <path class="cls-17" d="M17.52,21.39c0,2.51,6.84,2.58,6.84.91,0,1.75-6.84-3.6-6.84-.91ZM10.65,22.3c0,1.67,6.84,1.6,6.84-.91,0-2.69-6.84,2.66-6.84.91Z"/>
                  <path class="cls-7" d="M10.67,22.45c.05.19.19.35.4.49,1.42-.04,5.95-2.61,6.38-1.26.02-.09.04-.19.04-.29,0-2.6-6.38,2.3-6.81,1.06ZM10.65,22.3c0,.06,0,.11.02.15-.01-.05-.02-.1-.02-.15ZM17.52,21.39c0,.1.01.2.04.29.43-1.35,4.95,1.22,6.38,1.26.21-.14.35-.3.4-.49-.43,1.24-6.81-3.66-6.81-1.06ZM24.35,22.3c0,.05-.01.1-.02.15.02-.04.02-.09.02-.15Z"/>
                </g>
              </g>
            </g>
            <circle class="cls-15" cx="17.45" cy="33.04" r=".77"/>
            <path class="cls-1" d="M12.98,9.96s0,0,0,0l.03-.07v.03c1.02-1.37,2.65-2.25,4.48-2.25s3.47.89,4.49,2.25v-.03s.03.07.03.07c0,0,0,0,0,0l-.03-.07.86.67c.16.52.25,1.08.25,1.65v5.99h0v-4.93c0-.34-.03-.68-.09-1.01.03.17.05.35.07.52h0s0,.01,0,.02c0,.47-.5.85-1.12.85s-1.12-.38-1.12-.85c0,0,0-.01,0-.02h0s0,.01,0,.02c0,.47-.5.85-1.12.85s-1.12-.38-1.12-.85c0,0,0-.01,0-.02h0s0,.01,0,.02c0,.47-.5.85-1.12.85s-1.12-.38-1.12-.85c0,0,0-.01,0-.02h0s0,.01,0,.02c0,.47-.5.85-1.12.85s-1.12-.38-1.12-.85c0,0,0-.01,0-.02h0s0,.01,0,.02c0,.47-.5.85-1.12.85s-1.12-.38-1.12-.85c0,0,0-.01,0-.02h0c.02-.18.04-.35.07-.52-.06.33-.09.66-.09,1.01v-1.06c0-.57.09-1.13.25-1.65l.86-.67-.03.07Z"/>
            <path class="cls-17" d="M8.58,13.46c.27.2.62.2.89.02l-.6.79c-.05.06-.09.14-.12.22-.19.47.04,1.01.51,1.2.38.15.8.03,1.05-.27l-.31.76c-.03.09-.06.18-.07.28-.07.59.35,1.13.94,1.2.43.05.84-.16,1.05-.51v-4.93c0-.34.03-.68.09-1.01-.03.17-.05.35-.07.52h0s0,.01,0,.02c0,.47.5.85,1.12.85s1.12-.38,1.12-.85c0,0,0-.01,0-.02h0s0,.01,0,.02c0,.47.5.85,1.12.85s1.12-.38,1.12-.85c0,0,0-.01,0-.02h0s0,.01,0,.02c0,.47.5.85,1.12.85s1.12-.38,1.12-.85c0,0,0-.01,0-.02h0s0,.01,0,.02c0,.47.5.85,1.12.85s1.12-.38,1.12-.85c0,0,0-.01,0-.02h0s0,.01,0,.02c0,.47.5.85,1.12.85s1.12-.38,1.12-.85c0,0,0-.01,0-.02h0c-.02-.18-.04-.35-.07-.52.06.33.09.66.09,1.01v4.93c.21.35.62.56,1.05.51.59-.07,1.01-.61.94-1.2-.01-.1-.04-.19-.07-.28l-.31-.76c.25.3.67.42,1.05.27.47-.19.7-.73.51-1.2-.03-.08-.07-.15-.12-.22l-.6-.79c.26.18.62.19.89-.02.33-.25.4-.73.15-1.06-.04-.05-.09-.1-.14-.14l-4.44-3.42.03.07s0,0,0,0l-.03-.07v.03c-1.02-1.37-2.65-2.25-4.48-2.25s-3.47.89-4.49,2.25v-.03s-.03.07-.03.07c0,0,0,0,0,0l.03-.07-4.44,3.42c-.05.04-.1.09-.14.14-.25.33-.19.81.15,1.06ZM23,11.17c-.03-.15-.06-.3-.1-.44.04.14.07.29.1.44ZM22.48,9.66s-.05-.08-.07-.13c.02.04.05.08.07.13ZM22.69,10.11c-.03-.08-.07-.16-.11-.24.04.08.07.16.11.24ZM22.86,10.61c-.03-.11-.07-.22-.11-.33.04.11.08.22.11.33ZM12.52,9.66s.05-.08.07-.13c-.02.04-.05.08-.07.13ZM12.31,10.11c.03-.08.07-.16.11-.24-.04.08-.07.16-.11.24ZM12.14,10.61c.03-.11.07-.22.11-.33-.04.11-.08.22-.11.33ZM12,11.17c.03-.15.06-.3.1-.44-.04.14-.07.29-.1.44Z"/>
            <g>
              <path class="cls-15" d="M12.53,3.48c0-.3.25-.55.55-.55s.55.25.55.55c0,.24-.15.43-.36.51l.94,2.29.85-2.31c-.18-.09-.31-.28-.31-.49,0-.3.25-.55.55-.55s.55.25.55.55c0,.25-.17.46-.39.52l.92,2.28.92-2.3c-.19-.09-.32-.28-.32-.5,0-.3.25-.55.55-.55s.55.25.55.55c0,.24-.16.44-.37.52l.89,2.28.95-2.29c-.2-.08-.34-.28-.34-.51,0-.3.25-.55.55-.55s.55.25.55.55c0,.24-.15.44-.36.51l.84,2.29.98-2.29c-.2-.08-.33-.28-.33-.51,0-.3.25-.55.55-.55s.55.25.55.55-.25.55-.55.55v4.8h-8.9v-4.8c-.29,0-.53-.25-.53-.55Z"/>
              <g>
                <path class="cls-10" d="M19,8.06c-.36,0-.65-.29-.65-.65s.29-.65.65-.65.65.29.65.65-.29.65-.65.65Z"/>
                <path class="cls-10" d="M21.32,7.42c0-.36.29-.65.65-.65v1.29c-.36,0-.65-.29-.65-.65Z"/>
                <path class="cls-10" d="M16.68,7.42c0,.36-.29.65-.65.65s-.65-.29-.65-.65.29-.65.65-.65.65.29.65.65Z"/>
                <path class="cls-10" d="M13.71,7.42c0,.36-.29.65-.65.65v-1.29c.36,0,.65.29.65.65Z"/>
              </g>
              <path class="cls-6" d="M21.51,7.42c0,.25.2.45.45.45s.45-.2.45-.45-.2-.45-.45-.45-.45.2-.45.45Z"/>
              <path class="cls-6" d="M18.55,7.42c0,.25.2.45.45.45s.45-.2.45-.45-.2-.45-.45-.45-.45.2-.45.45Z"/>
              <path class="cls-6" d="M15.58,7.42c0,.25.2.45.45.45s.45-.2.45-.45-.2-.45-.45-.45-.45.2-.45.45Z"/>
              <path class="cls-6" d="M12.61,7.42c0,.25.2.45.45.45s.45-.2.45-.45-.2-.45-.45-.45-.45.2-.45.45Z"/>
            </g>
          </g>
        </g>
      </g>
    </g>
  </g>
</svg>