<?xml version="1.0" encoding="UTF-8"?>
<svg xmlns="http://www.w3.org/2000/svg" xmlns:xlink="http://www.w3.org/1999/xlink" viewBox="0 0 35 35">
  <defs>
    <style>
      .cls-1 {
        opacity: .5;
      }

      .cls-1, .cls-2, .cls-3, .cls-4, .cls-5, .cls-6 {
        mix-blend-mode: multiply;
      }

      .cls-1, .cls-7 {
        fill: #fbc288;
      }

      .cls-2, .cls-8 {
        fill: #e46a5d;
      }

      .cls-2, .cls-9, .cls-10, .cls-5 {
        opacity: .3;
      }

      .cls-11 {
        fill: #f2f2f2;
      }

      .cls-3 {
        opacity: .2;
      }

      .cls-3, .cls-12 {
        fill: #663f30;
      }

      .cls-13, .cls-9 {
        fill: #fff;
      }

      .cls-14 {
        isolation: isolate;
      }

      .cls-15 {
        fill: none;
        opacity: 0;
      }

      .cls-16, .cls-6 {
        fill: #f1b14f;
      }

      .cls-17 {
        fill: #1c90bf;
      }

      .cls-9, .cls-10 {
        mix-blend-mode: overlay;
      }

      .cls-4 {
        fill: #d6be89;
      }

      .cls-18 {
        fill: url(#linear-gradient);
      }

      .cls-6 {
        opacity: .4;
      }
    </style>
    <linearGradient id="linear-gradient" x1="1567.5" y1="-15957.27" x2="1567.5" y2="-15967.44" gradientTransform="translate(1585 -15951.62) rotate(-180)" gradientUnits="userSpaceOnUse">
      <stop offset="0" stop-color="#fbd099"/>
      <stop offset="1" stop-color="#fbc288"/>
    </linearGradient>
  </defs>
  <g class="cls-14">
    <g id="Lager_2" data-name="Lager 2">
      <g id="Layer_2" data-name="Layer 2">
        <g>
          <circle class="cls-15" cx="17.5" cy="17.5" r="17.5"/>
          <g>
            <g>
              <path class="cls-16" d="M13.14,23.05h8.72c5.27,0,8.31,4.51,8.31,6.47,0,.03,0,.05,0,.08-3.2,3.33-7.69,5.4-12.66,5.4s-9.47-2.07-12.66-5.4c0-.03,0-.05,0-.08,0-1.96,3.04-6.47,8.31-6.47Z"/>
              <path class="cls-9" d="M29.85,29.92c-.91-1.61-3.72-3.82-7.98-3.82h-8.72c-4.27,0-7.07,2.2-7.98,3.82-.11-.11-.22-.21-.32-.32,0-.03,0-.05,0-.08,0-1.96,3.04-6.47,8.31-6.47h8.72c5.27,0,8.31,4.51,8.31,6.47,0,.03,0,.05,0,.08-.11.11-.22.21-.32.32Z"/>
              <path class="cls-6" d="M17.51,34.79l-10.64-9.1c1.42-1.44,3.55-2.65,6.27-2.65h8.72c2.73,0,4.86,1.22,6.28,2.66l-10.63,9.09Z"/>
              <path class="cls-16" d="M29.69,21.83l-12.18,12.96-12.19-12.97c2.97-2.65,7.32-4.33,12.18-4.33s9.22,1.68,12.19,4.33Z"/>
              <path class="cls-6" d="M27.23,20.04l-9.72,14.75h0s-9.72-14.76-9.72-14.76c2.7-1.59,6.07-2.53,9.71-2.53s7.02.95,9.72,2.54Z"/>
              <path class="cls-7" d="M13.81,26.2v-3.35h7.41v3.72c0,2.05-3.72,4.79-3.72,4.79,0,0-3.72-2.74-3.72-4.79,0-.13,0-.25.02-.37Z"/>
              <path class="cls-11" d="M17.5,27.11c1.34,0,2.6-.16,3.71-.43-.12,2.04-3.71,4.69-3.71,4.69,0,0-3.59-2.65-3.71-4.69,1.11.28,2.37.43,3.71.43Z"/>
              <g>
                <path class="cls-17" d="M17.44,30.06c.58,0,1.14-.03,1.69-.09-.22.21-.44.41-.63.58-.34.02-.69.03-1.05.03-.31,0-.61,0-.91-.02-.2-.17-.41-.37-.63-.58.5.05,1.01.08,1.54.08Z"/>
                <path class="cls-17" d="M14.26,28c-.12-.21-.22-.41-.3-.62,1.05.25,2.24.39,3.48.39s2.53-.16,3.62-.43c-.08.21-.18.41-.29.62-1.01.21-2.14.34-3.33.34s-2.21-.11-3.18-.3Z"/>
                <path class="cls-17" d="M17.44,28.92c1.01,0,1.98-.1,2.87-.27-.16.21-.34.42-.52.63-.74.1-1.53.16-2.35.16-.77,0-1.5-.05-2.2-.14-.18-.2-.35-.41-.51-.62.85.15,1.77.23,2.72.23Z"/>
              </g>
            </g>
            <g>
              <g>
                <path class="cls-7" d="M12.4,13.85h10.2c.77,0,1.39.62,1.39,1.39v1.34c0,.77-.62,1.39-1.39,1.39h-10.2c-.77,0-1.39-.62-1.39-1.39v-1.34c0-.77.62-1.39,1.39-1.39Z"/>
                <path class="cls-18" d="M17.5,5.56c3.09,0,5.6,2.51,5.6,5.6v6.48c0,5.89-2.51,7.67-5.6,7.67s-5.6-1.77-5.6-7.67v-6.48c0-3.09,2.51-5.6,5.6-5.6Z"/>
                <path class="cls-1" d="M14.22,15.76c0,.58.47,1.05,1.05,1.05s1.05-.47,1.05-1.05-.47-1.05-1.05-1.05-1.05.47-1.05,1.05ZM18.68,15.76c0,.58.47,1.05,1.05,1.05s1.05-.47,1.05-1.05-.47-1.05-1.05-1.05-1.05.47-1.05,1.05Z"/>
                <path d="M20.41,15.76h-1.35c0,.37.3.67.67.67s.67-.3.67-.67h0ZM14.59,15.76h0c0,.37.3.67.67.67s.67-.3.67-.67h-1.35Z"/>
                <g>
                  <path class="cls-1" d="M17.97,19.18h-.93c-.29,0-.52-.23-.52-.52h1.98c0,.29-.23.52-.52.52Z"/>
                  <path class="cls-4" d="M18.11,18.66h-.36c0,.1.08.18.18.18s.18-.08.18-.18ZM16.88,18.66c0,.1.08.18.18.18s.18-.08.18-.18h-.36Z"/>
                </g>
                <g>
                  <path class="cls-13" d="M15.54,15.98c-.12,0-.22-.1-.22-.22h.44c0,.12-.1.22-.22.22Z"/>
                  <path class="cls-13" d="M20.05,15.98c-.12,0-.22-.1-.22-.22h.44c0,.12-.1.22-.22.22Z"/>
                </g>
                <g>
                  <path class="cls-12" d="M13.87,14.51c-.01-.08.02-.16.1-.21.78-.47,1.81-.45,2.57.04.07.05.11.13.09.21,0,0,0,.53,0,.53,0,.03-.01.06-.03.09-.04.06-.11.09-.17.09-.04,0-.08-.01-.11-.03-.63-.41-1.49-.42-2.14-.04-.1.06-.22.03-.28-.07-.02-.03-.02-.06-.03-.09,0,0,0-.5,0-.5,0,0,0,0,0-.01,0,0,0,0,0-.01,0,0,0,0,0-.01Z"/>
                  <path class="cls-12" d="M18.46,14.3c.78-.47,1.81-.45,2.57.04.07.05.11.13.09.21,0,0,0,.51,0,.51,0,0,0,0,0,.01,0,0,0,0,0,.01,0,.03-.01.06-.03.09-.04.06-.11.09-.17.09-.04,0-.08-.01-.11-.03-.63-.41-1.49-.42-2.14-.04-.1.06-.22.03-.28-.07-.02-.03-.02-.06-.03-.09,0,0,0,0,0-.01,0,0,0,0,0-.01,0,0,0,0,0-.01,0,0,0-.49,0-.49,0,0,0,0,0-.01-.01-.08.02-.16.1-.21Z"/>
                </g>
                <g class="cls-10">
                  <path class="cls-13" d="M17.5,5.56c-3.09,0-5.6,2.51-5.6,5.6,0-1.63,2.51-3.61,5.6-3.61s5.6,2.1,5.6,3.61c0-3.09-2.51-5.6-5.6-5.6Z"/>
                </g>
              </g>
              <g>
                <rect class="cls-8" x="11.32" y="10.43" width="12.35" height="3.78"/>
                <path class="cls-9" d="M23.68,10.43h-1.38v3.78h1.38v-3.78ZM11.32,10.43v3.78h1.38v-3.78h-1.38Z"/>
                <path class="cls-8" d="M23.17,10.43h-11.33c.33-2.09,1.8-3.81,3.74-4.5-.02-.11-.03-.22-.03-.34,0-1.08.87-1.95,1.95-1.95s1.95.87,1.95,1.95c0,.12-.01.23-.03.34,1.95.69,3.41,2.41,3.74,4.5Z"/>
                <path class="cls-9" d="M17.5,3.64c.82,0,1.48.87,1.48,1.95,0,.12,0,.23-.02.34,1.48.69,2.59,2.41,2.85,4.5h1.36c-.33-2.09-1.8-3.81-3.74-4.5.02-.11.03-.22.03-.34,0-1.08-.87-1.95-1.95-1.95ZM11.83,10.43h1.36c.25-2.09,1.36-3.81,2.85-4.5-.01-.11-.02-.22-.02-.34,0-1.08.66-1.95,1.48-1.95-1.08,0-1.95.87-1.95,1.95,0,.12.01.23.03.34-1.95.69-3.41,2.41-3.74,4.5Z"/>
                <path class="cls-2" d="M23.25,10.43h-.3v3.77h.3v-3.77ZM22.59,10.43h-.3v3.77h.3v-3.77ZM21.93,10.43h-.3v3.77h.3v-3.77ZM21.26,10.43h-.3v3.77h.3v-3.77ZM20.6,10.43h-.3v3.77h.3v-3.77ZM19.93,10.43h-.3v3.77h.3v-3.77ZM19.27,10.43h-.3v3.77h.3v-3.77ZM18.61,10.43h-.3v3.77h.3v-3.77ZM17.94,10.43h-.3v3.77h.3v-3.77ZM17.28,10.43h-.3v3.77h.3v-3.77ZM16.61,10.43h-.3v3.77h.3v-3.77ZM15.95,10.43h-.3v3.77h.3v-3.77ZM15.29,10.43h-.3v3.77h.3v-3.77ZM14.62,10.43h-.3v3.77h.3v-3.77ZM13.96,10.43h-.3v3.77h.3v-3.77ZM13.3,10.43h-.3v3.77h.3v-3.77ZM12.63,10.43h-.3v3.77h.3v-3.77ZM11.67,10.43v3.77h.3v-3.77h-.3Z"/>
                <g>
                  <path class="cls-2" d="M23.17,10.43h-11.33c.02-.1.04-.2.06-.3h11.22c.02.1.04.2.06.3Z"/>
                  <path class="cls-2" d="M22.65,8.8c.05.1.09.2.14.3h-10.57c.04-.1.09-.2.14-.3h10.29Z"/>
                  <path class="cls-2" d="M22.92,9.46c.03.1.07.2.1.3h-11.04c.03-.1.06-.2.1-.3h10.84Z"/>
                  <path class="cls-2" d="M19.45,5.59c0,.07-.01.13-.02.19h-3.87c0-.06-.02-.12-.02-.19,0-.04,0-.07,0-.11h3.9s0,.07,0,.11Z"/>
                  <path class="cls-2" d="M19.09,4.45h-3.17c.08-.11.17-.21.27-.3h2.63c.1.09.19.19.27.3Z"/>
                  <path class="cls-2" d="M19.29,4.81c.04.1.07.2.1.3h-3.79c.03-.1.06-.21.1-.3h3.59Z"/>
                  <path class="cls-2" d="M19.94,6.14c.19.09.38.19.56.3h-6c.18-.11.37-.21.56-.3h4.87Z"/>
                  <path class="cls-2" d="M18.26,3.79h-1.51c.23-.1.49-.15.76-.15s.52.05.76.15Z"/>
                  <path class="cls-2" d="M21.74,7.47c.09.1.17.2.26.3h-8.99c.08-.1.17-.2.26-.3h8.48Z"/>
                  <path class="cls-2" d="M22.26,8.13c.07.1.13.2.19.3h-9.9c.06-.1.12-.2.19-.3h9.52Z"/>
                  <path class="cls-2" d="M21.02,6.8c.12.1.24.2.36.3h-7.76c.12-.11.24-.21.36-.3h7.04Z"/>
                </g>
              </g>
              <g>
                <path class="cls-12" d="M11.59,16.44c0-.24.12-.46.31-.58v1.43c0,5.21,2.51,4.02,5.6,4.02s5.6,1.19,5.6-4.02v-1.43c.19.13.31.34.31.58v4.55s0,.03,0,.04c0,.03,0,.05,0,.08,0,2.92-2.65,5.29-5.91,5.29s-5.91-2.37-5.91-5.29c0-.03,0-.05,0-.08,0-.01,0-.03,0-.04v-4.55Z"/>
                <path class="cls-3" d="M23.41,20.28s0,.04,0,.07v-.1s0,.02,0,.04ZM11.59,20.24v.1s0-.04,0-.07c0-.01,0-.02,0-.04ZM11.59,20.35v.65s0,.03,0,.04c0,.03,0,.05,0,.08,0,2.92,2.65,5.29,5.91,5.29s5.91-2.37,5.91-5.29c0-.03,0-.05,0-.08,0-.01,0-.03,0-.04v-.65c0,2.55-2.65,4.62-5.91,4.62s-5.91-2.07-5.91-4.62Z"/>
                <g class="cls-5">
                  <path class="cls-12" d="M11.7,22.17c.55-.18,1.26-.52,1.99-.86.99.27,2.3.02,3.75,0-.35,1.58-3.62,2.05-5.5,1.61-.1-.25-.19-.5-.24-.76Z"/>
                  <path class="cls-12" d="M21.3,21.31c.73.34,1.44.68,1.99.86-.06.26-.14.51-.24.76-1.88.44-5.15-.02-5.5-1.61,1.45,0,2.77.26,3.75,0Z"/>
                </g>
                <path class="cls-12" d="M17.52,20.34c0,2.51,6.84,2.58,6.84.91,0,1.75-6.84-3.6-6.84-.91ZM10.65,21.25c0,1.67,6.84,1.6,6.84-.91,0-2.69-6.84,2.66-6.84.91Z"/>
                <path class="cls-9" d="M10.67,21.4c.05.19.19.35.4.49,1.42-.04,5.95-2.61,6.38-1.26.02-.09.04-.19.04-.29,0-2.6-6.38,2.3-6.81,1.06ZM10.65,21.25c0,.06,0,.11.02.15-.01-.05-.02-.1-.02-.15ZM17.52,20.34c0,.1.01.2.04.29.43-1.35,4.95,1.22,6.38,1.26.21-.14.35-.3.4-.49-.43,1.24-6.81-3.66-6.81-1.06ZM24.35,21.25c0,.05-.01.1-.02.15.02-.04.02-.09.02-.15Z"/>
              </g>
            </g>
          </g>
        </g>
      </g>
    </g>
  </g>
</svg>