<?xml version="1.0" encoding="UTF-8"?>
<svg xmlns="http://www.w3.org/2000/svg" xmlns:xlink="http://www.w3.org/1999/xlink" viewBox="0 0 35 35">
  <defs>
    <style>
      .cls-1 {
        opacity: .5;
      }

      .cls-1, .cls-2, .cls-3, .cls-4, .cls-5, .cls-6 {
        mix-blend-mode: multiply;
      }

      .cls-1, .cls-7 {
        fill: #fbc288;
      }

      .cls-8, .cls-2 {
        fill: #333;
      }

      .cls-9, .cls-10 {
        fill: #fff;
      }

      .cls-11 {
        fill: #ccc;
      }

      .cls-12, .cls-5 {
        fill: #d6be89;
      }

      .cls-13 {
        fill: #4d4d4d;
      }

      .cls-14 {
        isolation: isolate;
      }

      .cls-2, .cls-6 {
        opacity: .2;
      }

      .cls-15 {
        fill: none;
        opacity: 0;
      }

      .cls-4, .cls-16, .cls-6 {
        fill: #dc564b;
      }

      .cls-10, .cls-17 {
        mix-blend-mode: overlay;
        opacity: .3;
      }

      .cls-18 {
        fill: url(#linear-gradient);
      }
    </style>
    <linearGradient id="linear-gradient" x1="1846.92" y1="-16148.92" x2="1846.92" y2="-16167" gradientTransform="translate(1864.49 -16144.67) rotate(-180)" gradientUnits="userSpaceOnUse">
      <stop offset="0" stop-color="#fbd099"/>
      <stop offset="1" stop-color="#fbc288"/>
    </linearGradient>
  </defs>
  <g class="cls-14">
    <g id="Lager_2" data-name="Lager 2">
      <g id="Layer_2" data-name="Layer 2">
        <g>
          <circle class="cls-15" cx="17.5" cy="17.5" r="17.5"/>
          <g>
            <g>
              <g>
                <path class="cls-13" d="M2.89,27.13c1.21-2.38,4.5-5.43,9.41-5.43h10.42c4.9,0,8.19,3.05,9.41,5.43-3.09,4.73-8.48,7.87-14.61,7.87s-11.53-3.14-14.61-7.87Z"/>
                <path class="cls-10" d="M22.71,21.7c4.9,0,8.19,3.05,9.41,5.43-.25.38-.5.74-.78,1.1-1.58-1.55-4.54-3.13-8.63-3.13h-10.42c-4.09,0-7.05,1.58-8.63,3.13-.27-.36-.53-.72-.78-1.1,1.21-2.38,4.5-5.43,9.41-5.43h10.42Z"/>
                <polygon class="cls-8" points="11.95 20.49 17.51 18.68 23.07 20.49 17.51 34.08 11.95 20.49"/>
                <polygon class="cls-11" points="17.51 34.08 12.13 20.95 22.88 20.95 17.51 34.08"/>
                <polygon class="cls-9" points="17.51 34.08 12.6 20.95 22.41 20.95 17.51 34.08"/>
                <polygon class="cls-2" points="17.51 34.08 23.12 20.56 25.89 22.14 23.7 24.95 25.45 27.25 17.51 34.08"/>
                <polygon class="cls-8" points="17.51 34.08 23.07 20.49 25.89 22.14 23.35 24.49 25.12 26.8 17.51 34.08"/>
                <polygon class="cls-10" points="23.35 24.49 22.09 22.88 23.07 20.49 25.89 22.14 23.35 24.49"/>
                <polygon class="cls-2" points="17.51 34.08 11.9 20.56 8.95 22.14 11.32 24.95 9.56 27.25 17.51 34.08"/>
                <polygon class="cls-8" points="17.51 34.08 11.95 20.49 8.95 22.14 11.67 24.49 9.9 26.8 17.51 34.08"/>
                <polygon class="cls-10" points="11.67 24.49 12.93 22.88 11.95 20.49 8.95 22.14 11.67 24.49"/>
                <path class="cls-7" d="M13.04,19.69v-3.49h8.91v3.49c.01.13.02,1.31.02,1.44,0,3.22-4.27,1.13-4.48,3.57-.2-2.44-4.48-.35-4.48-3.57,0-.13,0-1.31.02-1.44Z"/>
              </g>
              <g>
                <path d="M13.47,23.93s.73.57,4.03.57,4.13-.71,4.18-.76c.03-.04.07-.06.11-.09l-.63,1.53c-.76.23-1.91.42-3.66.42s-2.87-.15-3.59-.34l-.55-1.35c.06.01.14.02.12.01Z"/>
                <g>
                  <path class="cls-8" d="M14.87,23.64c.05-.03.11-.05.17-.05.04,0,.08,0,.12.03l2.34,1.03,2.34-1.03s.08-.03.12-.03c.06,0,.12.02.17.05.09.06.14.16.14.26v2.21c0,.1-.05.2-.14.26-.05.03-.11.05-.17.05-.04,0-.08,0-.12-.03l-2.34-1.01-2.34,1.01s-.08.03-.12.03c-.06,0-.12-.02-.17-.05-.09-.06-.14-.16-.14-.26v-2.21c0-.11.05-.2.14-.26Z"/>
                  <path d="M16.72,25.72c-.16-.18-.25-.42-.25-.67,0-.28.11-.54.29-.72l.74.33.74-.33c.18.19.29.44.29.72,0,.26-.1.49-.25.67l-.78-.33-.78.33Z"/>
                  <ellipse class="cls-8" cx="17.5" cy="25.05" rx=".72" ry=".73"/>
                </g>
              </g>
              <g>
                <path class="cls-16" d="M9.65,29.9c0-.17.05-.32.13-.46,0-.16.04-.32.12-.46.08-.15.2-.26.34-.34.08-.14.19-.26.34-.34.15-.08.31-.12.46-.12.14-.08.29-.13.46-.13s.32.05.46.13c.16,0,.32.04.46.12.15.08.26.2.34.34.14.08.26.19.34.34.08.15.12.31.12.46.08.14.13.29.13.46s-.05.32-.13.46c0,.16-.04.32-.12.46-.08.15-.2.26-.34.34-.08.14-.19.26-.34.34-.15.08-.31.12-.46.12-.14.08-.29.13-.46.13s-.32-.05-.46-.13c-.16,0-.32-.04-.46-.12-.15-.08-.26-.2-.34-.34-.14-.08-.26-.19-.34-.34-.08-.15-.12-.31-.12-.46-.08-.14-.13-.29-.13-.46Z"/>
                <circle class="cls-6" cx="11.5" cy="28.97" r=".92"/>
                <path class="cls-6" d="M11.16,28.63c-.26.44-.1,1.01.34,1.26.44.26,1.01.1,1.26-.34.26-.44.1-1.01-.34-1.26-.44-.26-1.01-.1-1.26.34Z"/>
                <path class="cls-6" d="M11.84,28.63c-.44.26-.59.82-.34,1.26.26.44.82.59,1.26.34.44-.26.59-.82.34-1.26-.26-.44-.82-.59-1.26-.34Z"/>
                <path class="cls-6" d="M12.42,28.97c-.51,0-.92.41-.92.92s.41.92.92.92.92-.41.92-.92-.41-.92-.92-.92Z"/>
                <path class="cls-6" d="M12.76,29.56c-.44-.26-1.01-.1-1.26.34-.26.44-.1,1.01.34,1.26.44.26,1.01.1,1.26-.34.26-.44.1-1.01-.34-1.26Z"/>
                <path class="cls-6" d="M12.76,30.23c-.26-.44-.82-.59-1.26-.34-.44.26-.59.82-.34,1.26.26.44.82.59,1.26.34.44-.26.59-.82.34-1.26Z"/>
                <path class="cls-6" d="M12.42,30.82c0-.51-.41-.92-.92-.92s-.92.41-.92.92.41.92.92.92.92-.41.92-.92Z"/>
                <path class="cls-6" d="M11.84,31.16c.26-.44.1-1.01-.34-1.26-.44-.26-1.01-.1-1.26.34-.26.44-.1,1.01.34,1.26.44.26,1.01.1,1.26-.34Z"/>
                <path class="cls-6" d="M11.16,31.16c.44-.26.59-.82.34-1.26-.26-.44-.82-.59-1.26-.34-.44.26-.59.82-.34,1.26.26.44.82.59,1.26.34Z"/>
                <path class="cls-6" d="M10.58,30.82c.51,0,.92-.41.92-.92s-.41-.92-.92-.92-.92.41-.92.92.41.92.92.92Z"/>
                <path class="cls-6" d="M10.24,30.23c.44.26,1.01.1,1.26-.34.26-.44.1-1.01-.34-1.26-.44-.26-1.01-.1-1.26.34-.26.44-.1,1.01.34,1.26Z"/>
                <path class="cls-6" d="M10.24,29.56c.26.44.82.59,1.26.34.44-.26.59-.82.34-1.26-.26-.44-.82-.59-1.26-.34-.44.26-.59.82-.34,1.26Z"/>
                <path class="cls-4" d="M10.98,29.9c0,.29.23.52.52.52s.52-.23.52-.52-.23-.52-.52-.52-.52.23-.52.52Z"/>
              </g>
            </g>
            <g>
              <g>
                <g>
                  <rect class="cls-7" x="11.09" y="11.56" width="12.94" height="4.11" rx="1.39" ry="1.39"/>
                  <path class="cls-18" d="M17.56,4.34c3.08,0,5.58,2.5,5.58,5.58v7.47c0,3.08-2.5,5.58-5.58,5.58s-5.58-2.5-5.58-5.58v-7.47c0-3.08,2.5-5.58,5.58-5.58Z"/>
                  <g class="cls-3">
                    <path class="cls-12" d="M16.02,19.69c1.18-.33,1.82-.33,3,0,.11.03.23-.03.27-.14.04-.11-.03-.23-.16-.27-1.27-.36-1.96-.36-3.23,0-.12.03-.19.16-.16.27s.16.17.27.14Z"/>
                  </g>
                  <g>
                    <path class="cls-1" d="M18.03,16.87h-.93c-.29,0-.52-.23-.52-.52h1.97c0,.29-.23.52-.52.52Z"/>
                    <path class="cls-5" d="M18.17,16.35h-.36c0,.1.08.18.18.18s.18-.08.18-.18ZM16.95,16.35c0,.1.08.18.18.18s.18-.08.18-.18h-.36Z"/>
                  </g>
                  <g class="cls-17">
                    <path class="cls-9" d="M17.56,4.34c-3.08,0-5.58,2.5-5.58,5.58,0-1.63,2.5-3.6,5.58-3.6s5.58,2.09,5.58,3.6c0-3.08-2.5-5.58-5.58-5.58Z"/>
                  </g>
                  <path class="cls-1" d="M17.52,20.38c-.54,0-.97.31-1.04.71,0-.05-.01-.09-.01-.14,0-.58.47-1.06,1.06-1.06s1.06.47,1.06,1.06c0,.05,0,.09-.01.14-.07-.4-.51-.71-1.04-.71Z"/>
                </g>
                <g>
                  <path class="cls-13" d="M18.49,11.55c.78-.47,1.81-.46,2.57.03.07.05.11.13.09.21,0,0,0,.51,0,.51,0,0,0,0,0,.01,0,0,0,0,0,.01,0,.03-.01.06-.03.09-.04.06-.11.09-.17.1-.04,0-.08-.01-.11-.03-.64-.41-1.49-.42-2.14-.03-.1.06-.22.03-.28-.07-.02-.03-.02-.06-.03-.09,0,0,0,0,0-.01,0,0,0,0,0-.01,0,0,0,0,0-.01,0,0,0-.49,0-.49,0,0,0,0,0-.01-.01-.08.02-.16.1-.21Z"/>
                  <path class="cls-13" d="M13.99,12.33c-.01-.08.02-.16.1-.21.78-.47,1.81-.45,2.57.04.07.05.11.13.09.21,0,0,0,.53,0,.53,0,.03-.01.06-.03.09-.04.06-.11.09-.17.09-.04,0-.08-.01-.11-.03-.63-.41-1.49-.42-2.14-.04-.1.06-.22.03-.28-.07-.02-.03-.02-.06-.03-.09,0,0,0-.5,0-.5,0,0,0,0,0-.01,0,0,0,0,0-.01,0,0,0,0,0-.01Z"/>
                </g>
                <g>
                  <path class="cls-1" d="M14.12,13.9c0,.58.47,1.05,1.05,1.05s1.05-.47,1.05-1.05-.47-1.05-1.05-1.05-1.05.47-1.05,1.05ZM18.93,13.9c0,.58.47,1.05,1.05,1.05s1.05-.47,1.05-1.05-.47-1.05-1.05-1.05-1.05.47-1.05,1.05Z"/>
                  <path d="M20.66,13.9h-1.35c0,.37.3.67.67.67s.67-.3.67-.67h0ZM14.49,13.9h0c0,.37.3.67.67.67s.67-.3.67-.67h-1.35Z"/>
                  <g>
                    <path class="cls-9" d="M15.44,14.12c-.12,0-.22-.1-.22-.22h.44c0,.12-.1.22-.22.22Z"/>
                    <path class="cls-9" d="M20.3,14.12c-.12,0-.22-.1-.22-.22h.44c0,.12-.1.22-.22.22Z"/>
                  </g>
                </g>
              </g>
              <path class="cls-13" d="M11.46,9.92c0-3.37,2.74-6.1,6.11-6.1s6.1,2.73,6.11,6.1c0,0,0,0,0,0v2.54c0,.28-.25.51-.52.52v-1.64s0,0,0,0v-.62c0-1.73-1.03-2.06-1.03-2.06,0,0,.06-1.88-1.01-2.95-1.44-1.45-2.14-.66-3.54-.66-1.52,0-2.1-.78-3.54.66-1.07,1.07-1.01,2.95-1.01,2.95,0,0-1.03.34-1.03,2.06v.62s0,0,0,0v1.64c-.28-.02-.52-.24-.52-.52v-2.54s0,0,0,0Z"/>
              <path class="cls-13" d="M17.83,17.91h1.13s.02,0,.03,0h0c.68.07,1.03.68,1.04.7h0s.04.08.04.13c0,.15-.12.27-.27.27-.1,0-.18-.06-.23-.14h0s-.23-.39-.63-.43h-1.11c-.15,0-.27-.12-.27-.27v-.27h.27Z"/>
              <path class="cls-13" d="M17.3,17.91h-1.13s-.02,0-.03,0h0c-.68.07-1.03.68-1.04.7h0s-.04.08-.04.13c0,.15.12.27.27.27.1,0,.18-.06.23-.14h0s.23-.39.63-.43h1.11c.15,0,.27-.12.27-.27v-.27h-.27Z"/>
              <g>
                <rect class="cls-9" x="23.15" y="11.54" width=".52" height=".47"/>
                <rect class="cls-9" x="23.15" y="10.73" width=".52" height=".47"/>
                <path class="cls-9" d="M12,10.4h-.54v-.47h.62c-.03.14-.06.3-.08.47Z"/>
                <rect class="cls-9" x="11.46" y="10.73" width=".52" height=".47"/>
                <rect class="cls-9" x="11.46" y="11.54" width=".52" height=".47"/>
                <path class="cls-9" d="M23.13,10.4c-.01-.17-.04-.33-.08-.47h.62v.47h-.54Z"/>
              </g>
            </g>
          </g>
        </g>
      </g>
    </g>
  </g>
</svg>