<?xml version="1.0" encoding="UTF-8"?>
<svg xmlns="http://www.w3.org/2000/svg" xmlns:xlink="http://www.w3.org/1999/xlink" viewBox="0 0 35 35">
  <defs>
    <style>
      .cls-1 {
        fill: #b2b2b2;
      }

      .cls-1, .cls-2, .cls-3, .cls-4, .cls-5 {
        mix-blend-mode: multiply;
      }

      .cls-1, .cls-6 {
        opacity: .2;
      }

      .cls-2, .cls-4, .cls-5 {
        opacity: .5;
      }

      .cls-2, .cls-7 {
        fill: #fbc288;
      }

      .cls-3, .cls-8 {
        fill: #f2f2f2;
      }

      .cls-9 {
        fill: #333;
      }

      .cls-9, .cls-10, .cls-11, .cls-12 {
        opacity: .3;
      }

      .cls-13, .cls-6, .cls-10, .cls-11 {
        fill: #fff;
      }

      .cls-14 {
        fill: #bf453a;
      }

      .cls-6, .cls-10 {
        mix-blend-mode: screen;
      }

      .cls-15 {
        isolation: isolate;
      }

      .cls-16 {
        fill: none;
        opacity: 0;
      }

      .cls-17, .cls-4 {
        fill: #666;
      }

      .cls-18 {
        fill: #e46a5d;
      }

      .cls-11, .cls-12 {
        mix-blend-mode: overlay;
      }

      .cls-19 {
        fill: url(#linear-gradient);
      }

      .cls-20 {
        fill: #663f30;
      }
    </style>
    <linearGradient id="linear-gradient" x1="1634.55" y1="-16497.67" x2="1634.55" y2="-16516.18" gradientTransform="translate(1652.04 -16492.71) rotate(-180)" gradientUnits="userSpaceOnUse">
      <stop offset="0" stop-color="#fbd099"/>
      <stop offset="1" stop-color="#fbc288"/>
    </linearGradient>
  </defs>
  <g class="cls-15">
    <g id="Lager_2" data-name="Lager 2">
      <g id="Layer_2" data-name="Layer 2">
        <g>
          <circle class="cls-16" cx="17.5" cy="17.5" r="17.5"/>
          <g>
            <g>
              <path class="cls-8" d="M13.14,23.05h8.72c5.26,0,8.31,4.51,8.31,6.47,0,.03,0,.05,0,.08-3.2,3.33-7.68,5.4-12.66,5.4s-9.47-2.07-12.66-5.4c0-.03,0-.05,0-.08,0-1.96,3.04-6.47,8.31-6.47Z"/>
              <g>
                <path class="cls-17" d="M28.68,30.97c-.32.27-.65.52-.99.77H7.31c-.34-.24-.67-.5-.99-.77h22.36Z"/>
                <path class="cls-17" d="M26.43,32.55c-.47.28-.95.53-1.44.77h-14.99c-.49-.23-.97-.49-1.44-.77h17.87Z"/>
                <path class="cls-17" d="M30.16,29.52s0,.05,0,.08c-.18.19-.37.37-.56.56H5.4c-.19-.18-.38-.37-.56-.56,0-.03,0-.05,0-.08,0-.04,0-.09,0-.13h25.31s0,.09,0,.13Z"/>
                <path class="cls-17" d="M22.96,34.13c-1.14.37-2.33.63-3.56.77h-3.79c-1.23-.13-2.42-.39-3.56-.77h10.92Z"/>
                <path class="cls-17" d="M22.39,23.07c1.14.07,2.18.35,3.09.77h-15.95c.91-.42,1.94-.7,3.09-.77h9.78Z"/>
                <path class="cls-17" d="M26.89,24.65c.34.24.66.5.95.77H7.16c.29-.27.6-.53.95-.77h18.78Z"/>
                <path class="cls-17" d="M28.61,26.23c.21.25.41.51.58.77H5.81c.17-.26.36-.51.58-.77h22.23Z"/>
                <path class="cls-17" d="M29.67,27.81c.13.27.24.52.32.77H5.01c.08-.24.19-.5.32-.77h24.34Z"/>
              </g>
              <g>
                <path d="M9.5,33.07c-.4-.21-.79-.43-1.18-.66v-7.9c.37-.24.76-.46,1.18-.66v9.22Z"/>
                <path d="M26.65,32.42c-.38.23-.78.45-1.18.66v-9.25c.42.19.81.41,1.18.65v7.93Z"/>
              </g>
              <path class="cls-10" d="M29.23,30.49c-1.27-1.94-3.81-4-7.37-4h-8.72c-3.56,0-6.1,2.06-7.37,4-.32-.29-.63-.58-.93-.89,0-.03,0-.05,0-.08,0-1.96,3.04-6.47,8.31-6.47h8.72c5.26,0,8.31,4.51,8.31,6.47,0,.03,0,.05,0,.08-.3.31-.61.61-.93.89Z"/>
              <polygon class="cls-4" points="13.29 22.12 13.29 22.11 21.68 22.11 24.81 28.68 21.57 27.76 17.49 28.85 17.49 28.85 13.4 27.76 10.17 28.68 13.29 22.12"/>
              <polygon points="13.29 22.12 13.29 22.11 21.68 22.11 24.81 28.68 21.57 26.94 17.49 28.85 17.49 28.85 13.4 26.94 10.17 28.68 13.29 22.12"/>
              <polygon class="cls-10" points="24.81 28.68 21.57 26.94 21.68 22.11 24.81 28.68"/>
              <polygon class="cls-10" points="10.17 28.68 13.4 26.94 13.29 22.11 10.17 28.68"/>
              <g>
                <path class="cls-7" d="M13.8,22.88v-3.34h7.41v3.72c0,3.15-3.72,5.6-3.72,5.6,0,0-3.72-2.45-3.72-5.6,0-.13,0-.25.02-.37Z"/>
                <path class="cls-2" d="M17.5,27.83s3.72-2.18,3.72-4.99v.41c0,3.15-3.72,5.6-3.72,5.6,0,0-3.72-2.45-3.72-5.6,0-.08,0-.17.01-.25.14,2.73,3.7,4.83,3.7,4.83Z"/>
              </g>
              <path class="cls-2" d="M13.8,19.54h7.41v3.72s0,.05,0,.08c-.97.92-2.28,1.49-3.72,1.49s-2.74-.56-3.7-1.47c0-.03,0-.06,0-.1,0-.13,0-.25.02-.37v-3.34Z"/>
            </g>
            <g>
              <g>
                <g>
                  <rect class="cls-7" x="11.22" y="13.05" width="12.55" height="3.99" rx="1.35" ry="1.35"/>
                  <path class="cls-19" d="M17.49,5.04c2.99,0,5.41,2.42,5.41,5.41v8.26c0,2.99-2.42,5.41-5.41,5.41s-5.41-2.42-5.41-5.41v-8.26c0-2.99,2.42-5.41,5.41-5.41Z"/>
                  <path class="cls-8" d="M17.49,23.42c2.6,0,4.71-2.11,4.71-4.71v-8.26c0-2.6-2.11-4.71-4.71-4.71s-4.71,2.11-4.71,4.71v8.26c0,2.6,2.11,4.71,4.71,4.71Z"/>
                  <g>
                    <path class="cls-3" d="M17.94,18.2h-.9c-.28,0-.51-.23-.51-.5h1.91c0,.28-.23.5-.51.5Z"/>
                    <path class="cls-9" d="M18.08,17.7h-.35c0,.1.08.18.18.18s.18-.08.18-.18ZM16.9,17.7c0,.1.08.18.18.18s.18-.08.18-.18h-.35Z"/>
                  </g>
                  <g class="cls-12">
                    <path class="cls-13" d="M17.49,5.04c-2.99,0-5.41,2.42-5.41,5.41,0-1.58,2.42-3.49,5.41-3.49s5.41,2.02,5.41,3.49c0-2.99-2.42-5.41-5.41-5.41Z"/>
                  </g>
                  <path class="cls-5" d="M19.73,12.06l-.45,2.34.45,2.34.45-2.34-.45-2.34ZM14.8,14.4l.45,2.34.45-2.34-.45-2.34-.45,2.34ZM17.06,17.18c0,.24.2.44.44.44s.44-.2.44-.44-.2-.44-.44-.44-.44.2-.44.44Z"/>
                  <path class="cls-3" d="M14.22,14.4c0,.58.47,1.05,1.05,1.05s1.05-.47,1.05-1.05-.47-1.05-1.05-1.05-1.05.47-1.05,1.05ZM18.68,14.4c0,.58.47,1.05,1.05,1.05s1.05-.47,1.05-1.05-.47-1.05-1.05-1.05-1.05.47-1.05,1.05Z"/>
                  <path d="M20.41,14.4h-1.35c0,.37.3.67.67.67s.67-.3.67-.67h0ZM14.59,14.4h0c0,.37.3.67.67.67s.67-.3.67-.67h-1.35Z"/>
                  <g>
                    <path class="cls-13" d="M15.55,14.62c-.12,0-.22-.1-.22-.22h.44c0,.12-.1.22-.22.22Z"/>
                    <path class="cls-13" d="M20.05,14.62c-.12,0-.22-.1-.22-.22h.44c0,.12-.1.22-.22.22Z"/>
                  </g>
                </g>
                <path class="cls-20" d="M20.97,13.26c.06.01.13,0,.18-.05.08-.08.08-.2,0-.28-.62-.63-1.59-.86-2.42-.58-.1.03-.16.15-.13.25.04.1.15.16.25.13.69-.23,1.5-.04,2.01.48.03.03.06.05.1.06Z"/>
                <path class="cls-20" d="M16.46,13.26c.07,0,.13-.03.17-.09.06-.09.03-.22-.06-.28-.74-.48-1.74-.49-2.49-.04-.09.06-.13.18-.07.27.06.09.18.13.27.07.63-.37,1.46-.36,2.07.04.03.02.07.03.11.03Z"/>
                <path class="cls-20" d="M17.5,4.38c2.72,0,5.08,2.13,5.38,4.85.08.73.03,1.49.03,2.22v2.12c0-1.65-.77-3.23-2.05-4.25-.34.88-1.24,1.47-2.13,1.69-.99.24-1.9.04-2.72-.55.56.15,1.13.3,1.72.22.75-.09,1.39-.39,2.01-.82-1.68.68-3.87.58-5.38-.48-.11-.08-.12-.15-.24-.05-.08.07-.16.14-.24.21-.16.14-.31.29-.44.45-.28.32-.52.67-.72,1.05-.41.78-.63,1.66-.63,2.54,0-1.4-.1-2.84.02-4.24.25-2.77,2.63-4.95,5.39-4.95Z"/>
                <path class="cls-11" d="M17.46,4.38c3.01,0,5.45,2.44,5.45,5.45v1.5c0-3.01-2.44-5.45-5.45-5.45s-5.45,2.44-5.45,5.45v-1.5c0-3.01,2.44-5.45,5.45-5.45Z"/>
                <path class="cls-1" d="M17.5,4.54c2.99,0,5.42,2.44,5.42,5.44v5.41c-1.52.58-3.29.92-5.19.92-2.09,0-4.03-.41-5.65-1.11v-5.22c0-3,2.43-5.44,5.42-5.44Z"/>
              </g>
              <g>
                <path class="cls-18" d="M17.5,20.16c-.38,0-.71-.12-.95-.31.04.51.45.9.95.9s.9-.39.94-.9c-.23.19-.57.31-.94.31Z"/>
                <path class="cls-14" d="M16.69,19.54c.33,0,.62.09.81.22.2-.13.49-.22.81-.22.39,0,.73.12.92.31-.43.19-1.04.32-1.74.32s-1.31-.13-1.74-.32c.19-.18.53-.31.92-.31Z"/>
              </g>
            </g>
            <g>
              <path d="M25.65,7.91c.02.08.12.33.12.8,0,1.58-3.71,2.87-8.28,2.87s-8.28-1.28-8.28-2.87c0-.63.1-.83.11-.91l2.72.68h10.88l2.73-.57Z"/>
              <path d="M13.01,4.66c.54-2.47,2.64-3.23,4.48-2.04,1.84-1.19,3.94-.43,4.48,2.04.21.94.86,3.82.86,3.82,0,0-1.7.92-5.34.92s-5.34-.92-5.34-.92c0,0,.65-2.88.86-3.82Z"/>
              <path class="cls-6" d="M21.97,5.59c-.54-1.99-2.64-2.6-4.48-1.64-1.84-.96-3.94-.35-4.48,1.64-.17.64-.67,2.39-.81,2.91-.03-.01-.04-.02-.04-.02,0,0,.65-2.88.86-3.82.54-2.47,2.64-3.23,4.48-2.04,1.84-1.19,3.94-.43,4.48,2.04.21.94.86,3.82.86,3.82,0,0-.02,0-.04.02-.15-.53-.64-2.27-.81-2.91Z"/>
              <path class="cls-18" d="M17.49,7.59c2.72,0,4.35-.39,5.01-.59.18.8.33,1.47.33,1.47,0,0-1.7.92-5.34.92s-5.34-.92-5.34-.92c0,0,.15-.67.33-1.47.65.2,2.29.59,5.01.59Z"/>
            </g>
          </g>
        </g>
      </g>
    </g>
  </g>
</svg>