<?xml version="1.0" encoding="UTF-8"?>
<svg xmlns="http://www.w3.org/2000/svg" xmlns:xlink="http://www.w3.org/1999/xlink" viewBox="0 0 35 35">
  <defs>
    <style>
      .cls-1, .cls-2, .cls-3, .cls-4, .cls-5, .cls-6, .cls-7, .cls-8 {
        mix-blend-mode: multiply;
      }

      .cls-1, .cls-9 {
        fill: #ccc;
      }

      .cls-2, .cls-3, .cls-10 {
        opacity: .5;
      }

      .cls-2, .cls-11 {
        fill: #fbc288;
      }

      .cls-12, .cls-5 {
        fill: #333;
      }

      .cls-3, .cls-13 {
        fill: #f1b14f;
      }

      .cls-4, .cls-14, .cls-8 {
        fill: #f2f2f2;
      }

      .cls-15, .cls-10, .cls-16, .cls-17 {
        fill: #fff;
      }

      .cls-18 {
        fill: #4d4d4d;
      }

      .cls-19 {
        isolation: isolate;
      }

      .cls-5 {
        opacity: .2;
      }

      .cls-20 {
        fill: #1a1a1a;
      }

      .cls-21 {
        fill: none;
        opacity: 0;
      }

      .cls-6, .cls-8 {
        opacity: .8;
      }

      .cls-16, .cls-17, .cls-22 {
        mix-blend-mode: overlay;
      }

      .cls-17, .cls-22 {
        opacity: .3;
      }

      .cls-7 {
        fill: #d6be89;
      }

      .cls-23 {
        fill: url(#linear-gradient);
      }
    </style>
    <linearGradient id="linear-gradient" x1="1522.19" y1="-16325.86" x2="1522.19" y2="-16336.04" gradientTransform="translate(1539.69 -16320.27) rotate(-180)" gradientUnits="userSpaceOnUse">
      <stop offset="0" stop-color="#fbd099"/>
      <stop offset="1" stop-color="#fbc288"/>
    </linearGradient>
  </defs>
  <g class="cls-19">
    <g id="Lager_2" data-name="Lager 2">
      <g id="Layer_2" data-name="Layer 2">
        <g>
          <circle class="cls-21" cx="17.5" cy="17.5" r="17.5"/>
          <g>
            <g>
              <path class="cls-18" d="M2.89,27.13c1.21-2.38,4.5-5.43,9.41-5.43h10.42c4.9,0,8.19,3.05,9.41,5.43-3.09,4.73-8.48,7.87-14.61,7.87s-11.53-3.14-14.61-7.87Z"/>
              <path class="cls-17" d="M22.71,21.7c4.9,0,8.19,3.05,9.41,5.43-.25.38-.5.74-.78,1.1-1.58-1.55-4.54-3.13-8.63-3.13h-10.42c-4.09,0-7.05,1.58-8.63,3.13-.27-.36-.53-.72-.78-1.1,1.21-2.38,4.5-5.43,9.41-5.43h10.42Z"/>
              <polygon class="cls-9" points="17.51 34.08 12.13 20.95 22.88 20.95 17.51 34.08"/>
              <polygon class="cls-15" points="17.51 34.08 12.6 20.95 22.41 20.95 17.51 34.08"/>
              <path class="cls-11" d="M13.04,19.69v-3.49h8.96v3.88c0,3.3-4.49,5.85-4.49,5.85,0,0-4.49-2.56-4.49-5.85,0-.13,0-.26.02-.39Z"/>
              <path class="cls-2" d="M17.51,24.99s4.49-2.31,4.49-5.29v.37c0,3.3-4.49,5.85-4.49,5.85,0,0-4.49-2.56-4.49-5.85,0-.08,0-.15.01-.23.14,2.91,4.48,5.14,4.48,5.14Z"/>
              <polygon class="cls-5" points="17.51 34.08 23.12 20.56 25.89 22.14 23.7 24.95 25.45 27.25 17.51 34.08"/>
              <polygon class="cls-12" points="17.51 34.08 23.07 20.49 25.89 22.14 23.35 24.49 25.12 26.8 17.51 34.08"/>
              <polygon class="cls-17" points="23.35 24.49 22.09 22.88 23.07 20.49 25.89 22.14 23.35 24.49"/>
              <polygon class="cls-5" points="17.51 34.08 11.9 20.56 8.95 22.14 11.32 24.95 9.56 27.25 17.51 34.08"/>
              <polygon class="cls-12" points="17.51 34.08 11.95 20.49 8.95 22.14 11.67 24.49 9.9 26.8 17.51 34.08"/>
              <polygon class="cls-17" points="11.67 24.49 12.93 22.88 11.95 20.49 8.95 22.14 11.67 24.49"/>
              <polygon class="cls-1" points="15.4 27.83 17.5 26.39 19.62 27.83 18.89 29.11 19.1 30.2 17.51 34.08 15.92 30.2 16.1 29.11 15.4 27.83"/>
              <polygon class="cls-13" points="15.4 27.83 17.5 26.39 19.62 27.83 18.61 29.11 19.1 30.2 17.51 34.08 15.92 30.2 16.4 29.11 15.4 27.83"/>
              <polygon class="cls-3" points="19.97 28.07 17.52 26.39 15.05 28.07 17.45 27.16 19.97 28.07"/>
              <polygon class="cls-3" points="18.61 29.11 16.4 29.11 16.31 29.33 18.71 29.33 18.61 29.11"/>
            </g>
            <g>
              <g>
                <rect class="cls-11" x="11" y="13.8" width="12.99" height="4.13" rx="1.39" ry="1.39"/>
                <path class="cls-23" d="M17.5,5.5c3.09,0,5.6,2.51,5.6,5.6v6.48c0,4.96-2.51,7.67-5.6,7.67s-5.6-2.71-5.6-7.67v-6.48c0-3.09,2.51-5.6,5.6-5.6Z"/>
                <path class="cls-2" d="M14.22,15.7c0,.58.47,1.05,1.05,1.05s1.05-.47,1.05-1.05-.47-1.05-1.05-1.05-1.05.47-1.05,1.05ZM18.68,15.7c0,.58.47,1.05,1.05,1.05s1.05-.47,1.05-1.05-.47-1.05-1.05-1.05-1.05.47-1.05,1.05Z"/>
                <path d="M20.41,15.7h-1.35c0,.37.3.67.67.67s.67-.3.67-.67h0ZM14.59,15.7h0c0,.37.3.67.67.67s.67-.3.67-.67h-1.35Z"/>
                <g>
                  <path class="cls-2" d="M17.97,19.13h-.93c-.29,0-.52-.23-.52-.52h1.98c0,.29-.23.52-.52.52Z"/>
                  <path class="cls-7" d="M18.11,18.6h-.36c0,.1.08.18.18.18s.18-.08.18-.18ZM16.88,18.6c0,.1.08.18.18.18s.18-.08.18-.18h-.36Z"/>
                </g>
                <g>
                  <path class="cls-15" d="M15.54,15.92c-.12,0-.22-.1-.22-.22h.44c0,.12-.1.22-.22.22Z"/>
                  <path class="cls-15" d="M20.05,15.92c-.12,0-.22-.1-.22-.22h.44c0,.12-.1.22-.22.22Z"/>
                </g>
                <g>
                  <path class="cls-14" d="M13.87,14.45c-.01-.08.02-.16.1-.21.78-.47,1.81-.45,2.57.04.07.05.11.13.09.21,0,0,0,.53,0,.53,0,.03-.01.06-.03.09-.04.06-.11.09-.17.09-.04,0-.08-.01-.11-.03-.63-.41-1.49-.42-2.14-.04-.1.06-.22.03-.28-.07-.02-.03-.02-.06-.03-.09,0,0,0-.5,0-.5,0,0,0,0,0-.01,0,0,0,0,0-.01,0,0,0,0,0-.01Z"/>
                  <path class="cls-14" d="M18.46,14.25c.78-.47,1.81-.45,2.57.04.07.05.11.13.09.21,0,0,0,.51,0,.51,0,0,0,0,0,.01,0,0,0,0,0,.01,0,.03-.01.06-.03.09-.04.06-.11.09-.17.09-.04,0-.08-.01-.11-.03-.63-.41-1.49-.42-2.14-.04-.1.06-.22.03-.28-.07-.02-.03-.02-.06-.03-.09,0,0,0,0,0-.01,0,0,0,0,0-.01,0,0,0,0,0-.01,0,0,0-.49,0-.49,0,0,0,0,0-.01-.01-.08.02-.16.1-.21Z"/>
                </g>
                <g class="cls-22">
                  <path class="cls-15" d="M17.5,5.5c-3.09,0-5.6,2.51-5.6,5.6,0-1.63,2.51-3.61,5.6-3.61s5.6,2.1,5.6,3.61c0-3.09-2.51-5.6-5.6-5.6Z"/>
                </g>
                <path class="cls-10" d="M14.71,14.24c.86-.26,1.77.22,2.03,1.07.26.86-.22,1.77-1.07,2.03l-.96-3.11Z"/>
                <path class="cls-12" d="M13.61,15.81c0-.9.74-1.64,1.64-1.64s1.64.74,1.64,1.64-.74,1.64-1.64,1.64-1.64-.74-1.64-1.64ZM13.85,15.81c0,.77.63,1.4,1.4,1.4s1.4-.63,1.4-1.4-.63-1.4-1.4-1.4-1.4.63-1.4,1.4Z"/>
              </g>
              <g>
                <path class="cls-14" d="M11.59,16.39c0-.24.12-.46.31-.58v1.43c0,5.21,2.51,4.02,5.6,4.02s5.6,1.19,5.6-4.02v-1.43c.19.13.31.34.31.58v4.55s0,.03,0,.04c0,.03,0,.05,0,.08,0,2.92-2.65,5.29-5.91,5.29s-5.91-2.37-5.91-5.29c0-.03,0-.05,0-.08,0-.01,0-.03,0-.04v-4.55Z"/>
                <path class="cls-8" d="M23.41,20.23s0,.04,0,.07v-.1s0,.02,0,.04ZM11.59,20.19v.1s0-.04,0-.07c0-.01,0-.02,0-.04ZM11.59,20.29v.65s0,.03,0,.04c0,.03,0,.05,0,.08,0,2.92,2.65,5.29,5.91,5.29s5.91-2.37,5.91-5.29c0-.03,0-.05,0-.08,0-.01,0-.03,0-.04v-.65c0,2.55-2.65,4.62-5.91,4.62s-5.91-2.07-5.91-4.62Z"/>
                <g class="cls-6">
                  <path class="cls-4" d="M11.7,22.11c.55-.18,1.26-.52,1.99-.86.99.27,2.3.02,3.75,0-.35,1.58-3.62,2.05-5.5,1.61-.1-.25-.19-.5-.24-.76Z"/>
                  <path class="cls-4" d="M21.3,21.25c.73.34,1.44.68,1.99.86-.06.26-.14.51-.24.76-1.88.44-5.15-.02-5.5-1.61,1.45,0,2.77.26,3.75,0Z"/>
                </g>
                <path class="cls-14" d="M17.52,20.28c0,2.51,6.84,2.58,6.84.91,0,1.75-6.84-3.6-6.84-.91ZM10.65,21.19c0,1.67,6.84,1.6,6.84-.91,0-2.69-6.84,2.66-6.84.91Z"/>
                <path class="cls-16" d="M10.67,21.34c.05.19.19.35.4.49,1.42-.04,5.95-2.61,6.38-1.26.02-.09.04-.19.04-.29,0-2.6-6.38,2.3-6.81,1.06ZM10.65,21.19c0,.06,0,.11.02.15-.01-.05-.02-.1-.02-.15ZM17.52,20.28c0,.1.01.2.04.29.43-1.35,4.95,1.22,6.38,1.26.21-.14.35-.3.4-.49-.43,1.24-6.81-3.66-6.81-1.06ZM24.35,21.19c0,.05-.01.1-.02.15.01-.04.02-.09.02-.15Z"/>
              </g>
              <path class="cls-2" d="M11.02,16.75c-.01-.07-.02-.14-.02-.22v-1.34c0-.59.37-1.1.89-1.3v-2.79c0-3.09,2.51-5.6,5.6-5.6s5.6,2.51,5.6,5.6v2.79c.52.2.89.7.89,1.3v1.34c0,.07,0,.15-.02.22h-12.96Z"/>
              <g>
                <path class="cls-12" d="M6.25,12.11l5.34,1.05h0s11.82,0,11.82,0l5.34-1.05c.02.08.04.17.04.25,0,1.75-5.05,2.07-11.29,2.07s-11.29-.31-11.29-2.07c0-.08.02-.17.04-.25Z"/>
                <polygon class="cls-12" points="11.9 13.16 23.1 13.16 23.4 2.98 11.67 2.98 11.9 13.16"/>
                <polygon class="cls-20" points="23.16 11.1 23.1 13.16 11.9 13.16 11.85 11.1 23.16 11.1"/>
                <path class="cls-17" d="M21.87,2.98l-.2,10.19h1.43l.3-10.19h-1.53ZM11.67,2.98l.23,10.19h1.46l-.16-10.19h-1.53Z"/>
              </g>
            </g>
          </g>
        </g>
      </g>
    </g>
  </g>
</svg>