<?xml version="1.0" encoding="UTF-8"?>
<svg xmlns="http://www.w3.org/2000/svg" xmlns:xlink="http://www.w3.org/1999/xlink" viewBox="0 0 35 35">
  <defs>
    <style>
      .cls-1 {
        fill: #fbc288;
        opacity: .5;
      }

      .cls-1, .cls-2, .cls-3 {
        mix-blend-mode: multiply;
      }

      .cls-4, .cls-5 {
        fill: #fff;
      }

      .cls-6, .cls-3 {
        fill: #d6be89;
      }

      .cls-7 {
        fill: #4d4d4d;
      }

      .cls-8 {
        isolation: isolate;
      }

      .cls-9 {
        fill: none;
        opacity: 0;
      }

      .cls-10 {
        fill: #f1b14f;
      }

      .cls-5, .cls-11 {
        mix-blend-mode: overlay;
      }

      .cls-5, .cls-11, .cls-12 {
        opacity: .3;
      }

      .cls-13 {
        fill: #dc564b;
      }

      .cls-14 {
        fill: url(#linear-gradient);
      }

      .cls-15 {
        fill: #663f30;
      }

      .cls-12 {
        fill: #666;
        mix-blend-mode: color-burn;
      }
    </style>
    <linearGradient id="linear-gradient" x1="1598.61" y1="-16031.84" x2="1598.61" y2="-16019.25" gradientTransform="translate(1616.15 -16013.16) rotate(-180)" gradientUnits="userSpaceOnUse">
      <stop offset="0" stop-color="#fbc288"/>
      <stop offset="1" stop-color="#fbd099"/>
    </linearGradient>
  </defs>
  <g class="cls-8">
    <g id="Lager_2" data-name="Lager 2">
      <g id="Layer_2" data-name="Layer 2">
        <g>
          <circle class="cls-9" cx="17.5" cy="17.5" r="17.5"/>
          <g>
            <g>
              <path class="cls-13" d="M13.16,23.09h8.69c5.25,0,8.28,4.5,8.28,6.45,0,.03,0,.05,0,.08-3.18,3.31-7.66,5.38-12.62,5.38s-9.43-2.07-12.62-5.38c0-.03,0-.05,0-.08,0-1.95,3.03-6.45,8.28-6.45Z"/>
              <path class="cls-7" d="M13.16,23.09h4.25v11.9c-4.92-.03-9.36-2.09-12.52-5.38,0-.03,0-.05,0-.08,0-1.95,3.03-6.45,8.28-6.45Z"/>
              <path class="cls-5" d="M29.8,29.94c-.91-1.61-3.7-3.8-7.95-3.8h-8.69c-4.25,0-7.04,2.2-7.95,3.8-.11-.11-.22-.21-.32-.32,0-.03,0-.05,0-.08,0-1.95,3.03-6.45,8.28-6.45h8.69c5.25,0,8.28,4.5,8.28,6.45,0,.03,0,.05,0,.08-.1.11-.21.21-.32.32Z"/>
              <path class="cls-10" d="M14.49,32.05l-.99-3.58-3.72.16,1.3-3.48-1.76-1.17c1.1-.54,2.38-.89,3.83-.89h8.69c1.4,0,2.65.32,3.72.83l-1.84,1.22,1.3,3.48-3.72-.16-.99,3.58-2.91-2.32-2.91,2.32Z"/>
              <path class="cls-13" d="M10.78,28.02l1.13-3.02-2.04-1.27c.13-.05.26-.1.4-.15l2.06,1.28-1.05,2.8,2.99-.13.8,2.88,2.34-1.86,2.34,1.86.8-2.88,2.98.13-1.05-2.79,1.96-1.38c.13.04.27.09.4.13l-1.95,1.38,1.13,3.03-3.23-.14-.86,3.11-2.53-2.01-2.53,2.01-.86-3.11-3.23.14Z"/>
              <path class="cls-7" d="M14.11,22.44v-3.13h6.82v3.48c0,2.95-3.42,5.24-3.42,5.24,0,0-3.42-2.29-3.42-5.24,0-.12,0-.23.02-.35Z"/>
              <path class="cls-13" d="M14.11,22.44v-3.13h3.39v8.71c-.17-.12-3.41-2.36-3.41-5.23,0-.12,0-.23.02-.35Z"/>
              <path class="cls-12" d="M17.51,27.19s3.42-2.07,3.42-4.73v.33c0,2.95-3.42,5.24-3.42,5.24,0,0-3.42-2.29-3.42-5.24,0-.07,0-.14.01-.2.11,2.6,3.41,4.6,3.41,4.6Z"/>
            </g>
            <g>
              <g>
                <g>
                  <path class="cls-14" d="M17.54,6.5c3.09,0,5.6,2.51,5.6,5.6v6.07c0,3.09-2.51,6.84-5.6,6.84s-5.6-3.75-5.6-6.84v-6.07c0-3.09,2.51-5.6,5.6-5.6Z"/>
                  <g>
                    <path class="cls-1" d="M18.01,19.7h-.93c-.29,0-.52-.23-.52-.52h1.98c0,.29-.23.52-.52.52Z"/>
                    <path class="cls-3" d="M18.15,19.18h-.36c0,.1.08.18.18.18s.18-.08.18-.18ZM16.93,19.18c0,.1.08.18.18.18s.18-.08.18-.18h-.36Z"/>
                  </g>
                  <g>
                    <path class="cls-1" d="M14.26,15.93c0,.58.47,1.05,1.05,1.05s1.05-.47,1.05-1.05-.47-1.05-1.05-1.05-1.05.47-1.05,1.05ZM18.72,15.93c0,.58.47,1.05,1.05,1.05s1.05-.47,1.05-1.05-.47-1.05-1.05-1.05-1.05.47-1.05,1.05Z"/>
                    <path d="M19.1,15.93h0c0,.37.3.67.67.67s.67-.3.67-.67h0c0-.37-.3-.67-.67-.67s-.67.3-.67.67ZM14.64,15.93h0c0,.37.3.67.67.67s.67-.3.67-.67h0c0-.37-.3-.67-.67-.67s-.67.3-.67.67Z"/>
                    <path class="cls-4" d="M19.87,15.93c0,.12.1.22.22.22s.22-.1.22-.22-.1-.22-.22-.22-.22.1-.22.22ZM15.37,15.93c0,.12.1.22.22.22s.22-.1.22-.22-.1-.22-.22-.22-.22.1-.22.22Z"/>
                  </g>
                  <g>
                    <path class="cls-15" d="M13.91,14.39c-.01-.08.02-.16.1-.21.78-.47,1.81-.45,2.57.04.07.05.11.13.09.21,0,0,0,.17,0,.18,0,.03-.01.06-.03.09-.04.06-.11.09-.17.09-.04,0-.08-.01-.11-.03-.63-.41-1.49-.42-2.13-.04-.1.06-.22.03-.28-.07-.02-.03-.02-.06-.03-.09,0,0,0-.14,0-.14,0,0,0,0,0-.01,0,0,0,0,0-.01,0,0,0,0,0-.01Z"/>
                    <path class="cls-15" d="M18.5,14.18c.78-.47,1.81-.45,2.57.04.07.05.11.13.09.21,0,0,0,.15,0,.15,0,0,0,0,0,.01,0,0,0,0,0,.01,0,.03-.01.06-.03.09-.04.06-.11.09-.17.09-.04,0-.08-.01-.11-.03-.63-.41-1.49-.42-2.13-.04-.1.06-.22.03-.28-.07-.02-.03-.02-.06-.03-.09,0,0,0,0,0-.01,0,0,0,0,0-.01,0,0,0,0,0-.01,0,0,0-.13,0-.13,0,0,0,0,0-.01-.01-.08.02-.16.1-.21Z"/>
                  </g>
                </g>
                <g class="cls-2">
                  <path class="cls-6" d="M15.96,22.01c1.24.33,1.92.33,3.16,0,.13-.03.2-.16.16-.27-.03-.11-.16-.18-.27-.15-1.16.31-1.78.31-2.94,0-.12-.03-.24.03-.27.15-.03.11.04.24.16.27Z"/>
                </g>
                <path class="cls-15" d="M17.52,6.5c2.68,0,5,2.07,5.29,4.73.08.71.03,1.45.03,2.16v2.07c0-1.61-.76-3.15-2.01-4.15-.34.86-1.22,1.43-2.09,1.65-.98.24-1.87.04-2.68-.54.55.15,1.11.29,1.69.22.74-.08,1.37-.39,1.98-.8-1.65.67-3.81.57-5.29-.47-.11-.08-.12-.15-.24-.05-.08.06-.16.13-.24.2-.15.14-.3.29-.44.44-.27.31-.51.66-.71,1.02-.4.76-.63,1.59-.63,2.45,0-1.37-.09-2.75.03-4.11.24-2.7,2.58-4.83,5.3-4.83Z"/>
              </g>
              <g>
                <g>
                  <path class="cls-7" d="M23.01,12.31c.31-.61.83-1.16,1.3-1.65.51-.53,1.31-1.37,2.1-1.41.76-.04,1.29.92,1.56,1.5.29.66.49,1.33.68,2.03.36-1.19.67-2.42.5-3.67-.21-1.52-1.25-2.68-2.71-3.13-1.4-.43-2.93-.25-4.33.08-.65.16-1.29.36-1.92.59-.28.1-.55.21-.82.33-.22.1-.53.19-.71.35,1.45,1.66,2.9,3.32,4.36,4.98Z"/>
                  <path class="cls-5" d="M28.66,12.74c-.04-.13-.09-.26-.13-.39.04.14.08.29.12.43,0-.01,0-.03.01-.04ZM18.65,7.32c.28.32.56.64.83.95.11-.04.23-.08.33-.11.26-.09.52-.18.78-.26.6-.18,1.21-.34,1.83-.47,1.34-.27,2.8-.41,4.14-.07,1.39.36,2.38,1.28,2.58,2.49.02.1.03.21.03.31.02-.35.01-.71-.04-1.06-.21-1.52-1.25-2.68-2.71-3.13-1.4-.43-2.93-.25-4.33.08-.65.16-1.29.36-1.92.59-.28.1-.55.21-.82.33-.22.1-.53.19-.71.35ZM23.07,12.2c-.32-.3-.63-.6-.95-.91.3.34.59.68.89,1.02.02-.04.04-.07.06-.11Z"/>
                </g>
                <g>
                  <path class="cls-13" d="M12.07,12.31c-.31-.61-.83-1.16-1.3-1.65-.51-.53-1.31-1.37-2.1-1.41-.76-.04-1.29.92-1.56,1.5-.29.66-.49,1.33-.68,2.03-.36-1.19-.67-2.42-.5-3.67.21-1.52,1.25-2.68,2.71-3.13,1.4-.43,2.93-.25,4.33.08.65.16,1.29.36,1.92.59.28.1.55.21.82.33.22.1.53.19.71.35-1.45,1.66-2.9,3.32-4.36,4.98Z"/>
                  <path class="cls-5" d="M6.44,12.78c.04-.15.08-.29.12-.43-.05.13-.09.26-.13.39,0,.01,0,.03.01.04ZM15.72,6.98c-.27-.12-.54-.23-.82-.33-.63-.23-1.27-.43-1.92-.59-1.4-.34-2.93-.51-4.33-.08-1.46.45-2.49,1.61-2.71,3.13-.05.36-.06.71-.04,1.06,0-.1.02-.21.03-.31.2-1.21,1.19-2.13,2.58-2.49,1.34-.34,2.8-.2,4.14.07.62.12,1.23.28,1.83.47.26.08.53.17.78.26.1.04.21.07.33.11.28-.32.56-.64.83-.95-.19-.16-.49-.25-.71-.35ZM12.07,12.31c.3-.34.59-.68.89-1.02-.32.3-.63.6-.95.91.02.04.04.07.06.11Z"/>
                </g>
                <path class="cls-13" d="M11.05,15.83v.93c0,.59.37,1.1.89,1.3v.11c0,3.09,2.51,6.84,5.6,6.84s5.6-3.75,5.6-6.84v-.11c.52-.2.89-.7.89-1.3v-.93c0-.59-.37-1.1-.89-1.3v-2.44c0-3.09-2.51-5.6-5.6-5.6s-5.6,2.51-5.6,5.6v2.44c-.52.2-.89.7-.89,1.3ZM12.65,15.25c0-2.7,2.19-4.89,4.89-4.89s4.89,2.19,4.89,4.89v3.48c0,2.7-2.19,5.59-4.89,5.59s-4.89-2.89-4.89-5.59v-3.48Z"/>
                <path class="cls-7" d="M11.94,14.53v-2.44c0-3.08,2.48-5.57,5.56-5.6v3.87c-2.68.02-4.85,2.2-4.85,4.89v3.48c0,2.69,2.17,5.56,4.85,5.59v.68c-3.07-.03-5.56-3.76-5.56-6.84v-.11c-.52-.2-.89-.7-.89-1.3v-.93c0-.59.37-1.1.89-1.3Z"/>
                <g class="cls-11">
                  <path class="cls-4" d="M17.54,6.5c-3.09,0-5.6,2.5-5.6,5.58,0-1.63,2.51-3.6,5.6-3.6s5.6,2.09,5.6,3.6c0-3.08-2.51-5.58-5.6-5.58Z"/>
                </g>
                <g>
                  <path class="cls-10" d="M27.59,13.14c0,.59.47,1.06,1.06,1.06s1.06-.47,1.06-1.06-.47-1.06-1.06-1.06-1.06.47-1.06,1.06Z"/>
                  <path class="cls-5" d="M28.65,12.59c-.51,0-.93.33-1.04.77-.02-.07-.02-.15-.02-.22,0-.59.47-1.06,1.06-1.06s1.06.47,1.06,1.06c0,.08,0,.15-.02.22-.1-.44-.53-.77-1.04-.77Z"/>
                  <path class="cls-4" d="M28.75,12.72c0,.18.15.33.33.33s.33-.15.33-.33-.15-.33-.33-.33-.33.15-.33.33Z"/>
                </g>
                <g>
                  <path class="cls-10" d="M5.39,13.14c0,.59.47,1.06,1.06,1.06s1.06-.47,1.06-1.06-.47-1.06-1.06-1.06-1.06.47-1.06,1.06Z"/>
                  <path class="cls-5" d="M6.45,12.59c-.51,0-.93.33-1.04.77-.02-.07-.02-.15-.02-.22,0-.59.47-1.06,1.06-1.06s1.06.47,1.06,1.06c0,.08,0,.15-.02.22-.1-.44-.53-.77-1.04-.77Z"/>
                  <path class="cls-4" d="M6.56,12.72c0,.18.15.33.33.33s.33-.15.33-.33-.15-.33-.33-.33-.33.15-.33.33Z"/>
                </g>
              </g>
            </g>
          </g>
        </g>
      </g>
    </g>
  </g>
</svg>