<?xml version="1.0" encoding="UTF-8"?>
<svg xmlns="http://www.w3.org/2000/svg" xmlns:xlink="http://www.w3.org/1999/xlink" viewBox="0 0 35 35">
  <defs>
    <style>
      .cls-1 {
        opacity: .5;
      }

      .cls-1, .cls-2, .cls-3, .cls-4, .cls-5, .cls-6 {
        mix-blend-mode: multiply;
      }

      .cls-1, .cls-3, .cls-7, .cls-5 {
        fill: #fbc288;
      }

      .cls-8, .cls-4 {
        fill: #333;
      }

      .cls-2, .cls-9 {
        fill: #f2f2f2;
      }

      .cls-3 {
        opacity: .4;
      }

      .cls-10, .cls-11 {
        fill: #fff;
      }

      .cls-12 {
        fill: #4d4d4d;
      }

      .cls-13 {
        isolation: isolate;
      }

      .cls-4 {
        opacity: .2;
      }

      .cls-14 {
        fill: none;
        opacity: 0;
      }

      .cls-15 {
        fill: #e46a5d;
      }

      .cls-11 {
        mix-blend-mode: overlay;
        opacity: .3;
      }

      .cls-6 {
        fill: #d6be89;
      }

      .cls-16 {
        fill: url(#linear-gradient);
      }
    </style>
    <linearGradient id="linear-gradient" x1="1360.71" y1="-16200.13" x2="1360.71" y2="-16188.55" gradientTransform="translate(1378.2 -16180.87) rotate(-180)" gradientUnits="userSpaceOnUse">
      <stop offset="0" stop-color="#fbc288"/>
      <stop offset="1" stop-color="#fbd099"/>
    </linearGradient>
  </defs>
  <g class="cls-13">
    <g id="Lager_2" data-name="Lager 2">
      <g id="Layer_2" data-name="Layer 2">
        <g>
          <circle class="cls-14" cx="17.5" cy="17.5" r="17.5"/>
          <g>
            <g>
              <path class="cls-12" d="M17.5,4.54c3.55,0,6.01,2.9,6.43,6.43.6,5.1,4.77,19.98,4.77,19.98H6.3s4.17-14.88,4.77-19.98c.41-3.53,2.88-6.43,6.43-6.43Z"/>
              <path class="cls-11" d="M17.5,4.54c3.55,0,6.01,2.9,6.43,6.43.03.22.06.46.1.72-.72-2.87-3.15-5.12-6.53-5.12s-5.81,2.24-6.53,5.12c.04-.26.07-.5.1-.72.41-3.53,2.88-6.43,6.43-6.43Z"/>
              <path class="cls-4" d="M17.5,7.11c2.86,0,4.84,2.37,5.18,5.25.48,4.17,3.84,16.33,3.84,16.33H8.48s3.36-12.16,3.84-16.33c.33-2.88,2.32-5.25,5.18-5.25Z"/>
            </g>
            <g>
              <g>
                <path class="cls-12" d="M17.5,35c-4.26,0-8.16-1.52-11.2-4.05,2.24-3.54,6.41-5.92,11.2-5.92s8.96,2.38,11.2,5.92c-3.03,2.53-6.94,4.05-11.2,4.05Z"/>
                <path class="cls-9" d="M13.67,25.41c.61-.27.71-.74.95-1.62.39-1.44.33-2.5.33-2.5h5.11s-.06,1.06.33,2.5c.24.88.34,1.35.95,1.62,1.08.47,2.04.85,2.95,1.37-.93,2.86-3.61,4.93-6.78,4.93h0s0,0,0,0c-3.17,0-5.86-2.07-6.78-4.93.92-.52,1.88-.9,2.95-1.37Z"/>
                <path class="cls-2" d="M20.24,23.19c-.59.45-1.46.84-2.74.84s-2.15-.39-2.74-.84c.22-1.12.18-1.88.18-1.88h5.12s-.04.77.18,1.88Z"/>
              </g>
              <path class="cls-11" d="M6.3,30.95c.7.59,1.46,1.12,2.25,1.59,1.1-3.03,2.76-5.45,4.76-6.88-2.97.93-5.46,2.83-7.01,5.29ZM21.69,25.66c2,1.43,3.67,3.85,4.76,6.88.79-.47,1.54-1,2.25-1.59-1.55-2.46-4.04-4.35-7.01-5.29Z"/>
              <g>
                <path class="cls-7" d="M16.4,28.11c.05.08.14.12.22.12.05,0,.09-.01.14-.04.12-.08.16-.24.08-.36-.08-.12-.24-.16-.36-.08-.12.08-.16.24-.08.36ZM16.11,27.66c.05.08.13.12.22.12.05,0,.1-.01.14-.04.12-.08.16-.24.08-.36-.08-.12-.24-.16-.36-.08-.12.08-.16.24-.08.36ZM16.68,28.56c.05.08.13.12.22.12.05,0,.1-.01.14-.04.12-.08.16-.24.08-.36-.08-.12-.24-.16-.36-.08-.12.08-.16.24-.08.36ZM16.96,29c.05.08.14.12.22.12.05,0,.1-.01.14-.04.12-.08.16-.24.08-.36-.08-.12-.24-.16-.36-.08-.12.08-.16.24-.08.36ZM15.83,27.21c.05.08.13.12.22.12.05,0,.1-.01.14-.04.12-.08.16-.24.08-.36-.08-.12-.24-.16-.36-.08-.12.08-.16.24-.08.36ZM14.41,24.97c.05.08.13.12.22.12.05,0,.1-.01.14-.04.12-.08.16-.24.08-.36-.08-.12-.24-.16-.36-.08-.12.08-.16.24-.08.36ZM15.55,26.76c.05.08.14.12.22.12.05,0,.1-.01.14-.04.12-.08.16-.24.08-.36-.08-.12-.24-.16-.36-.08-.12.08-.16.24-.08.36ZM14.7,25.42c.05.08.13.12.22.12.05,0,.1-.01.14-.04.12-.08.16-.24.08-.36-.08-.12-.24-.16-.36-.08-.12.08-.16.24-.08.36ZM14.09,24.38c0,.07.03.14.08.19.05.05.12.08.19.08.07,0,.14-.03.19-.07.05-.05.08-.12.08-.19s-.03-.14-.08-.19c-.1-.1-.27-.1-.37,0-.05.05-.08.12-.08.19ZM15.26,26.32c.05.08.14.12.22.12.05,0,.1-.01.14-.04.12-.08.16-.24.08-.36-.08-.12-.24-.16-.36-.08-.12.08-.16.24-.08.36ZM14.98,25.86c.05.08.13.12.22.12.05,0,.1-.01.14-.04.12-.08.16-.24.08-.36-.08-.12-.24-.16-.36-.08-.12.08-.16.24-.08.36ZM19.37,26.4s.09.04.14.04c.08,0,.17-.04.22-.12.08-.12.04-.29-.08-.36-.12-.08-.29-.04-.36.08-.08.12-.04.29.08.36ZM19.08,26.84s.09.04.14.04c.08,0,.17-.05.22-.12.08-.12.04-.29-.08-.36-.12-.08-.29-.04-.36.08-.08.13-.04.29.08.36ZM19.65,25.95s.09.04.14.04c.09,0,.17-.04.22-.12.08-.12.04-.28-.08-.36-.12-.08-.29-.04-.36.08-.08.12-.04.29.08.36ZM19.93,25.5s.09.04.14.04c.09,0,.17-.04.22-.12.08-.12.04-.28-.08-.36-.12-.08-.28-.04-.36.08-.08.12-.04.28.08.36ZM20.22,25.05s.09.04.14.04c.09,0,.17-.04.22-.12.08-.12.04-.28-.08-.36-.12-.08-.29-.04-.36.08-.08.12-.04.29.08.36ZM20.46,24.57s.12.07.19.07.13-.03.19-.08c.05-.05.08-.12.08-.19s-.03-.13-.08-.19c-.1-.1-.27-.1-.37,0-.05.05-.08.12-.08.19s.03.14.08.19ZM18.8,27.29s.09.04.14.04c.09,0,.17-.05.22-.12.08-.12.04-.29-.08-.36-.12-.08-.29-.04-.36.08-.08.13-.04.29.08.36ZM17.95,28.64s.09.04.14.04c.09,0,.17-.04.22-.12.08-.12.04-.28-.08-.36-.12-.08-.28-.04-.36.08-.08.12-.04.28.08.36ZM17.67,29.09s.09.04.14.04c.08,0,.17-.04.22-.12.08-.12.04-.28-.08-.36-.12-.08-.29-.04-.36.08-.08.12-.04.28.08.36ZM18.52,27.74s.09.04.14.04c.09,0,.17-.05.22-.12.08-.12.04-.28-.08-.36-.12-.08-.29-.04-.36.08-.08.12-.04.28.08.36ZM18.23,28.19s.09.04.14.04c.09,0,.17-.04.22-.12.08-.12.04-.28-.08-.36-.12-.08-.29-.04-.36.08-.08.12-.04.28.08.36Z"/>
                <path class="cls-15" d="M16.97,29.76v.32h.37v1.12h.32v-1.12h.37v-.32h-.37v-.41c.17-.07.3-.23.3-.43,0-.25-.21-.46-.46-.46s-.46.21-.46.46c0,.2.13.36.3.43v.41h-.37ZM17.5,29.16c-.14,0-.25-.11-.25-.25s.11-.25.25-.25.25.11.25.25-.11.25-.25.25Z"/>
              </g>
            </g>
            <g>
              <g>
                <path class="cls-16" d="M12.29,14.1c0,3.39,2.33,8.57,5.21,8.57s5.21-5.18,5.21-8.57c0-5.29-2.33-7.14-5.21-7.14s-5.21,1.85-5.21,7.14Z"/>
                <g>
                  <path class="cls-1" d="M17.79,18.23h-.59c-.18,0-.33-.15-.33-.33h1.25c0,.18-.15.33-.33.33Z"/>
                  <path class="cls-6" d="M17.88,17.9h-.23c0,.06.05.12.12.12s.12-.05.12-.12ZM17.1,17.9c0,.06.05.12.12.12s.12-.05.12-.12h-.23Z"/>
                </g>
                <g>
                  <path class="cls-1" d="M14.23,15.09c0,.58.47,1.04,1.04,1.04s1.04-.47,1.04-1.04-.47-1.04-1.04-1.04-1.04.47-1.04,1.04ZM18.68,15.09c0,.58.47,1.04,1.04,1.04s1.04-.47,1.04-1.04-.47-1.04-1.04-1.04-1.04.47-1.04,1.04Z"/>
                  <path d="M19.05,15.09h0c0,.37.3.67.67.67s.67-.3.67-.67h0c0-.37-.3-.67-.67-.67s-.67.3-.67.67ZM14.6,15.09h0c0,.37.3.67.67.67s.67-.3.67-.67h0c0-.37-.3-.67-.67-.67s-.67.3-.67.67Z"/>
                  <path d="M18.82,14.19s.09-.03.12,0l.69.69v-.98s.04-.09.09-.09.09.04.09.09v.98l.69-.69s.09-.03.12,0c.03.03.03.09,0,.12l-.84.84h0s-.04.03-.06.03-.05,0-.06-.03h0l-.84-.84s-.03-.09,0-.12Z"/>
                  <path d="M14.37,14.19s.09-.03.12,0l.69.69v-.98s.04-.09.09-.09.09.04.09.09v.98l.69-.69s.09-.03.12,0c.03.03.03.09,0,.12l-.84.84h0s-.04.03-.06.03-.05,0-.06-.03h0l-.84-.84s-.03-.09,0-.12Z"/>
                  <path class="cls-10" d="M19.82,15.09c0,.12.1.22.22.22s.22-.1.22-.22-.1-.22-.22-.22-.22.1-.22.22ZM15.33,15.09c0,.12.1.22.22.22s.22-.1.22-.22-.1-.22-.22-.22-.22.1-.22.22Z"/>
                </g>
                <g>
                  <path class="cls-5" d="M16.81,19.38c.26,0,.5.09.66.22.16-.13.39-.22.66-.22.32,0,.59.12.74.31-.34.19-.84.32-1.4.32s-1.06-.13-1.4-.32c.15-.18.43-.31.74-.31Z"/>
                  <path class="cls-3" d="M17.47,20.01c-.55,0-1.04-.12-1.38-.31.07.51.66.9,1.38.9s1.31-.39,1.38-.9c-.34.19-.83.31-1.38.31Z"/>
                </g>
                <path class="cls-8" d="M18.41,13.36c.06.1.19.13.29.07.65-.39,1.51-.38,2.15.04.03.02.07.03.11.03.07,0,.14-.03.18-.1.06-.1.03-.23-.06-.29-.77-.5-1.81-.51-2.59-.04-.1.06-.13.19-.07.29ZM13.88,13.36c.06.1.19.13.29.07.65-.39,1.51-.38,2.15.04.03.02.07.03.11.03.07,0,.14-.03.18-.1.06-.1.03-.23-.06-.29-.77-.5-1.81-.51-2.59-.04-.1.06-.13.19-.07.29Z"/>
                <path class="cls-1" d="M22.65,12.8c-.8.13-2.64.38-5.14.38s-4.39-.25-5.17-.38c.36-4.3,2.53-5.85,5.16-5.85s4.8,1.55,5.16,5.85Z"/>
              </g>
              <g>
                <path class="cls-9" d="M17.51,5.52c3.08,0,5.59,2.91,5.59,6.5,0,0-2.19.45-5.59.45s-5.59-.45-5.59-.45c0-3.59,2.5-6.5,5.59-6.5Z"/>
                <path class="cls-10" d="M17.51,7.51c-3.03,0-5.5,2.01-5.58,4.52,0,0,0,0,0,0,0-3.59,2.5-6.5,5.59-6.5s5.59,2.91,5.59,6.5c0,0,0,0,0,0-.08-2.51-2.54-4.52-5.58-4.52Z"/>
              </g>
            </g>
          </g>
        </g>
      </g>
    </g>
  </g>
</svg>