<?xml version="1.0" encoding="UTF-8"?>
<svg xmlns="http://www.w3.org/2000/svg" xmlns:xlink="http://www.w3.org/1999/xlink" viewBox="0 0 35 35">
  <defs>
    <style>
      .cls-1 {
        opacity: .5;
      }

      .cls-1, .cls-2, .cls-3, .cls-4 {
        mix-blend-mode: multiply;
      }

      .cls-1, .cls-5 {
        fill: #fbc288;
      }

      .cls-6, .cls-3 {
        fill: #333;
      }

      .cls-2, .cls-7, .cls-8 {
        opacity: .3;
      }

      .cls-2, .cls-9 {
        fill: #ab3900;
      }

      .cls-10 {
        fill: #f2f2f2;
      }

      .cls-11, .cls-12, .cls-7 {
        fill: #fff;
      }

      .cls-13 {
        isolation: isolate;
      }

      .cls-3 {
        opacity: .2;
      }

      .cls-14 {
        fill: none;
        opacity: 0;
      }

      .cls-12 {
        opacity: .15;
      }

      .cls-7, .cls-8 {
        mix-blend-mode: overlay;
      }

      .cls-15 {
        fill: #ffd73d;
      }

      .cls-4 {
        fill: #d6be89;
      }

      .cls-16 {
        fill: #dc564b;
      }

      .cls-17 {
        fill: url(#linear-gradient);
      }

      .cls-18 {
        fill: #663f30;
      }
    </style>
    <linearGradient id="linear-gradient" x1="1391.42" y1="-16158.03" x2="1391.42" y2="-16168.21" gradientTransform="translate(1408.92 -16152.38) rotate(-180)" gradientUnits="userSpaceOnUse">
      <stop offset="0" stop-color="#fbd099"/>
      <stop offset="1" stop-color="#fbc288"/>
    </linearGradient>
  </defs>
  <g class="cls-13">
    <g id="Lager_2" data-name="Lager 2">
      <g id="Layer_2" data-name="Layer 2">
        <g>
          <circle class="cls-14" cx="17.5" cy="17.5" r="17.5"/>
          <g>
            <g>
              <g>
                <path class="cls-16" d="M13.19,23.05h8.72c5.27,0,8.31,4.51,8.31,6.47,0,.03,0,.05,0,.08-3.2,3.33-7.69,5.4-12.66,5.4s-9.47-2.07-12.66-5.4c0-.03,0-.05,0-.08,0-1.96,3.04-6.47,8.31-6.47Z"/>
                <path class="cls-7" d="M29.85,29.92c-.91-1.61-3.72-3.82-7.98-3.82h-8.72c-4.27,0-7.07,2.2-7.98,3.82-.11-.11-.22-.21-.32-.32,0-.03,0-.05,0-.08,0-1.96,3.04-6.47,8.31-6.47h8.72c5.27,0,8.31,4.51,8.31,6.47,0,.03,0,.05,0,.08-.11.11-.22.21-.32.32Z"/>
                <path class="cls-3" d="M13.14,23.05h8.72c2.26,0,4.11.83,5.48,1.94l-9.83,7.07-9.84-7.08c1.37-1.1,3.22-1.93,5.47-1.93Z"/>
                <path class="cls-16" d="M28.11,22.83l-10.6,9.22-10.6-9.22c2.58-1.89,6.37-3.08,10.6-3.08s8.02,1.19,10.6,3.08Z"/>
                <path class="cls-10" d="M22.14,34.37c-1.48.41-3.04.63-4.65.63s-3.17-.22-4.65-.63v-11.32c.1,0,.19,0,.29,0h8.72c.1,0,.19,0,.29,0v11.32Z"/>
                <path class="cls-18" d="M14.9,34.81c-.7-.1-1.38-.25-2.05-.43v-1.26l8.37-10.06h.64c.1,0,.19,0,.29,0v3.04l-7.24,8.71Z"/>
                <path class="cls-3" d="M21.85,23.05h-.76v11.58c.35-.07.7-.16,1.05-.25v-11.32c-.1,0-.19,0-.29,0ZM12.85,23.06v11.32c.34.09.69.18,1.05.25v-11.58h-.76c-.1,0-.19,0-.29,0Z"/>
                <path class="cls-15" d="M15.78,30.91l.17.15-.22.26c-.09.1-.08.25.02.34.1.09.25.08.34-.02l.22-.26.17.15c.56.49,1.41.43,1.9-.14l.47-.55c.49-.56.43-1.41-.14-1.9l-.7-.61c-.56-.49-1.41-.43-1.9.14l-.47.55c-.49.56-.43,1.41.13,1.9ZM16.48,28.77c.31-.36.87-.4,1.23-.09l.7.61c.36.31.4.87.09,1.23l-.47.55c-.31.36-.87.4-1.23.09l-.17-.15.24-.28c.09-.1.08-.25-.02-.33-.1-.09-.25-.08-.33.02l-.24.28-.17-.15c-.36-.31-.4-.87-.09-1.23l.47-.55Z"/>
              </g>
              <path class="cls-15" d="M22.15,28.74v.88h1.51c0,.25.2.45.44.45s.44-.2.44-.44h0s.11,0,.11,0c.24,0,.44-.2.44-.44s-.2-.44-.44-.44h-.11c0-.24-.2-.44-.44-.44s-.44.2-.44.44h-1.51ZM23.66,31.38h-1.51v.88h1.51c0,.25.2.45.44.45s.44-.2.44-.44h0s.11,0,.11,0c.24,0,.44-.2.44-.44s-.2-.44-.44-.44h-.11c0-.24-.2-.44-.44-.44s-.44.2-.44.44Z"/>
              <path class="cls-15" d="M11.34,28.74c0-.24-.2-.44-.44-.44s-.44.2-.44.44h-.11c-.24,0-.44.2-.44.44s.2.44.44.44h.11c0,.25.2.45.44.45s.44-.2.44-.44h0s1.51,0,1.51,0v-.88h-1.51ZM10.9,30.94c-.24,0-.44.2-.44.44h-.11c-.24,0-.44.2-.44.44s.2.44.44.44h.11c0,.25.2.45.44.45s.44-.2.44-.44h0s1.51,0,1.51,0v-.88h-1.51c0-.24-.2-.44-.44-.44Z"/>
            </g>
            <g>
              <g>
                <rect class="cls-5" x="11" y="13.85" width="12.99" height="4.13" rx="1.39" ry="1.39"/>
                <path class="cls-17" d="M17.5,5.56c3.09,0,5.6,2.51,5.6,5.6v6.48c0,3.09-2.51,7.67-5.6,7.67s-5.6-4.57-5.6-7.67v-6.48c0-3.09,2.51-5.6,5.6-5.6Z"/>
                <path class="cls-1" d="M14.22,15.76c0,.58.47,1.05,1.05,1.05s1.05-.47,1.05-1.05-.47-1.05-1.05-1.05-1.05.47-1.05,1.05ZM18.68,15.76c0,.58.47,1.05,1.05,1.05s1.05-.47,1.05-1.05-.47-1.05-1.05-1.05-1.05.47-1.05,1.05Z"/>
                <path d="M20.41,15.76h-1.35c0,.37.3.67.67.67s.67-.3.67-.67h0ZM14.59,15.76h0c0,.37.3.67.67.67s.67-.3.67-.67h-1.35Z"/>
                <g>
                  <path class="cls-1" d="M17.97,19.18h-.93c-.29,0-.52-.23-.52-.52h1.98c0,.29-.23.52-.52.52Z"/>
                  <path class="cls-4" d="M18.11,18.66h-.36c0,.1.08.18.18.18s.18-.08.18-.18ZM16.88,18.66c0,.1.08.18.18.18s.18-.08.18-.18h-.36Z"/>
                </g>
                <g>
                  <path class="cls-11" d="M15.54,15.98c-.12,0-.22-.1-.22-.22h.44c0,.12-.1.22-.22.22Z"/>
                  <path class="cls-11" d="M20.05,15.98c-.12,0-.22-.1-.22-.22h.44c0,.12-.1.22-.22.22Z"/>
                </g>
                <g>
                  <path class="cls-18" d="M13.87,14.51c-.01-.08.02-.16.1-.21.78-.47,1.81-.45,2.57.04.07.05.11.13.09.21,0,0,0,.53,0,.53,0,.03-.01.06-.03.09-.04.06-.11.09-.17.09-.04,0-.08-.01-.11-.03-.63-.41-1.49-.42-2.14-.04-.1.06-.22.03-.28-.07-.02-.03-.02-.06-.03-.09,0,0,0-.5,0-.5,0,0,0,0,0-.01,0,0,0,0,0-.01,0,0,0,0,0-.01Z"/>
                  <path class="cls-18" d="M18.46,14.3c.78-.47,1.81-.45,2.57.04.07.05.11.13.09.21,0,0,0,.51,0,.51,0,0,0,0,0,.01,0,0,0,0,0,.01,0,.03-.01.06-.03.09-.04.06-.11.09-.17.09-.04,0-.08-.01-.11-.03-.63-.41-1.49-.42-2.14-.04-.1.06-.22.03-.28-.07-.02-.03-.02-.06-.03-.09,0,0,0,0,0-.01,0,0,0,0,0-.01,0,0,0,0,0-.01,0,0,0-.49,0-.49,0,0,0,0,0-.01-.01-.08.02-.16.1-.21Z"/>
                </g>
                <g class="cls-8">
                  <path class="cls-11" d="M17.5,5.56c-3.09,0-5.6,2.51-5.6,5.6,0-1.63,2.51-3.61,5.6-3.61s5.6,2.1,5.6,3.61c0-3.09-2.51-5.6-5.6-5.6Z"/>
                </g>
                <rect class="cls-1" x="11.9" y="14.38" width="11.2" height="1.82"/>
              </g>
              <g>
                <path class="cls-9" d="M11.05,24.03c.16-.45.61-.61,1.08-.72,0,0,0-.02-.01-.03-.04-.08-.08-.16-.11-.24-.02-.04-.04-.07-.05-.11-.15-.18-.28-.37-.35-.63-.08-.3-.08-.61,0-.89,0-.08,0-.17,0-.25,0-.01,0-.03,0-.04,0-.03,0-.05,0-.08,0-.01,0-.03,0-.04v-4.55c0-.17.06-.33.17-.45.04-.05.09-.1.14-.13h0s0,0,0,0v1.43c0,.09,0,.18,0,.27,0,.08,0,.16,0,.23,0,.1,0,.19.01.28,0,.07,0,.14.01.2,0,.09.01.17.02.26,0,.07.02.14.03.21,0,.07.02.14.03.2.02.13.04.26.07.38,0,.01,0,.02,0,.03.03.13.06.25.1.37,0,.03.02.06.03.08.04.12.08.23.13.33,0,.02.02.03.02.05.04.09.09.17.13.24.01.02.03.05.04.07.05.08.11.16.17.23.01.01.03.03.04.04.05.06.11.11.16.15.02.02.04.03.06.05.07.05.14.1.21.14.02.01.04.02.06.03.06.03.12.06.18.09.03.01.05.02.08.03.08.03.16.05.24.07.03,0,.06.01.09.02.06.01.12.03.18.04.04,0,.07.01.11.02.08.01.16.02.25.03.05,0,.1,0,.15,0,.04,0,.09,0,.13,0,.83.02,1.81-.11,2.85-.11.74,0,1.44.07,2.09.1.04,0,.08,0,.13,0,.4.02.78.02,1.13-.03,0,0,0,0,0,0,.07,0,.13-.02.2-.03,0,0,.01,0,.02,0,.06-.01.13-.03.19-.04,0,0,0,0,.01,0,.13-.03.25-.08.37-.13.02,0,.03-.02.05-.02.04-.02.08-.04.12-.06.02-.01.05-.03.07-.04.03-.02.06-.04.09-.06.03-.02.05-.04.08-.06.02-.02.05-.04.07-.06.03-.02.06-.05.08-.08.02-.02.04-.04.05-.05.03-.03.06-.06.09-.1.01-.01.02-.03.04-.05.03-.04.06-.08.09-.13,0,0,0-.01.01-.02.03-.05.07-.11.1-.17.04-.07.08-.15.12-.24,0-.01.01-.03.02-.04.03-.07.05-.14.08-.21.01-.03.02-.07.03-.1.02-.06.04-.12.05-.18.01-.05.03-.1.04-.15.01-.05.02-.1.03-.16.01-.06.03-.13.04-.2,0-.05.01-.09.02-.14.01-.08.02-.16.03-.25,0-.04,0-.08.01-.11,0-.1.02-.2.03-.3,0-.02,0-.04,0-.06.02-.26.03-.55.03-.85v-1.43h0s0,0,0,0c.06.04.11.09.15.14.1.12.16.27.16.44v4.55s0,.03,0,.04c0,.03,0,.05,0,.08,0,.02,0,.05,0,.07,0,.12,0,.25-.02.37,0,.07-.02.15-.03.22,0,.05-.02.09-.02.14-.07.43-.2.84-.37,1.22,0,0,0,0,0,0,.38.16.66.43.79.79.15.47.08.93-.23,1.38-.12.17-.31.33-.42.49-.05.01-.03.08-.02.1h0c-.01.48,1.13.34,1.29.86-.3-.28-.74-.1-1.14-.05-.39.04-.72-.04-.97-.29-.35-.37-.25-.89-.13-1.38-.27.03-.52.11-.78.13-.07.06-.14.12-.21.17.3.3.47.68.44,1.07-.05.49-.3.88-.76,1.18-.18.1-.41.17-.58.29-.07-.02-.06.16-.07.07-.21.44.9.77.83,1.31-.17-.37-.64-.39-1.02-.49-.37-.12-.65-.32-.77-.65-.18-.48.12-.91.43-1.32-.38-.11-.75-.11-1.11-.36-.04-.03-.07-.06-.1-.09h0c0,.08,0,.17-.02.26-.11.48-.42.83-.92,1.06-.19.08-.43.12-.61.2-.05-.02-.07.06-.08.08v-.02s0,0,0,0c-.26.41.78.88.64,1.42-.12-.4-.58-.47-.94-.63-.35-.16-.59-.41-.67-.76-.1-.5.25-.89.61-1.25-.36-.16-.72-.21-1.05-.52-.04-.04-.08-.08-.12-.13-.21.31-.53.52-.96.63-.2.05-.45.03-.64.09-.05-.02-.08.04-.09.06,0,0,0-.01,0-.02t0,0c-.33.35.61,1.01.37,1.51-.04-.41-.48-.57-.82-.79-.32-.23-.51-.51-.52-.87-.01-.51.41-.83.83-1.12-.33-.23-.68-.34-.93-.7-.07-.09-.12-.19-.17-.28-.12-.03-.23-.07-.34-.08-.04-.05-.09.02-.11.03,0,0,0-.01,0-.01-.44.21.2,1.16-.19,1.54.1-.4-.25-.7-.48-1.03-.21-.32-.29-.66-.17-.99Z"/>
                <path class="cls-2" d="M11.78,22.71c.11-.04.22-.07.34-.1,0,0,0-.02-.01-.03-.04-.08-.08-.16-.11-.24-.02-.04-.04-.07-.05-.11-.15-.18-.28-.37-.35-.63,0-.03-.01-.07-.02-.1-.05.25-.05.53.02.8.04.16.11.29.19.41ZM23.41,20.34s0,.05,0,.08v-.12s0,.03,0,.04ZM23.41,21.12s0-.05,0-.08c0-.01,0-.03,0-.04v-.58s0,.05,0,.07c0,.12,0,.25-.02.37,0,.07-.02.15-.03.22,0,.05-.02.09-.02.14-.07.43-.2.84-.37,1.22,0,0,0,0,0,0,.08.03.15.08.22.12.06-.21.12-.42.15-.64,0-.05.02-.09.02-.14.01-.07.02-.15.03-.22.01-.12.02-.24.02-.37,0-.02,0-.04,0-.07ZM23.52,25.31c.29-.42.37-.84.26-1.27-.05.19-.13.38-.26.57-.12.17-.31.33-.42.49-.05.01-.03.08-.02.11h0c0,.15.11.24.27.31.06-.07.13-.14.18-.21ZM11.59,20.3v.12s0-.05,0-.08c0-.01,0-.03,0-.04ZM21.48,25.16c.18-.02.35-.06.54-.09,0-.23.05-.48.11-.72-.27.03-.52.11-.78.13-.07.06-.14.12-.21.17.16.16.27.33.35.52ZM11.59,20.45s0-.03,0-.04v.33s0-.03,0-.04c0-.08,0-.17,0-.25ZM22.05,25.37c-.07.39-.08.77.2,1.06.24.26.58.34.97.29.4-.06.83-.23,1.14.05-.14-.47-1.07-.41-1.25-.74-.33.01-.63-.07-.85-.3-.1-.11-.16-.23-.2-.36ZM13.68,26.77c.19-.05.42-.04.61-.08.43-.1.74-.32.96-.63.04.04.08.09.12.13.19.18.39.27.6.35.12-.19.28-.36.45-.53-.36-.16-.72-.21-1.05-.52-.04-.04-.08-.08-.12-.13-.21.31-.53.52-.96.63-.2.05-.45.03-.64.09-.05-.02-.08.04-.09.06,0,0,0-.01,0-.02t0,0c-.15.16-.03.4.12.65ZM12.68,26.31c-.05.11-.08.23-.08.37.01.35.21.64.52.87.33.22.77.39.82.79.18-.4-.37-.89-.44-1.26-.12-.08-.26-.15-.38-.23-.21-.15-.36-.33-.44-.54ZM11.89,24.52s0,.01,0,.01c.01-.01.07-.07.11-.03.11.01.22.04.34.08.05.1.1.19.17.28.13.18.28.29.44.4.14-.14.32-.27.5-.4-.33-.23-.68-.34-.93-.7-.07-.09-.12-.19-.17-.28-.12-.03-.23-.07-.34-.08-.04-.05-.09.02-.11.03,0,0,0-.01,0-.01-.24.11-.16.44-.1.79.02-.03.05-.06.1-.09ZM11.22,25.03c.23.33.58.64.48,1.03.19-.19.14-.51.08-.82-.02.04-.05.09-.08.12.1-.4-.25-.7-.48-1.03-.07-.11-.12-.22-.16-.33,0,.01-.01.02-.02.03-.12.33-.04.67.17.99ZM15.87,27.42c-.07.17-.1.34-.06.54.08.35.32.59.67.76.37.16.83.23.94.63.12-.45-.62-.87-.68-1.23-.09-.03-.18-.07-.27-.1-.29-.14-.5-.33-.61-.59ZM20.81,27.59c.47-.29.72-.69.76-1.18,0-.14-.02-.28-.06-.42-.1.36-.34.66-.71.89-.18.1-.41.17-.58.29-.07-.02-.06.16-.07.07-.09.19.06.35.25.52.13-.06.27-.11.39-.18ZM19.23,27.46c-.08.21-.11.43-.02.66.12.33.4.54.77.65.38.1.85.12,1.02.49.05-.48-.78-.79-.85-1.15-.06-.01-.11-.03-.17-.04-.35-.11-.62-.31-.75-.61ZM16.99,27.81c.16-.05.34-.09.48-.15.5-.22.81-.58.92-1.06.02-.09.02-.17.02-.26h0s.06.06.1.09c.24.17.48.22.73.28.09-.21.24-.41.38-.61-.38-.11-.75-.11-1.11-.36-.04-.03-.07-.06-.1-.09h0c0,.08,0,.17-.02.26-.11.48-.42.83-.92,1.06-.19.08-.43.12-.61.2-.05-.02-.07.06-.08.08v-.02s0,0,0,0c-.12.18.03.38.21.58Z"/>
                <g>
                  <path class="cls-2" d="M11.7,22.17c.55-.18,1.26-.52,1.99-.86.99.27,2.3.02,3.75,0-.35,1.58-3.62,2.05-5.5,1.61-.1-.25-.19-.5-.24-.76Z"/>
                  <path class="cls-2" d="M21.3,21.31c.73.34,1.44.68,1.99.86-.06.26-.14.51-.24.76-1.88.44-5.15-.02-5.5-1.61,1.45,0,2.77.26,3.75,0Z"/>
                </g>
                <path class="cls-9" d="M17.52,20.34c0,2.51,6.84,2.58,6.84.91,0,1.75-6.84-3.6-6.84-.91ZM10.64,21.25c0,1.67,6.84,1.6,6.84-.91,0-2.69-6.84,2.66-6.84.91Z"/>
                <path class="cls-7" d="M10.67,21.4c.05.19.19.35.4.49,1.42-.04,5.95-2.61,6.38-1.26.02-.09.04-.19.04-.29,0-2.6-6.38,2.3-6.81,1.06ZM10.64,21.25c0,.06,0,.11.02.15-.01-.05-.02-.1-.02-.15ZM17.52,20.34c0,.1.01.2.04.29.43-1.35,4.95,1.22,6.38,1.26.21-.14.35-.3.4-.49-.43,1.24-6.81-3.66-6.81-1.06ZM24.35,21.25c0,.05-.01.1-.02.15.01-.04.02-.09.02-.15Z"/>
              </g>
            </g>
            <g>
              <path class="cls-6" d="M11.7,9.02c0,2.96,2.59,5.37,5.8,5.37s5.8-2.4,5.8-5.37-2.59-5.37-5.8-5.37-5.8,2.4-5.8,5.37Z"/>
              <path class="cls-3" d="M17.5,14.38c-3.2,0-5.8-2.4-5.8-5.37,0-.88.23-1.7.63-2.43.17-.03.34-.05.51-.05,1.79,0,3.42,1.7,4.65,3.51,1.23-1.82,2.86-3.51,4.65-3.51.17,0,.34.02.51.05.4.73.63,1.55.63,2.43,0,2.96-2.59,5.37-5.8,5.37Z"/>
              <path class="cls-12" d="M17.5,5.12c-2.93,0-5.34,2.02-5.73,4.63-.04-.24-.06-.49-.06-.74,0-2.97,2.59-5.37,5.8-5.37s5.8,2.4,5.8,5.37c0,.25-.03.5-.06.74-.39-2.61-2.8-4.63-5.73-4.63Z"/>
              <path class="cls-6" d="M5.89,14.38s3.12-6.48,6.96-6.48c1.79,0,3.42,1.4,4.65,2.9,1.23-1.5,2.86-2.9,4.65-2.9,3.85,0,6.96,6.48,6.96,6.48H5.89Z"/>
              <path class="cls-15" d="M12.71,8.41c1.73,0,3.34,1.75,4.39,3.21l.4.56.4-.56c1.05-1.46,2.66-3.21,4.39-3.21,2.73,0,5.25,4.4,6.07,5.98h-.44c-.87-1.65-3.21-5.59-5.63-5.59-1.57,0-3.08,1.66-4.08,3.05l-.71,1-.71-1c-1-1.39-2.51-3.05-4.08-3.05-2.43,0-4.76,3.94-5.63,5.59h-.44c.82-1.58,3.34-5.98,6.07-5.98Z"/>
              <path class="cls-15" d="M16.76,6.99c-.05.08-.08.19-.08.34,0,.06,0,.13.01.19l.03.23.23-.06s.06-.02.1-.02c0,.02.02.05.05.07l.07.06h.09c.05-.01.11-.02.17-.02h.04s.04-.01.04-.01c.02,0,.05.01.08.02.05,0,.1,0,.15,0h.05s.04,0,.04,0c.07-.02.11-.06.13-.12.04,0,.08.02.11.03l.22.06.04-.23c.01-.06.02-.12.02-.19,0-.16-.03-.27-.09-.36.19-.12.31-.29.31-.47,0-.11-.04-.21-.1-.3.04-.12.06-.24.06-.37,0-.33-.06-.6-.2-.79-.17-.24-.43-.37-.78-.37-.13,0-.26.02-.37.05-.4.14-.63.53-.64,1.08,0,.12.01.23.04.34-.09.1-.13.21-.13.33,0,.2.12.38.32.5ZM17.58,6.53c0-.15.12-.27.27-.27.15,0,.27.13.27.27,0,.15-.13.27-.27.27-.02,0-.05,0-.07-.01-.02-.02-.05-.03-.08-.04h0c-.07-.05-.11-.13-.11-.22ZM16.9,6.52c0-.15.13-.27.27-.27.15,0,.26.12.26.27,0,.15-.12.27-.27.27s-.27-.13-.27-.27Z"/>
            </g>
          </g>
        </g>
      </g>
    </g>
  </g>
</svg>