<?xml version="1.0" encoding="UTF-8"?>
<svg xmlns="http://www.w3.org/2000/svg" xmlns:xlink="http://www.w3.org/1999/xlink" viewBox="0 0 35 35">
  <defs>
    <style>
      .cls-1 {
        fill: #333;
        opacity: .1;
      }

      .cls-1, .cls-2, .cls-3, .cls-4 {
        mix-blend-mode: multiply;
      }

      .cls-2, .cls-5 {
        opacity: .5;
      }

      .cls-2, .cls-6 {
        fill: #fbc288;
      }

      .cls-7 {
        fill: #f2b77c;
      }

      .cls-8 {
        fill: #f2f2f2;
      }

      .cls-9, .cls-5, .cls-10 {
        fill: #fff;
      }

      .cls-11, .cls-4 {
        fill: #d6be89;
      }

      .cls-12 {
        isolation: isolate;
      }

      .cls-13 {
        fill: none;
        opacity: 0;
      }

      .cls-14 {
        fill: #95d8e9;
      }

      .cls-10, .cls-15 {
        mix-blend-mode: overlay;
      }

      .cls-15 {
        opacity: .3;
      }

      .cls-16 {
        fill: #dc564b;
      }

      .cls-17 {
        fill: url(#linear-gradient);
      }
    </style>
    <linearGradient id="linear-gradient" x1="1445.54" y1="-16506.24" x2="1445.54" y2="-16494.29" gradientTransform="translate(1463.04 -16486.45) rotate(-180)" gradientUnits="userSpaceOnUse">
      <stop offset="0" stop-color="#fbc288"/>
      <stop offset="1" stop-color="#fbd099"/>
    </linearGradient>
  </defs>
  <g class="cls-12">
    <g id="Lager_2" data-name="Lager 2">
      <g id="Layer_2" data-name="Layer 2">
        <g>
          <circle class="cls-13" cx="17.5" cy="17.5" r="17.5"/>
          <g>
            <path class="cls-8" d="M7.32,12.23c.04-.27.19-.57.46-.83.25-.25.61-.45,1.01-.54.13-.63.32-1.24.57-1.81,0,0,0,0,0,0-.08-.06-.17-.12-.27-.17-.2-.08-.46-.11-.69-.06-.24.05-.45.17-.59.32-.07.08-.12.16-.16.24-.02.04-.03.08-.04.12-.01.04-.02.07-.02.1-.02.13,0,.21,0,.21,0,0-.04-.06-.08-.2-.01-.03-.02-.07-.02-.12,0-.04-.01-.09-.01-.14,0-.1.02-.22.06-.35.09-.26.29-.53.59-.74.3-.21.69-.35,1.11-.36.21,0,.43.02.63.08.02,0,.03.01.05.02.32-.52.69-1.01,1.11-1.46-.02-.02-.03-.04-.05-.07-.15-.16-.37-.29-.61-.33-.24-.05-.48-.02-.67.06-.09.04-.18.1-.24.16-.03.03-.06.06-.08.09-.03.03-.05.06-.06.09-.07.11-.09.19-.09.19,0,0-.01-.08,0-.22,0-.04.01-.08.02-.12,0-.04.03-.09.05-.14.04-.1.11-.2.2-.3.18-.2.48-.37.84-.44.36-.08.77-.04,1.17.11.11.05.21.1.32.16.46-.38.96-.72,1.49-1.01-.03-.08-.07-.16-.12-.24-.12-.18-.32-.34-.55-.43-.23-.09-.47-.1-.67-.05-.1.03-.19.07-.26.12-.04.02-.07.05-.1.08-.03.03-.06.05-.07.08-.09.1-.12.18-.12.17,0,0,0-.08.04-.21,0-.04.02-.07.04-.11.02-.04.04-.08.07-.13.05-.09.14-.18.24-.26.21-.17.53-.29.9-.3.36-.02.77.08,1.13.3.18.11.35.25.49.41.03.03.05.06.07.09.71-.26,1.46-.44,2.24-.52,0-.04.01-.09.02-.13,0-.25-.07-.54-.23-.77-.15-.24-.38-.41-.6-.5-.11-.04-.22-.07-.32-.07-.05,0-.1,0-.14,0-.05,0-.09.01-.12.02-.15.03-.23.09-.23.08,0,0,.05-.07.18-.17.03-.03.07-.05.12-.08.04-.03.09-.05.15-.07.11-.05.25-.08.41-.08.31-.01.7.08,1.05.32.35.23.67.6.87,1.04.05.12.09.24.12.36.75.03,1.48.16,2.17.36.05-.08.1-.17.13-.27.07-.24.08-.54-.01-.81-.08-.27-.25-.5-.44-.64-.1-.07-.2-.12-.29-.15-.05-.02-.1-.03-.14-.03-.04,0-.09-.01-.12-.01-.15,0-.25.02-.24.02,0,0,.07-.06.22-.12.04-.02.08-.03.13-.04.05-.02.1-.02.16-.03.12-.02.26,0,.41.03.3.07.65.27.92.59.28.32.48.75.55,1.24.03.24.02.48,0,.72.48.23.93.5,1.36.8,0-.02,0-.04.01-.07.03-.28-.04-.56-.16-.76-.06-.1-.13-.19-.21-.25-.04-.03-.08-.06-.12-.08-.04-.02-.07-.05-.11-.06-.14-.07-.24-.07-.23-.08,0,0,.09-.03.25-.02.04,0,.09,0,.14.01.05,0,.11.02.16.04.12.03.24.1.37.19.25.18.49.5.62.9.09.26.12.55.1.86.68.62,1.26,1.34,1.71,2.15,0,0,0,0,.01-.01.16-.15.28-.38.33-.61.05-.24.02-.48-.07-.67-.04-.09-.1-.18-.16-.24-.03-.03-.06-.06-.09-.08-.03-.02-.06-.05-.09-.06-.11-.07-.2-.08-.19-.09,0,0,.08-.01.22,0,.04,0,.08.01.12.02.04,0,.09.02.14.05.1.04.2.1.3.19.2.18.38.47.45.83.08.35.05.77-.1,1.17-.08.2-.19.38-.32.55,0,0-.01.02-.02.02.29.73.5,1.5.59,2.31.09-.05.17-.11.25-.18.21-.19.34-.44.39-.67.02-.12.03-.23,0-.33,0-.05-.02-.1-.03-.14-.01-.04-.02-.08-.04-.12-.06-.14-.13-.21-.12-.21,0,0,.08.04.2.15.03.03.06.06.1.1.03.04.07.08.1.14.07.1.12.23.15.39.07.31.04.7-.14,1.09-.15.36-.44.71-.8.97-.01.84-.14,1.65-.37,2.41.04.01.09.02.14.03.25.03.55-.02.79-.15.25-.13.45-.33.55-.54.05-.11.09-.22.1-.32,0-.05.01-.1,0-.14,0-.05,0-.09,0-.12-.02-.15-.07-.24-.06-.24,0,0,.07.06.15.2.02.04.05.08.06.12.02.05.04.1.06.16.04.12.05.26.04.41-.02.31-.16.69-.42,1.01-.26.33-.66.6-1.13.75-.23.07-.48.11-.73.11-.02,0-.04,0-.05,0-.26.54-.57,1.04-.92,1.51.06.06.13.12.22.17.22.13.51.2.79.17.28-.02.54-.13.72-.29.09-.08.16-.16.21-.25.03-.04.05-.09.06-.13.02-.04.03-.08.04-.12.04-.15.03-.24.04-.24,0,0,.04.08.06.24,0,.04.01.09.01.14,0,.05,0,.11,0,.17-.01.12-.05.26-.12.4-.14.28-.41.57-.78.77-.37.2-.84.3-1.33.26-.24-.02-.49-.09-.72-.18-.04-.02-.08-.04-.12-.06-1.6,1.55-3.78,2.5-6.18,2.5-2.88,0-5.43-1.37-7.06-3.48-.02,0-.04,0-.06,0-.1-.01-.19,0-.29.01-.1.02-.2.05-.3.11-.19.11-.37.29-.48.5-.11.22-.15.46-.11.66.02.1.05.19.09.27.02.04.04.07.07.1.02.03.04.06.07.08.09.1.17.13.16.14,0,0-.08,0-.21-.06-.03-.01-.07-.03-.11-.05-.04-.02-.08-.05-.12-.08-.08-.06-.16-.15-.24-.27-.14-.23-.24-.56-.21-.92.02-.36.16-.76.41-1.1.13-.17.28-.32.45-.45.04-.03.08-.05.13-.08-.28-.51-.51-1.05-.69-1.61-.03,0-.06-.01-.1-.01-.22,0-.47.05-.67.19-.21.13-.36.32-.44.51-.04.1-.06.19-.06.28,0,.04,0,.09,0,.12,0,.04,0,.07.02.11.03.13.07.2.07.2,0,0-.06-.05-.15-.16-.02-.03-.04-.06-.06-.1-.02-.04-.04-.08-.06-.13-.04-.1-.06-.22-.07-.35,0-.27.08-.6.29-.9.2-.3.52-.57.91-.73.02,0,.04-.01.06-.02-.1-.54-.16-1.09-.16-1.66,0-.27.01-.53.04-.79-.17,0-.34.02-.5.08-.23.09-.41.24-.53.42-.05.09-.09.18-.11.26-.01.04-.02.08-.02.12,0,.04,0,.08,0,.11,0,.13.03.21.03.21,0,0-.05-.06-.11-.19-.02-.03-.03-.07-.04-.11-.02-.04-.03-.09-.03-.14-.02-.1-.02-.22,0-.36Z"/>
            <g>
              <path class="cls-8" d="M13.16,23.09h8.69c5.25,0,8.28,4.5,8.28,6.45,0,.03,0,.05,0,.08-3.18,3.31-7.66,5.38-12.62,5.38s-9.43-2.07-12.62-5.38c0-.03,0-.05,0-.08,0-1.95,3.03-6.45,8.28-6.45Z"/>
              <path class="cls-10" d="M29.8,29.94c-.91-1.61-3.7-3.8-7.95-3.8h-8.69c-4.25,0-7.04,2.2-7.95,3.8-.11-.11-.22-.21-.32-.32,0-.03,0-.05,0-.08,0-1.95,3.03-6.45,8.28-6.45h8.69c5.25,0,8.28,4.5,8.28,6.45,0,.03,0,.05,0,.08-.1.11-.21.21-.32.32Z"/>
              <polygon class="cls-1" points="13.31 22.31 13.31 22.3 21.7 22.3 24.83 28.88 21.59 27.95 17.51 29.05 17.51 29.05 13.42 27.95 10.19 28.88 13.31 22.31"/>
              <polygon class="cls-8" points="13.31 22.31 13.31 22.3 21.7 22.3 24.83 28.88 21.59 27.13 17.51 29.05 17.51 29.05 13.42 27.13 10.19 28.88 13.31 22.31"/>
              <path class="cls-7" d="M13.82,23.1v-3.33h7.39v3.7c0,3.14-3.7,5.58-3.7,5.58,0,0-3.7-2.44-3.7-5.58,0-.12,0-.25.02-.37Z"/>
              <path class="cls-6" d="M13.82,23.1v-3.33h7.39v3.7c0,3.14-3.7,5.58-3.7,5.58,0,0-3.7-2.44-3.7-5.58,0-.12,0-.25.02-.37Z"/>
              <polygon class="cls-10" points="24.83 28.88 21.59 27.13 21.7 22.3 24.83 28.88"/>
              <polygon class="cls-10" points="10.19 28.88 13.42 27.13 13.31 22.3 10.19 28.88"/>
              <circle class="cls-16" cx="19.56" cy="30.66" r=".59"/>
              <circle class="cls-16" cx="19.56" cy="33.32" r=".59"/>
              <circle class="cls-16" cx="15.36" cy="30.66" r=".59"/>
              <circle class="cls-16" cx="15.36" cy="33.32" r=".59"/>
              <path class="cls-2" d="M17.51,28.03s3.7-2.17,3.7-4.97v.41c0,3.14-3.7,5.58-3.7,5.58,0,0-3.7-2.44-3.7-5.58,0-.08,0-.17.01-.25.14,2.72,3.69,4.81,3.69,4.81Z"/>
            </g>
            <g>
              <rect class="cls-6" x="11.03" y="13.62" width="12.94" height="4.11" rx="1.39" ry="1.39"/>
              <path class="cls-17" d="M17.5,6.41c3.08,0,5.58,2.5,5.58,5.58v5.72c0,3.08-2.5,7.33-5.58,7.33s-5.58-4.25-5.58-7.33v-5.72c0-3.08,2.5-5.58,5.58-5.58Z"/>
              <g class="cls-3">
                <path class="cls-11" d="M15.61,21.54h3.69c.12,0,.21-.09.21-.21s-.09-.21-.21-.21h-3.69c-.12,0-.21.09-.21.21s.09.21.21.21Z"/>
              </g>
              <g>
                <path class="cls-2" d="M17.97,18.93h-.93c-.29,0-.52-.23-.52-.52h1.97c0,.29-.23.52-.52.52Z"/>
                <path class="cls-4" d="M18.11,18.41h-.36c0,.1.08.18.18.18s.18-.08.18-.18ZM16.88,18.41c0,.1.08.18.18.18s.18-.08.18-.18h-.36Z"/>
              </g>
              <g>
                <path class="cls-8" d="M13.88,12.54c-.01-.08.02-.16.1-.21.78-.46,1.8-.45,2.56.04.07.05.1.13.09.21,0,0,0,.53,0,.53,0,.03-.01.06-.03.09-.04.06-.11.09-.17.09-.04,0-.08-.01-.11-.03-.63-.41-1.48-.42-2.13-.04-.1.06-.22.03-.28-.07-.02-.03-.02-.06-.03-.09,0,0,0-.49,0-.5,0,0,0,0,0-.01,0,0,0,0,0-.01,0,0,0,0,0-.01Z"/>
                <path class="cls-8" d="M18.46,12.33c.78-.46,1.8-.45,2.56.04.07.05.1.13.09.21,0,0,0,.51,0,.51,0,0,0,0,0,.01,0,0,0,0,0,.01,0,.03-.01.06-.03.09-.04.06-.11.09-.17.09-.04,0-.08-.01-.11-.03-.63-.41-1.48-.42-2.13-.04-.1.06-.22.03-.28-.07-.02-.03-.02-.06-.03-.09,0,0,0,0,0-.01,0,0,0,0,0-.01,0,0,0,0,0-.01,0,0,0-.48,0-.49,0,0,0,0,0-.01-.01-.08.02-.16.1-.21Z"/>
              </g>
              <g class="cls-15">
                <path class="cls-9" d="M17.5,6.41c-3.08,0-5.58,2.5-5.58,5.58,0-1.63,2.5-3.6,5.58-3.6s5.58,2.09,5.58,3.6c0-3.08-2.5-5.58-5.58-5.58Z"/>
              </g>
              <path class="cls-2" d="M11.79,13.61c.06-.08.17-.09.25-.02l1.54,1.52c.2-.34.49-.6.86-.73.54-.19,1.09-.05,1.5.33.08.08.16.16.22.25.02.03.04.06.06.1.07.11.13.23.18.35,0,0,0,.01,0,.02.01,0,.03,0,.04,0h2.09s.05,0,.07.02c.18-.49.53-.89,1.01-1.06.32-.11.65-.11.95,0,.2.07.39.18.55.33.08.08.16.16.22.25.02.03.04.06.06.1.01.02.02.04.04.06l1.54-1.53c.07-.07.18-.06.25.02.06.08.06.21-.02.28l-1.6,1.59s.04.08.05.13c.07.25.09.5.06.74-.04.48-.25.93-.57,1.24-.16.16-.35.28-.57.35-.86.3-1.77-.25-2.03-1.23-.08-.3-.08-.6-.04-.89h-2c.03.18.04.35.03.52-.04.48-.25.93-.57,1.24-.16.16-.35.28-.57.35-.86.3-1.77-.25-2.03-1.23-.11-.42-.08-.85.05-1.23l-1.6-1.58c-.07-.07-.08-.2-.02-.28Z"/>
              <g>
                <path class="cls-9" d="M21.15,15.15c-.07.06-.08.17-.02.25.03.04.08.06.13.06.04,0,.08-.01.11-.04l1.81-1.57c.07-.06.08-.17.02-.25-.06-.07-.17-.08-.25-.02l-1.81,1.57ZM11.8,13.85l1.81,1.57s.07.04.11.04c.05,0,.1-.02.13-.06.06-.07.05-.18-.02-.25l-1.81-1.57c-.07-.06-.18-.06-.25.02-.06.07-.05.18.02.25ZM16.26,15.36c0,.1.08.17.17.17h2.09c.1,0,.17-.08.17-.17s-.08-.17-.17-.17h-2.09c-.1,0-.17.08-.17.17Z"/>
                <g>
                  <path class="cls-14" d="M13.35,16.3c.26.86,1.18,1.34,2.03,1.07.86-.26,1.34-1.18,1.07-2.03-.26-.86-1.18-1.34-2.03-1.07-.86.26-1.34,1.18-1.07,2.03Z"/>
                  <path class="cls-5" d="M14.43,14.27c.86-.26,1.77.22,2.03,1.07.26.86-.22,1.77-1.07,2.03l-.96-3.11Z"/>
                </g>
                <g>
                  <path class="cls-14" d="M18.53,16.3c.26.86,1.18,1.34,2.03,1.07.86-.26,1.34-1.18,1.07-2.03s-1.18-1.34-2.03-1.07c-.86.26-1.34,1.18-1.07,2.03Z"/>
                  <path class="cls-5" d="M19.61,14.27c.86-.26,1.77.22,2.03,1.07s-.22,1.77-1.07,2.03l-.96-3.11Z"/>
                </g>
              </g>
            </g>
            <path class="cls-10" d="M26.45,16.3c.41-.16.76-.41,1-.7.27-.32.41-.7.42-1.01,0-.16,0-.3-.04-.41-.01-.06-.03-.11-.06-.16-.02-.05-.04-.09-.06-.12-.09-.14-.16-.2-.15-.2,0,0,.04.09.06.24,0,.04,0,.08,0,.12,0,.04,0,.09,0,.14-.01.1-.05.21-.1.32-.11.21-.3.42-.55.54-.07.04-.15.07-.23.09-.06.39-.16.77-.28,1.15ZM27.21,11.8c.17-.38.2-.78.14-1.09-.04-.15-.09-.28-.15-.39-.03-.05-.06-.1-.1-.14-.03-.04-.06-.07-.1-.1-.12-.11-.2-.15-.2-.15,0,0,.06.07.12.21.02.03.03.07.04.12.01.04.02.09.03.14.02.1.01.21,0,.33-.05.23-.18.48-.39.67-.05.04-.1.08-.15.11.11.32.19.66.26.99.22-.22.4-.46.51-.72ZM8.84,10.63c1.43-2.99,4.75-5.09,8.62-5.09s7.49,2.29,8.81,5.51c-.11-.61-.28-1.2-.51-1.76,0,0,.01-.02.02-.02.13-.17.24-.36.32-.55.15-.4.18-.81.1-1.17-.07-.36-.25-.65-.45-.83-.1-.09-.2-.16-.3-.19-.05-.02-.09-.04-.14-.05-.04-.01-.08-.02-.12-.02-.14-.02-.22,0-.22,0,0,0,.08.02.19.09.03.01.06.04.09.06.03.02.06.05.09.08.06.06.12.14.16.24.09.19.12.43.07.67-.04.24-.17.46-.33.61,0,0,0,0-.01.01-.46-.8-1.04-1.53-1.71-2.15.02-.3-.02-.6-.1-.86-.13-.4-.37-.72-.62-.9-.13-.09-.25-.15-.37-.19-.06-.02-.11-.03-.16-.04-.05,0-.1-.01-.14-.01-.17,0-.25.03-.25.02,0,0,.09.01.23.08.03.01.07.03.11.06.04.02.08.05.12.08.08.06.15.15.21.25.12.2.19.48.16.76,0,.02,0,.04-.01.07-.43-.31-.88-.58-1.36-.8.03-.24.04-.48,0-.72-.07-.49-.27-.92-.55-1.24-.27-.32-.62-.52-.92-.59-.15-.03-.29-.04-.41-.03-.06,0-.11.01-.16.03-.05.01-.09.02-.13.04-.15.06-.22.12-.22.12,0,0,.09-.02.24-.02.04,0,.08,0,.12.01.04,0,.09.02.14.03.1.03.2.08.29.15.19.14.36.37.44.64.09.26.09.56.01.81-.03.1-.08.19-.13.27-.69-.21-1.42-.33-2.17-.36-.03-.12-.07-.25-.12-.36-.2-.45-.51-.82-.87-1.04-.35-.23-.73-.33-1.05-.32-.16,0-.29.04-.41.08-.06.02-.11.04-.15.07-.04.02-.08.05-.12.08-.13.1-.18.18-.18.17,0,0,.08-.05.23-.08.03-.01.08-.02.12-.02.04,0,.09,0,.14,0,.1,0,.21.02.32.07.22.08.45.26.6.5.16.23.24.52.23.77,0,.05,0,.09-.02.13-.78.08-1.53.25-2.24.52-.02-.03-.05-.06-.07-.09-.15-.16-.31-.3-.49-.41-.36-.22-.77-.32-1.13-.3-.36.01-.68.14-.9.3-.11.08-.19.17-.24.26-.03.04-.05.09-.07.13-.02.04-.03.08-.04.11-.04.14-.04.21-.04.21,0,0,.03-.08.12-.17.02-.03.04-.05.07-.08.03-.03.06-.05.1-.08.07-.05.16-.09.26-.12.2-.05.44-.04.67.05.23.08.43.25.55.43.05.08.09.16.12.24-.53.29-1.03.62-1.49,1.01-.1-.06-.21-.12-.32-.16-.39-.16-.81-.19-1.17-.11-.36.07-.65.24-.84.44-.09.1-.16.2-.2.3-.02.05-.04.09-.05.14-.01.04-.02.08-.02.12-.02.14,0,.22,0,.22,0,0,.02-.08.09-.19.01-.03.04-.06.06-.09.02-.03.05-.06.08-.09.06-.06.15-.11.24-.16.19-.08.43-.11.67-.06.24.05.46.17.61.33.02.02.03.04.05.07-.42.45-.79.93-1.11,1.46-.02,0-.03-.01-.05-.02-.21-.05-.42-.08-.63-.08-.42.01-.82.15-1.11.36-.3.21-.5.48-.59.74-.04.13-.06.25-.06.35,0,.05,0,.1.01.14,0,.04.01.08.02.12.04.14.08.2.08.2,0,0-.01-.08,0-.21,0-.03.01-.07.02-.1,0-.04.02-.08.04-.12.03-.08.09-.16.16-.24.14-.15.35-.28.59-.32.24-.05.49-.02.69.06.1.05.19.1.27.17,0,0,0,0,0,0-.22.5-.39,1.03-.52,1.57ZM9.02,17.57c-.19.3-.29.63-.31.94-.03.36.07.69.21.92.07.11.15.2.24.27.04.03.08.06.12.08.04.02.07.04.11.05.13.06.21.06.21.06,0,0-.07-.04-.16-.14-.02-.02-.05-.05-.07-.08-.02-.03-.05-.07-.07-.1-.04-.08-.07-.17-.09-.27-.03-.2,0-.45.11-.66.05-.1.12-.19.19-.28-.18-.26-.35-.52-.49-.79ZM7.32,12.59c0,.05.02.1.03.14.01.04.03.08.04.11.06.13.12.18.11.19,0,0-.03-.08-.03-.21,0-.03,0-.07,0-.11,0-.04,0-.08.02-.12.02-.08.06-.18.11-.26.11-.17.3-.33.53-.42.07-.03.15-.05.23-.06.09-.33.21-.65.35-.96-.38.1-.71.28-.95.52-.26.25-.41.56-.46.83-.02.13-.02.26,0,.36ZM25.45,18.31c-.23.33-.48.65-.75.94.43.01.84-.08,1.17-.26.37-.19.64-.49.78-.77.07-.14.11-.28.12-.4,0-.06.01-.12,0-.17,0-.05,0-.1-.01-.14-.02-.16-.07-.24-.06-.24,0,0,0,.1-.04.24,0,.04-.02.08-.04.12-.01.04-.04.09-.06.13-.05.09-.12.17-.21.25-.18.16-.44.27-.72.29-.06,0-.12,0-.18,0ZM7.79,15.03c-.21.3-.3.63-.29.9,0,.14.03.25.07.35.02.05.04.09.06.13.02.04.04.07.06.1.08.12.15.16.15.16,0,0-.04-.07-.07-.2,0-.03-.01-.07-.02-.11,0-.04,0-.08,0-.12,0-.09.02-.18.06-.28.08-.19.23-.38.44-.51-.05-.26-.1-.53-.12-.8-.13.11-.25.24-.34.37Z"/>
          </g>
        </g>
      </g>
    </g>
  </g>
</svg>