<?xml version="1.0" encoding="UTF-8"?>
<svg xmlns="http://www.w3.org/2000/svg" xmlns:xlink="http://www.w3.org/1999/xlink" viewBox="0 0 35 35">
  <defs>
    <style>
      .cls-1 {
        fill: #fbc288;
      }

      .cls-1, .cls-2, .cls-3, .cls-4, .cls-5 {
        mix-blend-mode: multiply;
      }

      .cls-1, .cls-2, .cls-3, .cls-5 {
        opacity: .5;
      }

      .cls-6 {
        fill: #fcf6a8;
      }

      .cls-7 {
        fill: #333;
      }

      .cls-2 {
        fill: url(#linear-gradient-2);
      }

      .cls-8, .cls-9 {
        fill: #fff;
      }

      .cls-10 {
        fill: url(#linear-gradient-4);
      }

      .cls-11 {
        fill: #34b67a;
      }

      .cls-12 {
        fill: url(#linear-gradient-5);
      }

      .cls-13 {
        isolation: isolate;
      }

      .cls-14 {
        fill: none;
        opacity: 0;
      }

      .cls-15 {
        fill: #1c90bf;
      }

      .cls-16 {
        fill: url(#linear-gradient-6);
      }

      .cls-3 {
        fill: url(#linear-gradient-3);
      }

      .cls-9 {
        mix-blend-mode: overlay;
        opacity: .3;
      }

      .cls-4 {
        fill: #d6be89;
      }

      .cls-17 {
        fill: #dc564b;
      }

      .cls-18 {
        fill: url(#linear-gradient);
      }

      .cls-19 {
        fill: #bf3f34;
      }

      .cls-5 {
        fill: url(#linear-gradient-7);
      }

      .cls-20 {
        fill: #ab3900;
      }
    </style>
    <linearGradient id="linear-gradient" x1="1878.97" y1="-16775.6" x2="1878.97" y2="-16784.39" gradientTransform="translate(1896.45 -16753.29) rotate(-180)" gradientUnits="userSpaceOnUse">
      <stop offset="0" stop-color="#e6a15c"/>
      <stop offset="1" stop-color="#e6ab73"/>
    </linearGradient>
    <linearGradient id="linear-gradient-2" x1="1875.14" y1="-16782.62" x2="1882.81" y2="-16782.62" gradientTransform="translate(1896.45 -16753.29) rotate(-180)" gradientUnits="userSpaceOnUse">
      <stop offset="0" stop-color="#e6ab73"/>
      <stop offset="1" stop-color="#e6a15c"/>
    </linearGradient>
    <linearGradient id="linear-gradient-3" x1="1876.23" y1="-16775.94" x2="1881.71" y2="-16775.94" xlink:href="#linear-gradient-2"/>
    <linearGradient id="linear-gradient-4" x1="1873.84" y1="-16770.76" x2="1874.57" y2="-16767.2" xlink:href="#linear-gradient-2"/>
    <linearGradient id="linear-gradient-5" x1="1883.35" y1="-16767.38" x2="1884.14" y2="-16770.86" xlink:href="#linear-gradient-2"/>
    <linearGradient id="linear-gradient-6" x1="1878.96" y1="-16776.63" x2="1878.96" y2="-16765.57" xlink:href="#linear-gradient"/>
    <linearGradient id="linear-gradient-7" x1="1875.69" y1="-16768.37" x2="1882.22" y2="-16768.37" xlink:href="#linear-gradient-2"/>
  </defs>
  <g class="cls-13">
    <g id="Lager_2" data-name="Lager 2">
      <g id="Layer_2" data-name="Layer 2">
        <g>
          <circle class="cls-14" cx="17.5" cy="17.5" r="17.5"/>
          <g>
            <g>
              <path class="cls-7" d="M17.48,24.37c0,6.12,4.13,9.95,4.13,9.95,0,0-1.26-1.72,4.04-6.3,4.24-3.66-2.99-9.58-2.99-13.4l.04-.17s-5.22,3.79-5.22,9.91ZM9.29,28.03c5.3,4.57,4.04,6.3,4.04,6.3,0,0,4.13-3.83,4.13-9.95s-5.22-9.91-5.22-9.91l.04.17c0,3.82-7.22,9.75-2.99,13.4Z"/>
              <path class="cls-9" d="M24.4,28.03c-2.79,2.85-3.43,4.59-3.52,5.5.43.52.73.8.73.8,0,0-1.26-1.72,4.04-6.3,4.24-3.66-2.99-9.58-2.99-13.4l.04-.17s-.32.23-.8.68c.48,3.82,5.92,9.4,2.49,12.89ZM9.29,28.03c5.3,4.57,4.04,6.3,4.04,6.3,0,0,.3-.28.73-.8-.09-.91-.73-2.65-3.52-5.5-3.43-3.5,2.02-9.07,2.49-12.89-.48-.44-.8-.68-.8-.68l.04.17c0,3.82-7.22,9.75-2.99,13.4Z"/>
              <g>
                <path class="cls-15" d="M17.5,35c-4.26,0-8.16-1.52-11.2-4.05,2.24-3.54,6.41-5.92,11.2-5.92s8.96,2.38,11.2,5.92c-3.03,2.53-6.94,4.05-11.2,4.05Z"/>
                <path class="cls-6" d="M12.31,26.02c1.59-.64,3.34-1,5.19-1s3.58.35,5.15.98l-4.55,8.98c-.2,0-.4.01-.61.01-.22,0-.43,0-.64-.01l-4.54-8.97Z"/>
                <path class="cls-18" d="M14.6,23.79c.39-1.44.33-2.5.33-2.5h5.12s-.06,1.06.33,2.5c.24.88.49,1.38.95,1.75l-3.84,7.58-3.84-7.58c.46-.38.72-.87.95-1.75Z"/>
                <polygon class="cls-2" points="17.48 31.72 21.32 25.55 17.48 33.12 13.65 25.55 17.48 31.72"/>
                <path class="cls-3" d="M20.22,23.18c-.59.45-1.46.84-2.74.84s-2.15-.39-2.74-.84c.22-1.12.18-1.88.18-1.88h2.56s0,0,0,0h2.56s-.04.77.18,1.88Z"/>
                <path class="cls-20" d="M17.51,27.79c.9,0,1.77-.43,2.4-1.18.67-.81.97-1.87.79-2.85-.02-.09-.11-.16-.2-.14-.1.02-.16.11-.14.2.16.87-.11,1.83-.72,2.56-.56.67-1.34,1.06-2.13,1.06s-1.57-.39-2.13-1.06c-.61-.73-.88-1.69-.72-2.56.02-.1-.05-.19-.14-.2-.1-.02-.19.05-.2.14-.18.97.12,2.04.79,2.85.63.75,1.5,1.18,2.4,1.18Z"/>
                <path class="cls-17" d="M16.85,27.79c0,.36.29.66.66.66s.66-.29.66-.66-.29-.66-.66-.66-.66.29-.66.66Z"/>
                <path class="cls-6" d="M17.1,27.79c0,.23.19.41.41.41s.41-.19.41-.41-.19-.41-.41-.41-.41.19-.41.41Z"/>
              </g>
              <path class="cls-9" d="M21.31,25.55c.07.07.14.15.21.21.02.01.03.03.04.05,2.46,1.52,4.6,4.06,6.16,5.9.34-.24.67-.5.99-.76-1.62-2.56-4.26-4.51-7.4-5.4ZM6.3,30.95c.32.27.65.52.99.76,1.49-1.75,3.51-4.15,5.83-5.69.2-.16.42-.3.61-.48-3.16.88-5.8,2.84-7.43,5.4Z"/>
            </g>
            <g>
              <ellipse class="cls-7" cx="17.47" cy="11.51" rx="5.81" ry="7.25"/>
              <path class="cls-9" d="M17.47,4.26s-5.65,4.16-5.8,7.62c0-.12-.01-.24-.01-.37,0-4.01,2.6-7.25,5.81-7.25s5.81,3.25,5.81,7.25c0,.12,0,.24-.01.37-.15-3.47-5.8-7.62-5.8-7.62Z"/>
              <g>
                <path class="cls-10" d="M21.27,15.57c-.22,1.03.05,1.95.6,2.07.55.12,1.17-.62,1.39-1.65.22-1.03-.05-1.95-.6-2.07s-1.17.62-1.39,1.65Z"/>
                <path class="cls-12" d="M13.72,15.57c.22,1.03-.05,1.95-.6,2.07s-1.17-.62-1.39-1.65c-.22-1.03.05-1.95.6-2.07.55-.12,1.17.62,1.39,1.65Z"/>
                <path class="cls-16" d="M12.29,14.1c0,3.39,2.33,8.57,5.21,8.57s5.21-5.18,5.21-8.57c0-5.29-2.33-6.44-5.21-6.44s-5.21,1.15-5.21,6.44Z"/>
                <g>
                  <path class="cls-1" d="M17.79,18.23h-.59c-.18,0-.33-.15-.33-.33h1.25c0,.18-.15.33-.33.33Z"/>
                  <path class="cls-4" d="M17.88,17.9h-.23c0,.06.05.12.12.12s.12-.05.12-.12ZM17.1,17.9c0,.06.05.12.12.12s.12-.05.12-.12h-.23Z"/>
                </g>
                <g>
                  <path class="cls-5" d="M14.23,15.09c0,.58.47,1.04,1.04,1.04s1.04-.47,1.04-1.04-.47-1.04-1.04-1.04-1.04.47-1.04,1.04ZM18.68,15.09c0,.58.47,1.04,1.04,1.04s1.04-.47,1.04-1.04-.47-1.04-1.04-1.04-1.04.47-1.04,1.04Z"/>
                  <path d="M19.05,15.09h0c0,.37.3.67.67.67s.67-.3.67-.67h0c0-.37-.3-.67-.67-.67s-.67.3-.67.67ZM14.6,15.09h0c0,.37.3.67.67.67s.67-.3.67-.67h0c0-.37-.3-.67-.67-.67s-.67.3-.67.67Z"/>
                  <path d="M18.82,14.19s.09-.03.12,0l.69.69v-.98s.04-.09.09-.09.09.04.09.09v.98l.69-.69s.09-.03.12,0c.03.03.03.09,0,.12l-.84.84h0s-.04.03-.06.03-.05,0-.06-.03h0l-.84-.84s-.03-.09,0-.12Z"/>
                  <path d="M14.37,14.19s.09-.03.12,0l.69.69v-.98s.04-.09.09-.09.09.04.09.09v.98l.69-.69s.09-.03.12,0c.03.03.03.09,0,.12l-.84.84h0s-.04.03-.06.03-.05,0-.06-.03h0l-.84-.84s-.03-.09,0-.12Z"/>
                  <path class="cls-8" d="M19.82,15.09c0,.12.1.22.22.22s.22-.1.22-.22-.1-.22-.22-.22-.22.1-.22.22ZM15.33,15.09c0,.12.1.22.22.22s.22-.1.22-.22-.1-.22-.22-.22-.22.1-.22.22Z"/>
                </g>
                <g>
                  <path class="cls-19" d="M16.81,19.38c.26,0,.5.09.66.22.16-.13.39-.22.66-.22.32,0,.59.12.74.31-.34.19-.84.32-1.4.32s-1.06-.13-1.4-.32c.15-.18.43-.31.74-.31Z"/>
                  <path class="cls-17" d="M17.47,20.01c-.55,0-1.04-.12-1.38-.31.07.51.66.9,1.38.9s1.31-.39,1.38-.9c-.34.19-.83.31-1.38.31Z"/>
                </g>
                <path class="cls-7" d="M18.41,13.36c.06.1.19.13.29.07.65-.39,1.51-.38,2.15.04.03.02.07.03.11.03.07,0,.14-.03.18-.1.06-.1.03-.23-.06-.29-.77-.5-1.81-.51-2.59-.04-.1.06-.13.19-.07.29ZM13.88,13.36c.06.1.19.13.29.07.65-.39,1.51-.38,2.15.04.03.02.07.03.11.03.07,0,.14-.03.18-.1.06-.1.03-.23-.06-.29-.77-.5-1.81-.51-2.59-.04-.1.06-.13.19-.07.29Z"/>
              </g>
              <path class="cls-19" d="M16.87,11.51c0,.33.27.6.6.6s.6-.27.6-.6-.27-.6-.6-.6-.6.27-.6.6Z"/>
              <path class="cls-7" d="M17.5,7.8c0,1.42,5.17,2.61,5.17,6.47.89-4.04-1.01-7.03-3.24-7.53-2.11-.47-1.92,1.06-1.92,1.06ZM12.28,14.27c0-3.86,5.17-5.06,5.17-6.47,0,0,.18-1.53-1.92-1.06-2.24.5-4.13,3.5-3.24,7.53Z"/>
              <path class="cls-9" d="M22.7,14.05c-.02-.11-.05-.21-.08-.31.02.17.04.35.04.54.02-.08.03-.15.04-.23ZM17.5,7.8c0,.07.01.13.04.2.11-.42.51-.98,1.93-.66,1.46.32,2.78,1.66,3.31,3.63-.39-2.3-1.79-3.88-3.35-4.23-2.11-.47-1.92,1.06-1.92,1.06ZM12.31,13.74c-.03.1-.06.2-.08.31.01.08.02.15.04.23,0-.19.02-.36.04-.54ZM12.17,10.97c.53-1.97,1.84-3.31,3.31-3.63,1.42-.31,1.82.25,1.93.66.02-.07.04-.13.04-.2,0,0,.18-1.53-1.92-1.06-1.57.35-2.96,1.93-3.35,4.23Z"/>
              <g>
                <path class="cls-11" d="M21.01,20.76c0,.53.43.97.97.97s.97-.43.97-.97-.97-2.86-.97-2.86c0,0-.97,2.33-.97,2.86Z"/>
                <path class="cls-17" d="M21.22,20.73c0,.42.34.76.76.76s.76-.34.76-.76-.34-.76-.76-.76-.76.34-.76.76Z"/>
                <path class="cls-6" d="M21.46,20.73c0,.28.23.52.52.52s.52-.23.52-.52-.23-.52-.52-.52-.52.23-.52.52Z"/>
                <path class="cls-17" d="M21.57,19.38c0,.22.18.4.4.4s.4-.18.4-.4-.18-.4-.4-.4-.4.18-.4.4Z"/>
              </g>
              <g>
                <path class="cls-11" d="M13.98,20.76c0,.53-.43.97-.97.97s-.97-.43-.97-.97.97-2.86.97-2.86c0,0,.97,2.33.97,2.86Z"/>
                <path class="cls-17" d="M13.77,20.73c0,.42-.34.76-.76.76s-.76-.34-.76-.76.34-.76.76-.76.76.34.76.76Z"/>
                <circle class="cls-6" cx="13.02" cy="20.73" r=".52"/>
                <path class="cls-17" d="M13.42,19.38c0,.22-.18.4-.4.4s-.4-.18-.4-.4.18-.4.4-.4.4.18.4.4Z"/>
              </g>
            </g>
          </g>
        </g>
      </g>
    </g>
  </g>
</svg>