<?xml version="1.0" encoding="UTF-8"?>
<svg xmlns="http://www.w3.org/2000/svg" xmlns:xlink="http://www.w3.org/1999/xlink" viewBox="0 0 35 35">
  <defs>
    <style>
      .cls-1 {
        opacity: .2;
      }

      .cls-1, .cls-2, .cls-3 {
        fill: #fff;
      }

      .cls-4 {
        opacity: .5;
      }

      .cls-4, .cls-5, .cls-6, .cls-7, .cls-8 {
        mix-blend-mode: multiply;
      }

      .cls-4, .cls-9 {
        fill: #fbc288;
      }

      .cls-10 {
        fill: #333;
      }

      .cls-11, .cls-7 {
        fill: #d6be89;
      }

      .cls-12 {
        fill: #4d4d4d;
      }

      .cls-13 {
        isolation: isolate;
      }

      .cls-14 {
        fill: none;
        opacity: 0;
      }

      .cls-5, .cls-15 {
        fill: #aadde9;
      }

      .cls-5, .cls-8 {
        opacity: .6;
      }

      .cls-16 {
        fill: #d69a5c;
      }

      .cls-3, .cls-17 {
        mix-blend-mode: overlay;
        opacity: .3;
      }

      .cls-18 {
        fill: url(#linear-gradient);
      }
    </style>
    <linearGradient id="linear-gradient" x1="1112.88" y1="-16074.69" x2="1112.88" y2="-16084.87" gradientTransform="translate(1130.38 -16069.04) rotate(-180)" gradientUnits="userSpaceOnUse">
      <stop offset="0" stop-color="#fbd099"/>
      <stop offset="1" stop-color="#fbc288"/>
    </linearGradient>
  </defs>
  <g class="cls-13">
    <g id="Lager_2" data-name="Lager 2">
      <g id="Layer_2" data-name="Layer 2">
        <g>
          <circle class="cls-14" cx="17.5" cy="17.5" r="17.5"/>
          <g>
            <g>
              <g>
                <path class="cls-10" d="M13.14,23.05h8.72c5.27,0,8.31,4.51,8.31,6.47,0,.03,0,.05,0,.08-3.2,3.33-7.69,5.4-12.66,5.4s-9.47-2.07-12.66-5.4c0-.03,0-.05,0-.08,0-1.96,3.04-6.47,8.31-6.47Z"/>
                <path class="cls-3" d="M29.85,29.92c-.91-1.61-3.72-3.82-7.98-3.82h-8.72c-4.27,0-7.07,2.2-7.98,3.82-.11-.11-.22-.21-.32-.32,0-.03,0-.05,0-.08,0-1.96,3.04-6.47,8.31-6.47h8.72c5.27,0,8.31,4.51,8.31,6.47,0,.03,0,.05,0,.08-.11.11-.22.21-.32.32Z"/>
                <path class="cls-10" d="M29.53,17.82l-12.02,14.83-12.02-14.84c2.93-3.03,7.22-4.95,12.02-4.95s9.1,1.92,12.02,4.96Z"/>
                <path class="cls-16" d="M13.81,23.05v-3.35h7.41v3.72c0,2.05-3.72,4.79-3.72,4.79,0,0-3.72-2.74-3.72-4.79,0-.13,0-.25.02-.37Z"/>
                <path class="cls-12" d="M16.98,33.78c0,.29.24.53.53.53s.53-.24.53-.53-.24-.53-.53-.53-.53.24-.53.53Z"/>
              </g>
              <g>
                <rect class="cls-9" x="11" y="13.85" width="12.99" height="4.13" rx="1.39" ry="1.39"/>
                <path class="cls-18" d="M17.5,5.56c3.09,0,5.6,2.51,5.6,5.6v6.48c0,3.09-2.51,7.67-5.6,7.67s-5.6-4.57-5.6-7.67v-6.48c0-3.09,2.51-5.6,5.6-5.6Z"/>
                <g class="cls-6">
                  <path class="cls-11" d="M16.02,21.45h2.88c.12,0,.21-.09.21-.21s-.09-.21-.21-.21h-2.88c-.12,0-.21.09-.21.21s.09.21.21.21Z"/>
                </g>
                <path class="cls-4" d="M14.22,15.41c0,.58.47,1.05,1.05,1.05s1.05-.47,1.05-1.05-.47-1.05-1.05-1.05-1.05.47-1.05,1.05ZM18.68,15.41c0,.58.47,1.05,1.05,1.05s1.05-.47,1.05-1.05-.47-1.05-1.05-1.05-1.05.47-1.05,1.05Z"/>
                <path d="M20.41,15.41h-1.35c0,.37.3.67.67.67s.67-.3.67-.67h0ZM14.59,15.41h0c0,.37.3.67.67.67s.67-.3.67-.67h-1.35Z"/>
                <g>
                  <path class="cls-4" d="M17.97,19.18h-.93c-.29,0-.52-.23-.52-.52h1.98c0,.29-.23.52-.52.52Z"/>
                  <path class="cls-7" d="M18.11,18.66h-.36c0,.1.08.18.18.18s.18-.08.18-.18ZM16.88,18.66c0,.1.08.18.18.18s.18-.08.18-.18h-.36Z"/>
                </g>
                <path class="cls-5" d="M13.16,22.02c1.03,1.83,2.59,3.29,4.33,3.29,0,0,0,0,0,0s0,0,0,0c1.75,0,3.31-1.46,4.33-3.29-.33-.24-.56-.62-.58-1.06h0c-.02-.75-.64-1.35-1.39-1.35h-4.73c-.76,0-1.37.6-1.39,1.35h0c-.02.44-.24.82-.58,1.06ZM14.6,21.42c0-.58.47-1.05,1.04-1.05h3.7c.58,0,1.04.47,1.04,1.05s-.47,1.05-1.04,1.05h-3.7c-.58,0-1.04-.47-1.04-1.05Z"/>
                <g>
                  <path class="cls-2" d="M15.54,15.63c-.12,0-.22-.1-.22-.22h.44c0,.12-.1.22-.22.22Z"/>
                  <path class="cls-2" d="M20.05,15.63c-.12,0-.22-.1-.22-.22h.44c0,.12-.1.22-.22.22Z"/>
                </g>
                <g class="cls-8">
                  <path class="cls-15" d="M13.87,13.51c-.01-.08.02-.16.1-.21.78-.47,1.81-.45,2.57.04.07.05.11.13.09.21,0,0,0,.53,0,.53,0,.03-.01.06-.03.09-.04.06-.11.09-.17.09-.04,0-.08-.01-.11-.03-.63-.41-1.49-.42-2.14-.04-.1.06-.22.03-.28-.07-.02-.03-.02-.06-.03-.09,0,0,0-.5,0-.5,0,0,0,0,0-.01,0,0,0,0,0-.01,0,0,0,0,0-.01Z"/>
                  <path class="cls-15" d="M18.46,13.3c.78-.47,1.81-.45,2.57.04.07.05.11.13.09.21,0,0,0,.51,0,.51,0,0,0,0,0,.01,0,0,0,0,0,.01,0,.03-.01.06-.03.09-.04.06-.11.09-.17.09-.04,0-.08-.01-.11-.03-.63-.41-1.49-.42-2.14-.04-.1.06-.22.03-.28-.07-.02-.03-.02-.06-.03-.09,0,0,0,0,0-.01,0,0,0,0,0-.01,0,0,0,0,0-.01,0,0,0-.49,0-.49,0,0,0,0,0-.01-.01-.08.02-.16.1-.21Z"/>
                </g>
                <g class="cls-17">
                  <path class="cls-2" d="M17.5,5.56c-3.09,0-5.6,2.51-5.6,5.6,0-1.63,2.51-3.61,5.6-3.61s5.6,2.1,5.6,3.61c0-3.09-2.51-5.6-5.6-5.6Z"/>
                </g>
                <path class="cls-4" d="M24,16.29c-1.65.74-3.97,1.21-6.53,1.21s-4.81-.45-6.46-1.18v-1.08c0-.59.37-1.1.89-1.3v-2.79c0-3.09,2.51-5.6,5.6-5.6s5.6,2.51,5.6,5.6v2.79c.52.2.89.7.89,1.3v1.05Z"/>
              </g>
              <path class="cls-12" d="M25.56,28.04l-4.21-3.43-3.84,8.05,8.05-4.62ZM21.84,19.96l-.49,4.64,2.11.71,6.07-7.49-7.69,2.14Z"/>
              <path class="cls-12" d="M17.51,32.65l-3.84-8.05-4.21,3.43,8.05,4.62ZM5.49,17.82l6.07,7.49,2.11-.71-.5-4.52-7.67-2.27Z"/>
            </g>
            <g>
              <path d="M21.97,15.77c-.03.11.03.22.13.26.02,0,.04,0,.06,0,.09,0,.17-.06.2-.14l.94-2.99c.03-.11-.03-.22-.13-.26-.11-.03-.22.03-.26.13l-.94,2.99ZM11.71,12.9l.94,2.99c.03.09.11.14.2.14.02,0,.04,0,.06,0,.11-.03.17-.15.13-.26l-.94-2.99c-.03-.11-.15-.17-.26-.13-.11.03-.17.15-.13.26ZM16.73,15.83c0,.11.09.21.21.21h1.21c.11,0,.21-.09.21-.21s-.09-.21-.21-.21h-1.21c-.11,0-.21.09-.21.21Z"/>
              <g>
                <path d="M19.03,14.42h2.24c.46,0,.83.37.83.83v1.11c0,.46-.37.83-.83.83h-2.24c-.46,0-.83-.37-.83-.83v-1.11c0-.46.37-.83.83-.83Z"/>
                <path class="cls-1" d="M20.01,14.42h1.25c.46,0,.83.37.83.83v1.11c0,.46-.37.83-.83.83h-.45l-.81-2.76Z"/>
              </g>
              <g>
                <path d="M13.83,14.42h2.24c.46,0,.83.37.83.83v1.11c0,.46-.37.83-.83.83h-2.24c-.46,0-.83-.37-.83-.83v-1.11c0-.46.37-.83.83-.83Z"/>
                <path class="cls-1" d="M14.81,14.42h1.25c.46,0,.83.37.83.83v1.11c0,.46-.37.83-.83.83h-.45l-.81-2.76Z"/>
              </g>
            </g>
            <g>
              <path class="cls-12" d="M28.75,11.83c.02.08.04.17.04.25,0,1.75-5.05,3.17-11.29,3.17s-11.29-1.42-11.29-3.17c0-.08.02-.17.04-.25h22.5Z"/>
              <path class="cls-12" d="M12.54,7.61c.6-2.73,2.92-3.58,4.96-2.26,2.04-1.32,4.36-.48,4.96,2.26.23,1.04.95,4.22.95,4.22,0,0-1.88,1.02-5.91,1.02s-5.91-1.02-5.91-1.02c0,0,.72-3.18.95-4.22Z"/>
              <path class="cls-3" d="M22.46,8.65c-.6-2.19-2.92-2.87-4.96-1.81-2.04-1.06-4.36-.38-4.96,1.81-.19.7-.73,2.62-.9,3.2-.03-.01-.05-.03-.05-.03,0,0,.72-3.18.95-4.22.6-2.73,2.92-3.58,4.96-2.26,2.04-1.32,4.36-.48,4.96,2.26.23,1.04.95,4.22.95,4.22,0,0-.02.01-.05.03-.17-.59-.71-2.5-.9-3.2Z"/>
              <path class="cls-10" d="M17.5,10.85c3,0,4.82-.43,5.54-.65.2.88.37,1.63.37,1.63,0,0-1.88,1.02-5.91,1.02s-5.91-1.02-5.91-1.02c0,0,.17-.74.37-1.63.72.22,2.53.65,5.54.65Z"/>
            </g>
          </g>
        </g>
      </g>
    </g>
  </g>
</svg>