<?xml version="1.0" encoding="UTF-8"?>
<svg xmlns="http://www.w3.org/2000/svg" xmlns:xlink="http://www.w3.org/1999/xlink" viewBox="0 0 34.21 34.21">
  <defs>
    <style>
      .cls-1, .cls-2, .cls-3 {
        opacity: .5;
      }

      .cls-1, .cls-4, .cls-3, .cls-5, .cls-6 {
        mix-blend-mode: multiply;
      }

      .cls-1, .cls-7 {
        fill: #fbc288;
      }

      .cls-8, .cls-3 {
        fill: #fcf6a8;
      }

      .cls-9, .cls-2, .cls-10 {
        fill: #fff;
      }

      .cls-11 {
        isolation: isolate;
      }

      .cls-12 {
        fill: none;
        opacity: 0;
      }

      .cls-4 {
        fill: #ccc;
      }

      .cls-4, .cls-13, .cls-10, .cls-14, .cls-6 {
        opacity: .3;
      }

      .cls-15, .cls-13 {
        fill: #e46a5d;
      }

      .cls-10, .cls-14 {
        mix-blend-mode: overlay;
      }

      .cls-5 {
        fill: #d6be89;
      }

      .cls-16 {
        fill: url(#linear-gradient);
      }
    </style>
    <linearGradient id="linear-gradient" x1="1610.42" y1="-16677.13" x2="1610.42" y2="-16687.08" gradientTransform="translate(1627.53 -16671.89) rotate(-180)" gradientUnits="userSpaceOnUse">
      <stop offset="0" stop-color="#fbd099"/>
      <stop offset="1" stop-color="#fbc288"/>
    </linearGradient>
  </defs>
  <g class="cls-11">
    <g id="Lager_2" data-name="Lager 2">
      <g id="Layer_2" data-name="Layer 2">
        <g>
          <circle class="cls-12" cx="17.11" cy="17.11" r="17.11" transform="translate(-7.09 17.11) rotate(-45)"/>
          <g>
            <g>
              <path class="cls-15" d="M2.82,26.52c1.19-2.32,4.4-5.31,9.19-5.31h10.18c4.79,0,8.01,2.98,9.19,5.31-3.02,4.63-8.29,7.69-14.29,7.69s-11.27-3.07-14.29-7.69Z"/>
              <path class="cls-10" d="M22.2,21.21c4.79,0,8.01,2.98,9.19,5.31-.24.37-.49.73-.76,1.08-1.54-1.52-4.44-3.06-8.43-3.06h-10.18c-4,0-6.89,1.54-8.43,3.06-.27-.35-.52-.71-.76-1.08,1.19-2.32,4.4-5.31,9.19-5.31h10.18Z"/>
            </g>
            <g>
              <ellipse class="cls-8" cx="17.11" cy="20.22" rx="9.83" ry="8.7"/>
              <path class="cls-3" d="M17.11,27.1c5.25,0,9.54-3.26,9.82-7.36,0,.16.02.32.02.48,0,4.8-4.4,8.7-9.83,8.7s-9.83-3.89-9.83-8.7c0-.16,0-.32.02-.48.28,4.1,4.57,7.36,9.82,7.36Z"/>
              <path class="cls-2" d="M17.11,14.79c-5.09,0-9.27,2.78-9.78,6.33-.03-.3-.05-.6-.05-.9,0-4.8,4.4-8.7,9.83-8.7s9.83,3.89,9.83,8.7c0,.3-.02.61-.05.9-.51-3.56-4.69-6.33-9.78-6.33Z"/>
            </g>
            <g>
              <g>
                <polygon class="cls-15" points="12.89 5.15 5.69 13.42 15.46 10.95 12.89 5.15"/>
                <path class="cls-8" d="M3.65,13.42c0,1.13.91,2.04,2.04,2.04s2.04-.91,2.04-2.04-.91-2.04-2.04-2.04-2.04.91-2.04,2.04Z"/>
                <path class="cls-2" d="M5.69,12.35c-.96,0-1.76.66-1.98,1.56-.04-.16-.06-.32-.06-.49,0-1.13.91-2.04,2.04-2.04s2.04.91,2.04,2.04c0,.17-.02.33-.06.49-.22-.89-1.02-1.56-1.98-1.56Z"/>
              </g>
              <g>
                <g>
                  <g>
                    <rect class="cls-7" x="10.76" y="13.26" width="12.7" height="4.04" rx="1.36" ry="1.36"/>
                    <path class="cls-16" d="M17.11,5.15c3.02,0,5.48,2.45,5.48,5.48v6.34c0,5.76-2.45,7.5-5.48,7.5s-5.48-1.73-5.48-7.5v-6.34c0-3.02,2.45-5.48,5.48-5.48Z"/>
                    <path class="cls-1" d="M13.9,15.12c0,.56.46,1.02,1.02,1.02s1.02-.46,1.02-1.02-.46-1.02-1.02-1.02-1.02.46-1.02,1.02ZM18.26,15.12c0,.56.46,1.02,1.02,1.02s1.02-.46,1.02-1.02-.46-1.02-1.02-1.02-1.02.46-1.02,1.02Z"/>
                    <g>
                      <path d="M19.29,14.46c.36,0,.66.29.66.66h0c0,.36-.29.66-.66.66s-.66-.29-.66-.66h0c0-.36.29-.66.66-.66Z"/>
                      <path d="M14.92,14.46c.36,0,.66.29.66.66h0c0,.36-.29.66-.66.66s-.66-.29-.66-.66h0c0-.36.29-.66.66-.66Z"/>
                    </g>
                    <g>
                      <path class="cls-1" d="M17.56,18.47h-.91c-.28,0-.51-.23-.51-.51h1.94c0,.28-.23.51-.51.51Z"/>
                      <path class="cls-5" d="M17.7,17.95h-.36c0,.1.08.18.18.18s.18-.08.18-.18ZM16.5,17.95c0,.1.08.18.18.18s.18-.08.18-.18h-.36Z"/>
                    </g>
                    <path class="cls-9" d="M14.98,15.12c0,.12.1.21.21.21s.21-.1.21-.21-.1-.21-.21-.21-.21.1-.21.21ZM19.38,15.12c0,.12.1.21.21.21s.21-.1.21-.21-.1-.21-.21-.21-.21.1-.21.21Z"/>
                    <g>
                      <path class="cls-9" d="M13.4,14.15c-.04-.07-.03-.16.02-.22.56-.69,1.51-1.01,2.38-.81.08.02.14.09.15.16,0,0,.18.49.18.49,0,.03,0,.06,0,.09-.02.07-.07.12-.13.14-.04.01-.07.02-.11,0-.72-.17-1.51.1-1.98.67-.07.09-.2.1-.28.03-.02-.02-.04-.04-.05-.07,0,0-.16-.46-.17-.46,0,0,0,0,0,0,0,0,0,0,0,0,0,0,0,0,0,0Z"/>
                      <path class="cls-9" d="M18.53,13.13c.86-.21,1.82.1,2.39.78.05.06.06.15.03.22,0,0-.14.47-.15.48,0,0,0,0,0,.01,0,0,0,0,0,0-.01.03-.03.05-.05.07-.05.05-.13.06-.19.04-.04-.01-.07-.03-.1-.06-.48-.56-1.27-.82-1.99-.64-.11.03-.22-.04-.24-.15,0-.03,0-.06,0-.09,0,0,0,0,0,0,0,0,0,0,0-.01,0,0,0,0,0,0,0,0,.14-.45.14-.46,0,0,0,0,0-.01.01-.08.07-.15.15-.17Z"/>
                    </g>
                    <g class="cls-14">
                      <path class="cls-9" d="M17.11,5.15c-3.02,0-5.48,2.45-5.48,5.48,0-1.59,2.45-3.53,5.48-3.53s5.48,2.05,5.48,3.53c0-3.02-2.45-5.48-5.48-5.48Z"/>
                    </g>
                  </g>
                  <g>
                    <path class="cls-9" d="M11.33,15.79c0-.24.12-.45.3-.57v1.4c0,5.1,2.45,3.93,5.48,3.93s5.48,1.16,5.48-3.93v-1.4c.18.12.3.33.3.57,0,0,.44,4.54.44,4.57.48,4.96-6.22,10.4-6.22,10.4,0,0-6.53-6.31-5.96-10.54,0-.03.18-4.43.18-4.43Z"/>
                    <path class="cls-4" d="M17.11,28.45s5.8-4.25,6.22-8.11c0,0,0,.02,0,.02.48,4.96-6.22,10.4-6.22,10.4,0,0-6.5-6.28-5.96-10.51.45,3.44,5.96,8.2,5.96,8.2Z"/>
                    <g class="cls-6">
                      <path class="cls-4" d="M11.16,21.41c.57-.18,1.26-.53,2.02-.86,1.02.27,2.38.02,3.88,0-.36,1.55-3.82,1.99-5.76,1.56-.06-.28-.11-.46-.14-.71Z"/>
                      <path class="cls-4" d="M21.18,20.54c.79.33,1.55.66,2.14.84-.02.21-.04.42-.1.73-2.02.43-5.69,0-6.07-1.56,1.56,0,2.97.26,4.03,0Z"/>
                    </g>
                    <path class="cls-9" d="M17.12,19.6c0,2.46,6.69,2.53,6.69.89,0,1.71-6.69-3.52-6.69-.89ZM10.41,20.48c0,1.64,6.69,1.57,6.69-.89,0-2.63-6.69,2.6-6.69.89Z"/>
                    <path class="cls-10" d="M10.43,20.63c.05.18.19.34.39.48,1.39-.04,5.81-2.55,6.23-1.23.02-.09.04-.19.04-.28,0-2.54-6.24,2.25-6.66,1.04ZM10.41,20.48c0,.06,0,.11.02.15-.01-.05-.02-.1-.02-.15ZM17.12,19.6c0,.1.01.19.04.28.42-1.32,4.84,1.19,6.23,1.23.21-.13.34-.29.39-.48-.42,1.21-6.66-3.58-6.66-1.04ZM23.81,20.48c0,.05-.01.1-.02.15.01-.04.02-.09.02-.15Z"/>
                  </g>
                  <circle class="cls-13" cx="20.98" cy="17.82" r="1.39"/>
                  <circle class="cls-13" cx="13.25" cy="17.82" r="1.39"/>
                </g>
                <path class="cls-1" d="M11.63,12.32v-2.73c0-.1,0-.2.02-.3,1.05-1.45,3.13-2.43,5.54-2.43s4.28.89,5.37,2.22c.02.17.03.34.03.52v2.73c.51.2.87.69.87,1.27v1c-.31.04-.64.03-.96-.02h0c-.11-.02-.21-.04-.32-.07-4.64-1.22-5.39-1.22-10.16,0-.09.02-.19.04-.29.06h0c-.09.01-.18.03-.27.03-.01,0-.02,0-.04,0-.09,0-.18.01-.27.01-.13,0-.27,0-.4-.02v-1.01c0-.58.36-1.07.87-1.27Z"/>
                <g>
                  <path class="cls-15" d="M17.18,9.19c-2.32,0-4.47.42-6.24,1.12-.02-.2-.03-.39-.03-.59,0-3.46,2.81-6.27,6.27-6.27s6.27,2.81,6.27,6.27c0,.2-.01.4-.03.59-1.77-.71-3.92-1.12-6.24-1.12Z"/>
                  <path class="cls-10" d="M17.18,4.97c-3.44,0-6.23,2.15-6.27,4.82,0-.02,0-.05,0-.07,0-3.46,2.81-6.27,6.27-6.27s6.27,2.81,6.27,6.27c0,.03,0,.05,0,.07-.04-2.67-2.83-4.82-6.27-4.82Z"/>
                  <path class="cls-8" d="M11.15,14.12c.29,0,.58-.05.87-.15,4.76-1.68,5.52-1.68,10.16,0,1.24.45,2.65-.11,3.13-1.26.49-1.14-.12-2.43-1.37-2.88-5.75-2.08-7.79-2.08-13.66,0-1.25.44-1.87,1.73-1.39,2.87.37.88,1.29,1.43,2.26,1.43Z"/>
                  <path class="cls-3" d="M8.89,11.66c.37.88,1.29,1.43,2.26,1.43.29,0,.58-.05.87-.15,4.76-1.68,5.52-1.68,10.16,0,1.24.45,2.65-.11,3.13-1.26.04-.1.07-.2.1-.3.11.43.09.89-.1,1.33-.49,1.14-1.89,1.71-3.13,1.26-4.64-1.68-5.39-1.68-10.16,0-.28.1-.58.15-.87.15-.97,0-1.89-.54-2.26-1.43-.18-.44-.2-.89-.09-1.31.02.1.05.19.09.29Z"/>
                  <path class="cls-2" d="M22.49,14.05c1.16.26,2.37-.3,2.82-1.35.49-1.14-.12-2.43-1.37-2.88-.18-.07-.36-.13-.54-.19.59.7.82,1.82.51,2.85-.25.83-.8,1.39-1.42,1.57ZM8.89,12.69c.37.88,1.29,1.43,2.26,1.43.19,0,.39-.02.58-.07-.64-.18-1.19-.75-1.44-1.59-.3-1.02-.07-2.13.51-2.82-.17.06-.34.12-.51.18-1.25.44-1.87,1.73-1.39,2.87Z"/>
                </g>
              </g>
            </g>
          </g>
        </g>
      </g>
    </g>
  </g>
</svg>