<?xml version="1.0" encoding="UTF-8"?>
<svg xmlns="http://www.w3.org/2000/svg" xmlns:xlink="http://www.w3.org/1999/xlink" viewBox="0 0 35 35">
  <defs>
    <style>
      .cls-1 {
        fill: url(#linear-gradient-2);
      }

      .cls-1, .cls-2 {
        opacity: .5;
      }

      .cls-1, .cls-3 {
        mix-blend-mode: overlay;
      }

      .cls-2, .cls-4, .cls-5, .cls-6 {
        mix-blend-mode: multiply;
      }

      .cls-2, .cls-7 {
        fill: #fbc288;
      }

      .cls-8 {
        fill: #333;
      }

      .cls-4, .cls-5, .cls-3 {
        opacity: .3;
      }

      .cls-4, .cls-9 {
        fill: #ab3900;
      }

      .cls-10, .cls-3 {
        fill: #fff;
      }

      .cls-11 {
        isolation: isolate;
      }

      .cls-12 {
        fill: none;
        opacity: 0;
      }

      .cls-13 {
        fill: #f1b14f;
      }

      .cls-5, .cls-14 {
        fill: #663f30;
      }

      .cls-6 {
        fill: #d6be89;
      }

      .cls-15 {
        fill: url(#linear-gradient);
      }
    </style>
    <linearGradient id="linear-gradient" x1="1759.16" y1="-16723.75" x2="1759.16" y2="-16733.93" gradientTransform="translate(1776.66 -16717.05) rotate(-180)" gradientUnits="userSpaceOnUse">
      <stop offset="0" stop-color="#fbd099"/>
      <stop offset="1" stop-color="#fbc288"/>
    </linearGradient>
    <linearGradient id="linear-gradient-2" x1="1759.21" y1="-16729.44" x2="1759.21" y2="-16721.04" gradientTransform="translate(1776.66 -16717.05) rotate(-180)" gradientUnits="userSpaceOnUse">
      <stop offset="0" stop-color="#fff"/>
      <stop offset="1" stop-color="gray"/>
    </linearGradient>
  </defs>
  <g class="cls-11">
    <g id="Lager_2" data-name="Lager 2">
      <g id="Layer_2" data-name="Layer 2">
        <g>
          <circle class="cls-12" cx="17.5" cy="17.5" r="17.5"/>
          <g>
            <g>
              <g>
                <path class="cls-8" d="M2.89,27.13c1.21-2.38,4.5-5.43,9.41-5.43h10.42c4.9,0,8.19,3.05,9.41,5.43-3.09,4.73-8.48,7.87-14.61,7.87s-11.53-3.14-14.61-7.87Z"/>
                <path class="cls-3" d="M22.71,21.7c4.9,0,8.19,3.05,9.41,5.43-.25.38-.5.74-.78,1.1-1.58-1.55-4.54-3.13-8.63-3.13h-10.42c-4.09,0-7.05,1.58-8.63,3.13-.27-.36-.53-.72-.78-1.1,1.21-2.38,4.5-5.43,9.41-5.43h10.42Z"/>
              </g>
              <g>
                <ellipse class="cls-14" cx="17.45" cy="23.43" rx="10.06" ry="8.9"/>
                <path class="cls-5" d="M17.45,30.47c5.37,0,9.75-3.33,10.04-7.53,0,.16.02.32.02.49,0,4.91-4.5,8.9-10.06,8.9s-10.06-3.98-10.06-8.9c0-.16,0-.33.02-.49.29,4.2,4.67,7.53,10.04,7.53Z"/>
                <path class="cls-3" d="M17.45,17.88c-5.2,0-9.48,2.84-10,6.48-.04-.3-.05-.61-.05-.92,0-4.91,4.5-8.9,10.06-8.9s10.06,3.98,10.06,8.9c0,.31-.02.62-.05.92-.52-3.64-4.8-6.48-10-6.48Z"/>
              </g>
              <g>
                <path class="cls-14" d="M31.75,21.32c1.05,0,1.96.57,2.45,1.42-.99,3.15-2.84,5.91-5.28,8.01v-6.6c0-1.56,1.27-2.83,2.83-2.83Z"/>
                <path class="cls-3" d="M31.75,21.32c1.05,0,1.96.57,2.45,1.42-.05.16-.11.32-.16.48-.59-.46-1.43-.83-2.29-.83-1.56,0-2.83,1.21-2.83,2.77v-1.02c0-1.56,1.27-2.83,2.83-2.83Z"/>
              </g>
              <g>
                <path class="cls-14" d="M3.25,21.32c-1.05,0-1.96.57-2.45,1.42.99,3.15,2.84,5.91,5.28,8.01v-6.6c0-1.56-1.27-2.83-2.83-2.83Z"/>
                <path class="cls-3" d="M3.25,21.32c-1.05,0-1.96.57-2.45,1.42.05.16.11.32.16.48.59-.46,1.43-.83,2.29-.83,1.56,0,2.83,1.21,2.83,2.77v-1.02c0-1.56-1.27-2.83-2.83-2.83Z"/>
              </g>
            </g>
            <g>
              <g>
                <g>
                  <rect class="cls-7" x="11" y="14.2" width="12.99" height="4.13" rx="1.39" ry="1.39"/>
                  <path class="cls-15" d="M17.5,6.61c3.2,0,5.8,2.51,5.8,5.6v6.48c0,3.09-2.59,7.67-5.8,7.67s-5.8-4.57-5.8-7.67v-6.48c0-3.09,2.59-5.6,5.8-5.6Z"/>
                  <path class="cls-2" d="M14.22,16.11c0,.58.47,1.05,1.05,1.05s1.05-.47,1.05-1.05-.47-1.05-1.05-1.05-1.05.47-1.05,1.05ZM18.68,16.11c0,.58.47,1.05,1.05,1.05s1.05-.47,1.05-1.05-.47-1.05-1.05-1.05-1.05.47-1.05,1.05Z"/>
                  <path d="M20.41,16.11h-1.35c0,.37.3.67.67.67s.67-.3.67-.67h0ZM14.59,16.11h0c0,.37.3.67.67.67s.67-.3.67-.67h-1.35Z"/>
                  <g>
                    <path class="cls-2" d="M17.97,19.53h-.93c-.29,0-.52-.23-.52-.52h1.98c0,.29-.23.52-.52.52Z"/>
                    <path class="cls-6" d="M18.11,19.01h-.36c0,.1.08.18.18.18s.18-.08.18-.18ZM16.88,19.01c0,.1.08.18.18.18s.18-.08.18-.18h-.36Z"/>
                  </g>
                  <g>
                    <path class="cls-10" d="M15.54,16.33c-.12,0-.22-.1-.22-.22h.44c0,.12-.1.22-.22.22Z"/>
                    <path class="cls-10" d="M20.05,16.33c-.12,0-.22-.1-.22-.22h.44c0,.12-.1.22-.22.22Z"/>
                  </g>
                  <g>
                    <path class="cls-14" d="M13.87,14.86c-.01-.08.02-.16.1-.21.78-.47,1.81-.45,2.57.04.07.05.11.13.09.21,0,0,0,.53,0,.53,0,.03-.01.06-.03.09-.04.06-.11.09-.17.09-.04,0-.08-.01-.11-.03-.63-.41-1.49-.42-2.14-.04-.1.06-.22.03-.28-.07-.02-.03-.02-.06-.03-.09,0,0,0-.5,0-.5,0,0,0,0,0-.01,0,0,0,0,0-.01,0,0,0,0,0-.01Z"/>
                    <path class="cls-14" d="M18.46,14.65c.78-.47,1.81-.45,2.57.04.07.05.11.13.09.21,0,0,0,.51,0,.51,0,0,0,0,0,.01,0,0,0,0,0,.01,0,.03-.01.06-.03.09-.04.06-.11.09-.17.09-.04,0-.08-.01-.11-.03-.63-.41-1.49-.42-2.14-.04-.1.06-.22.03-.28-.07-.02-.03-.02-.06-.03-.09,0,0,0,0,0-.01,0,0,0,0,0-.01,0,0,0,0,0-.01,0,0,0-.49,0-.49,0,0,0,0,0-.01-.01-.08.02-.16.1-.21Z"/>
                  </g>
                  <rect class="cls-2" x="11.7" y="14.31" width="11.59" height="2.94"/>
                </g>
                <g>
                  <path class="cls-9" d="M11.05,24.39c.16-.45.61-.61,1.08-.72,0,0,0-.02-.01-.03-.04-.08-.08-.16-.11-.24-.02-.04-.04-.07-.05-.11-.15-.18-.28-.37-.35-.63-.08-.3-.08-.61,0-.89,0-.08,0-.17,0-.25,0-.01,0-.03,0-.04,0-.03,0-.05,0-.08,0-.01,0-.03,0-.04v-4.55c0-.17.06-.33.17-.45.04-.05.09-.1.14-.13h0s0,0,0,0v1.43c0,.09,0,.18,0,.27,0,.08,0,.16,0,.23,0,.1,0,.19.01.28,0,.07,0,.14.01.2,0,.09.01.17.02.26,0,.07.02.14.03.21,0,.07.02.14.03.2.02.13.04.26.07.38,0,.01,0,.02,0,.03.03.13.06.25.1.37,0,.03.02.06.03.09.04.12.08.23.13.33,0,.02.02.03.02.05.04.09.09.17.13.24.01.02.03.05.04.07.05.08.11.16.17.22.01.01.03.03.04.04.05.06.11.11.16.15.02.02.04.03.06.05.07.05.14.1.21.14.02.01.04.02.06.03.06.03.12.06.18.09.03.01.05.02.08.03.08.03.16.05.24.07.03,0,.06.01.09.02.06.01.12.03.18.04.04,0,.07.01.11.02.08.01.16.02.25.03.05,0,.1,0,.15,0,.04,0,.09,0,.13,0,.83.02,1.81-.11,2.85-.11.74,0,1.44.07,2.09.1.04,0,.08,0,.13,0,.4.02.78.02,1.13-.03h0c.07,0,.13-.02.2-.03,0,0,.01,0,.02,0,.06-.01.13-.03.19-.04,0,0,0,0,.01,0,.13-.03.25-.08.37-.13.02,0,.03-.02.05-.02.04-.02.08-.04.12-.06.02-.01.05-.03.07-.04.03-.02.06-.04.09-.06.03-.02.05-.04.08-.06.02-.02.05-.04.07-.06.03-.02.06-.05.08-.08.02-.02.04-.04.05-.05.03-.03.06-.06.09-.1.01-.01.02-.03.04-.05.03-.04.06-.08.09-.13,0,0,0-.01.01-.02.03-.05.07-.11.1-.17.04-.07.08-.15.12-.24,0-.01.01-.03.02-.04.03-.07.05-.14.08-.21.01-.03.02-.07.03-.1.02-.06.04-.12.05-.18.01-.05.03-.1.04-.15.01-.05.02-.1.03-.16.01-.06.03-.13.04-.2,0-.05.01-.09.02-.14.01-.08.02-.16.03-.25,0-.04,0-.08.01-.11.01-.1.02-.2.03-.3,0-.02,0-.04,0-.06.02-.26.03-.55.03-.85v-1.43s0,0,0,0h0c.06.04.11.09.15.14.1.12.16.27.16.44v4.55s0,.03,0,.04c0,.03,0,.05,0,.08,0,.02,0,.05,0,.07,0,.12,0,.25-.02.37,0,.07-.02.15-.03.22,0,.05-.02.09-.02.14-.07.43-.2.84-.37,1.22,0,0,0,0,0,0,.38.16.66.43.79.79.15.47.08.93-.23,1.38-.12.17-.31.33-.42.49-.05.01-.03.08-.02.11h0c-.01.48,1.13.34,1.29.86-.3-.28-.74-.1-1.14-.05-.38.04-.72-.04-.97-.29-.35-.37-.25-.89-.13-1.38-.27.03-.52.11-.78.13-.07.06-.14.12-.21.17.3.3.47.68.44,1.07-.05.49-.3.88-.76,1.18-.17.1-.41.17-.58.29-.07-.02-.06.16-.07.07-.21.44.9.77.83,1.31-.17-.37-.64-.39-1.02-.49-.37-.12-.65-.32-.77-.65-.17-.48.12-.91.43-1.32-.38-.11-.75-.11-1.11-.36-.04-.03-.07-.06-.1-.09h0c0,.08,0,.17-.02.26-.11.48-.42.83-.92,1.06-.19.08-.43.12-.61.2-.05-.02-.07.06-.08.08v-.02s0,0,0,0c-.26.41.78.88.64,1.42-.12-.4-.58-.47-.94-.63-.35-.16-.59-.41-.67-.76-.1-.5.25-.89.61-1.25-.36-.16-.72-.21-1.05-.52-.04-.04-.08-.08-.12-.13-.21.31-.53.52-.96.63-.2.05-.45.03-.64.09-.05-.02-.08.04-.09.06,0,0,0-.01,0-.02t0,0c-.33.35.61,1.01.37,1.51-.04-.41-.48-.57-.82-.79-.31-.23-.51-.51-.52-.87-.01-.51.41-.83.83-1.12-.33-.23-.68-.34-.93-.7-.07-.09-.12-.19-.17-.28-.12-.03-.23-.07-.34-.08-.03-.05-.09.02-.11.03,0,0,0-.01,0-.01-.44.21.2,1.16-.19,1.54.1-.4-.25-.7-.48-1.03-.21-.32-.29-.66-.17-.99Z"/>
                  <path class="cls-4" d="M11.78,23.06c.11-.04.22-.07.34-.1,0,0,0-.02-.01-.03-.04-.08-.08-.16-.11-.24-.02-.04-.04-.07-.05-.11-.15-.18-.28-.37-.35-.63,0-.03-.01-.07-.02-.1-.05.25-.05.53.02.8.04.16.11.29.19.41ZM23.41,20.69s0,.05,0,.08v-.12s0,.03,0,.04ZM23.41,21.47s0-.05,0-.08c0-.01,0-.03,0-.04v-.58s0,.05,0,.07c0,.12,0,.25-.02.37,0,.07-.02.15-.03.22,0,.05-.02.09-.02.14-.07.43-.2.84-.37,1.22,0,0,0,0,0,0,.08.03.15.08.22.12.06-.21.12-.42.15-.64,0-.05.02-.09.02-.14.01-.07.02-.15.03-.22.01-.12.02-.24.02-.37,0-.02,0-.05,0-.07ZM23.52,25.66c.29-.42.37-.84.26-1.27-.05.19-.13.38-.26.57-.12.17-.31.33-.42.49-.05.01-.03.08-.02.1h0c0,.15.11.24.27.31.06-.07.13-.14.18-.21ZM11.59,20.65v.12s0-.05,0-.08c0-.01,0-.03,0-.04ZM21.47,25.51c.18-.02.35-.06.54-.09,0-.23.05-.48.11-.72-.27.03-.52.11-.78.13-.07.06-.14.12-.21.17.16.15.27.33.35.52ZM11.59,20.81s0-.03,0-.04v.33s0-.03,0-.04c0-.08,0-.17,0-.25ZM22.05,25.72c-.07.39-.08.77.2,1.06.24.26.58.34.97.29.4-.06.83-.23,1.14.05-.14-.47-1.07-.41-1.25-.74-.33.01-.63-.07-.85-.3-.1-.11-.16-.23-.2-.36ZM13.68,27.12c.19-.05.42-.04.61-.08.43-.1.74-.32.96-.63.04.04.08.09.12.13.19.18.39.27.6.35.12-.19.28-.36.45-.53-.36-.16-.72-.21-1.05-.52-.04-.04-.08-.08-.12-.13-.21.31-.53.53-.96.63-.2.05-.45.03-.64.09-.05-.02-.08.04-.09.06,0,0,0-.01,0-.02t0,0c-.15.16-.03.4.12.65ZM12.68,26.66c-.05.11-.08.23-.08.37.01.35.21.64.52.87.33.22.77.38.82.79.18-.4-.37-.89-.44-1.26-.12-.08-.26-.15-.38-.23-.21-.15-.36-.33-.44-.54ZM11.89,24.87s0,.01,0,.01c.01-.01.07-.07.11-.03.11.01.22.04.34.08.05.1.1.19.17.28.13.18.28.29.44.4.14-.14.32-.27.5-.4-.33-.23-.68-.34-.93-.7-.07-.09-.12-.19-.17-.28-.12-.03-.23-.07-.34-.08-.03-.05-.09.02-.11.03,0,0,0-.01,0-.01-.24.11-.16.44-.1.79.02-.03.05-.06.1-.09ZM11.22,25.38c.23.33.58.64.48,1.03.19-.19.14-.51.08-.82-.02.04-.05.09-.08.12.1-.4-.25-.7-.48-1.03-.07-.11-.12-.22-.16-.33,0,.01-.01.02-.02.03-.12.33-.04.67.17.99ZM15.87,27.77c-.07.17-.1.34-.06.54.08.35.32.59.67.76.37.16.83.23.94.63.12-.45-.62-.87-.68-1.23-.09-.03-.18-.07-.27-.1-.29-.14-.5-.33-.61-.59ZM20.81,27.94c.47-.29.72-.69.76-1.18,0-.14-.02-.28-.05-.42-.1.36-.34.66-.71.89-.17.11-.41.17-.58.29-.07-.02-.06.16-.07.07-.09.19.06.35.25.52.13-.06.27-.11.39-.18ZM19.23,27.81c-.08.21-.11.43-.02.66.12.33.4.54.77.65.38.1.85.12,1.02.49.05-.48-.78-.79-.85-1.15-.06-.01-.11-.03-.17-.04-.35-.11-.62-.31-.75-.61ZM16.99,28.16c.16-.05.34-.09.48-.15.5-.22.81-.58.92-1.06.02-.09.02-.17.02-.26h0s.06.06.1.09c.24.17.48.22.73.28.09-.21.24-.41.38-.61-.38-.11-.75-.11-1.11-.36-.04-.03-.07-.06-.1-.09h0c0,.08,0,.17-.02.26-.11.48-.42.83-.92,1.06-.19.08-.43.12-.61.2-.05-.02-.07.06-.08.08v-.02s0,0,0,0c-.12.18.03.38.21.58Z"/>
                  <g>
                    <path class="cls-4" d="M11.7,22.52c.55-.18,1.26-.52,1.99-.86.99.27,2.3.02,3.75,0-.35,1.58-3.62,2.05-5.5,1.61-.1-.25-.19-.5-.24-.76Z"/>
                    <path class="cls-4" d="M21.3,21.66c.73.34,1.44.68,1.99.86-.06.26-.14.51-.24.76-1.88.44-5.15-.02-5.5-1.61,1.45,0,2.77.26,3.75,0Z"/>
                  </g>
                  <path class="cls-9" d="M17.52,20.69c0,2.51,6.84,2.58,6.84.91,0,1.75-6.84-3.6-6.84-.91ZM10.64,21.6c0,1.67,6.84,1.6,6.84-.91,0-2.69-6.84,2.66-6.84.91Z"/>
                  <path class="cls-3" d="M10.67,21.75c.05.19.19.35.4.49,1.42-.04,5.95-2.61,6.38-1.26.02-.09.04-.19.04-.29,0-2.6-6.38,2.3-6.81,1.06ZM10.64,21.6c0,.06,0,.11.02.15-.01-.05-.02-.1-.02-.15ZM17.52,20.69c0,.1.01.2.04.29.43-1.35,4.95,1.22,6.38,1.26.21-.14.35-.3.4-.49-.43,1.24-6.81-3.66-6.81-1.06ZM24.35,21.6c0,.05-.01.1-.02.15.02-.04.02-.09.02-.15Z"/>
                </g>
              </g>
              <g>
                <path class="cls-13" d="M23.97,5.79c.82.85,1.74,1.66,2.23,2.75-.02-.03-.03-.04-.02-.02.36.53.53,1.73,0,2.19-.39.33-1.07.38-1.56.42-.57.05-1.14,0-1.72-.04.4,2.3.8,4.6,1.2,6.9,1.72-.63,3.4-1.47,4.66-2.83,1.37-1.46,2.06-3.49,1.48-5.46-.39-1.31-1.28-2.43-2.35-3.26-.82-.64-1.76-1.06-2.7-1.47-.79-.34-1.79-.69-2.26-1.48-.16-.27-.22-.57-.25-.88-.38,1.29.43,2.31,1.28,3.19ZM6.13,15.16c1.27,1.36,2.94,2.2,4.66,2.83.4-2.3.8-4.6,1.2-6.9-.57.05-1.14.09-1.72.04-.49-.04-1.17-.09-1.56-.42-.54-.46-.37-1.65,0-2.19,0-.01,0,0-.02.02.49-1.1,1.41-1.9,2.23-2.75.85-.88,1.66-1.9,1.28-3.19-.03.31-.09.6-.25.88-.46.79-1.46,1.14-2.26,1.48-.94.41-1.88.84-2.7,1.47-1.07.83-1.96,1.95-2.35,3.26-.58,1.97.11,4,1.48,5.46Z"/>
                <path class="cls-3" d="M28.01,7.04c1.07.83,1.94,1.73,2.33,3.04-.03-.13-.06-.25-.1-.38-.39-1.31-1.28-2.43-2.35-3.26-.82-.64-1.76-1.06-2.7-1.47-.79-.34-1.79-.69-2.26-1.48.46.79,1.07,1.54,2.12,1.95.95.38,2.14.97,2.96,1.6ZM22.91,11.09l.43,2.47c.57.05,1.98-.34,2.52-.53.95-.34,1.97-1.02,2.18-1.87.37-1.52-1.53-3.4-1.51-3.37-.82-.9-1.73-1.15-2.55-2,.82.85,1.74,1.66,2.23,2.75-.02-.03-.03-.04-.02-.02.36.53.53,1.73,0,2.19-.39.33-1.07.38-1.56.42-.57.05-1.14,0-1.72-.04ZM4.55,10.08c.39-1.31,1.26-2.21,2.33-3.04.82-.64,2-1.22,2.96-1.6,1.04-.42,1.65-1.17,2.12-1.95-.46.79-1.46,1.14-2.26,1.48-.94.41-1.88.84-2.7,1.47-1.07.83-1.96,1.95-2.35,3.26-.04.13-.07.25-.1.38ZM6.86,11.16c.21.85,1.23,1.53,2.18,1.87.54.19,1.95.59,2.52.53l.43-2.47c-.57.05-1.14.09-1.72.04-.49-.04-1.17-.09-1.56-.42-.54-.46-.37-1.65,0-2.19,0-.01,0,0-.02.02.49-1.1,1.41-1.9,2.23-2.75-.82.85-1.73,1.1-2.55,2,.02-.03-1.89,1.85-1.51,3.37Z"/>
                <path class="cls-8" d="M10.63,15.06c.23-6.91,6.82-11.27,6.82-11.27,0,0,6.59,4.36,6.82,11.27h.01v4.39h-3.47v-.9c1.26,0,2.29-1.4,2.4-3.18-1.81-.16-3.85-.63-5.76-.63s-3.95.47-5.76.63c.11,1.78,1.14,3.18,2.4,3.18v.9h-3.47v-4.39h.01Z"/>
                <path class="cls-1" d="M12.7,9.9c0,2.02,2.13,3.66,4.75,3.66s4.75-1.64,4.75-3.66-4.75-6.1-4.75-6.1c0,0-4.75,4.08-4.75,6.1Z"/>
                <path class="cls-13" d="M21.81,13.56c0,.39.31.7.7.7s.7-.31.7-.7-.31-.7-.7-.7-.7.31-.7.7ZM19.34,13.12c0,.39.31.7.7.7s.7-.31.7-.7-.31-.7-.7-.7-.7.31-.7.7ZM11.69,13.56c0,.39.31.7.7.7s.7-.31.7-.7-.31-.7-.7-.7-.7.31-.7.7ZM14.15,13.12c0,.39.31.7.7.7s.7-.31.7-.7-.31-.7-.7-.7-.7.31-.7.7ZM16.85,12.86c0,.39.31.7.7.7s.7-.31.7-.7-.31-.7-.7-.7-.7.31-.7.7Z"/>
              </g>
            </g>
          </g>
        </g>
      </g>
    </g>
  </g>
</svg>