<?xml version="1.0" encoding="UTF-8"?>
<svg xmlns="http://www.w3.org/2000/svg" xmlns:xlink="http://www.w3.org/1999/xlink" viewBox="0 0 35 35">
  <defs>
    <style>
      .cls-1 {
        opacity: .5;
      }

      .cls-1, .cls-2, .cls-3, .cls-4 {
        mix-blend-mode: multiply;
      }

      .cls-1, .cls-5 {
        fill: #fbc288;
      }

      .cls-6 {
        fill: url(#linear-gradient-2);
      }

      .cls-7, .cls-2 {
        fill: #333;
      }

      .cls-8, .cls-9 {
        fill: #fff;
      }

      .cls-10, .cls-4 {
        fill: #d6be89;
      }

      .cls-11 {
        isolation: isolate;
      }

      .cls-2 {
        opacity: .2;
      }

      .cls-12 {
        fill: none;
        opacity: 0;
      }

      .cls-13 {
        fill: #e46a5d;
      }

      .cls-9, .cls-14 {
        mix-blend-mode: overlay;
        opacity: .3;
      }

      .cls-15 {
        fill: url(#linear-gradient);
      }
    </style>
    <linearGradient id="linear-gradient" x1="1722.24" y1="-16251.75" x2="1722.24" y2="-16270.85" gradientTransform="translate(1739.74 -16246.24) rotate(-180)" gradientUnits="userSpaceOnUse">
      <stop offset="0" stop-color="#fbd099"/>
      <stop offset="1" stop-color="#fbc288"/>
    </linearGradient>
    <linearGradient id="linear-gradient-2" x1="1716.66" y1="-16256.86" x2="1727.81" y2="-16256.86" gradientTransform="translate(1739.74 -16246.24) rotate(-180)" gradientUnits="userSpaceOnUse">
      <stop offset="0" stop-color="#89695e"/>
      <stop offset="1" stop-color="#795547"/>
    </linearGradient>
  </defs>
  <g class="cls-11">
    <g id="Lager_2" data-name="Lager 2">
      <g id="Layer_2" data-name="Layer 2">
        <g>
          <circle class="cls-12" cx="17.5" cy="17.5" r="17.5"/>
          <g>
            <g>
              <path class="cls-7" d="M13.12,23.09h8.69c5.25,0,8.28,4.5,8.28,6.45,0,.03,0,.05,0,.08-3.18,3.31-7.66,5.38-12.62,5.38s-9.43-2.07-12.62-5.38c0-.03,0-.05,0-.08,0-1.95,3.03-6.45,8.28-6.45Z"/>
              <path class="cls-9" d="M29.76,29.94c-.91-1.61-3.7-3.8-7.95-3.8h-8.69c-4.25,0-7.04,2.2-7.95,3.8-.11-.11-.22-.21-.32-.32,0-.03,0-.05,0-.08,0-1.95,3.03-6.45,8.28-6.45h8.69c5.25,0,8.28,4.5,8.28,6.45,0,.03,0,.05,0,.08-.1.11-.21.21-.32.32Z"/>
              <g>
                <path class="cls-13" d="M12.17,23.4v-3.33h10.62v3.7c0,3.14-5.33,5.58-5.33,5.58,0,0-5.33-2.44-5.33-5.58,0-.12,0-.25.03-.37Z"/>
                <path class="cls-9" d="M17.47,29.35s5.33-2.44,5.33-5.58v-3.7h-1.51v3.7c0,3.14-3.81,5.58-3.81,5.58ZM12.15,23.77c0,3.14,5.33,5.58,5.33,5.58,0,0-3.81-2.44-3.81-5.58,0-.12,0-.25.02-.37v-3.33h-1.5v3.33c-.02.12-.03.24-.03.37Z"/>
                <circle class="cls-13" cx="17.47" cy="29.35" r="1"/>
                <path class="cls-13" d="M14.69,32.07s1.17.04,1.86-.66.66-1.86.66-1.86c0,0-1.17-.04-1.86.66-.7.7-.66,1.86-.66,1.86ZM17.72,29.54s-.04,1.17.66,1.86c.7.7,1.86.66,1.86.66,0,0,.04-1.17-.66-1.86-.7-.7-1.86-.66-1.86-.66Z"/>
              </g>
            </g>
            <g>
              <g>
                <g>
                  <rect class="cls-5" x="11.03" y="13.87" width="12.94" height="4.11" rx="1.39" ry="1.39"/>
                  <path class="cls-15" d="M17.5,5.6c3.08,0,5.58,2.5,5.58,5.58v8.52c0,3.08-2.5,5.58-5.58,5.58s-5.58-2.5-5.58-5.58v-8.52c0-3.08,2.5-5.58,5.58-5.58Z"/>
                  <g class="cls-3">
                    <path class="cls-10" d="M15.61,21.81h3.69c.12,0,.21-.09.21-.21s-.09-.21-.21-.21h-3.69c-.12,0-.21.09-.21.21s.09.21.21.21Z"/>
                  </g>
                  <g>
                    <path class="cls-1" d="M17.97,19.18h-.93c-.29,0-.52-.23-.52-.52h1.97c0,.29-.23.52-.52.52Z"/>
                    <path class="cls-4" d="M18.11,18.66h-.36c0,.1.08.18.18.18s.18-.08.18-.18ZM16.88,18.66c0,.1.08.18.18.18s.18-.08.18-.18h-.36Z"/>
                  </g>
                  <g>
                    <path class="cls-1" d="M14.23,15.45c0,.58.47,1.04,1.04,1.04s1.04-.47,1.04-1.04-.47-1.04-1.04-1.04-1.04.47-1.04,1.04ZM18.68,15.45c0,.58.47,1.04,1.04,1.04s1.04-.47,1.04-1.04-.47-1.04-1.04-1.04-1.04.47-1.04,1.04Z"/>
                    <path d="M19.06,15.45h0c0,.37.3.67.67.67s.67-.3.67-.67h0c0-.37-.3-.67-.67-.67s-.67.3-.67.67ZM14.6,15.45h0c0,.37.3.67.67.67s.67-.3.67-.67h0c0-.37-.3-.67-.67-.67s-.67.3-.67.67Z"/>
                    <path class="cls-8" d="M19.82,15.45c0,.12.1.22.22.22s.22-.1.22-.22-.1-.22-.22-.22-.22.1-.22.22ZM15.33,15.45c0,.12.1.22.22.22s.22-.1.22-.22-.1-.22-.22-.22-.22.1-.22.22Z"/>
                  </g>
                  <path class="cls-7" d="M19.58,20.99c-.91-.47-.72-.61-1.12-.72-.3-.08-.64,0-.77.19-.13.19,0,.41.3.49.4.11.44-.07,1.59.04ZM15.44,20.99c1.15-.1,1.19.08,1.59-.04.3-.08.43-.3.3-.49s-.47-.28-.77-.19c-.4.11-.22.25-1.12.72Z"/>
                  <path class="cls-7" d="M14.61,22.28v.96c0,.58.47,1.04,1.04,1.04h1.43l.41-.92.41.92h1.44c.58,0,1.04-.47,1.04-1.04v-.96l.83,1.61c-.42,1-3.69,2.84-3.69,2.84,0,0-3.05-1.41-3.71-2.83l.81-1.61Z"/>
                </g>
                <path class="cls-7" d="M11.93,14.96h.64c-.02.13-.03.26-.03.39,0,1.5,1.22,2.72,2.72,2.72.93,0,1.75-.47,2.24-1.18.49.71,1.31,1.18,2.24,1.18,1.5,0,2.72-1.22,2.72-2.72,0-.13-.01-.26-.03-.39h.64v-2.33h-11.16v2.33ZM18.2,15.46c0-.85.69-1.54,1.54-1.54s1.54.69,1.54,1.54-.69,1.54-1.54,1.54-1.54-.69-1.54-1.54ZM13.72,15.46c0-.85.69-1.54,1.54-1.54s1.54.69,1.54,1.54-.69,1.54-1.54,1.54-1.54-.69-1.54-1.54Z"/>
              </g>
              <path class="cls-2" d="M11.12,17.08c-.06-.15-.09-.31-.09-.48v-1.34c0-.59.37-1.09.89-1.29v-2.78c0-3.08,2.5-5.58,5.58-5.58s5.58,2.5,5.58,5.58v1.44h0v1.34c.52.2.89.7.89,1.29v1.34c0,.17-.03.33-.09.48h-12.77Z"/>
              <rect class="cls-7" x="11.93" y="5.11" width="11.15" height="7.52"/>
              <rect class="cls-6" x="11.93" y="9.5" width="11.15" height="2.24"/>
              <rect x="4.67" y="12.62" width="25.67" height=".7"/>
              <path d="M21,10.62c0,.35.28.63.63.63s.63-.28.63-.63-.28-.63-.63-.63-.63.28-.63.63ZM18.94,10.62c0,.35.28.63.63.63s.63-.28.63-.63-.28-.63-.63-.63-.63.28-.63.63ZM16.87,10.62c0,.35.28.63.63.63s.63-.28.63-.63-.28-.63-.63-.63-.63.28-.63.63ZM14.81,10.62c0,.35.28.63.63.63s.63-.28.63-.63-.28-.63-.63-.63-.63.28-.63.63ZM12.75,10.62c0,.35.28.63.63.63s.63-.28.63-.63-.28-.63-.63-.63-.63.28-.63.63Z"/>
              <g class="cls-14">
                <rect class="cls-8" x="21.73" y="5.11" width="1.35" height="7.52"/>
                <rect class="cls-8" x="11.93" y="5.11" width="1.35" height="7.52"/>
              </g>
            </g>
          </g>
        </g>
      </g>
    </g>
  </g>
</svg>